<?xml version="1.0" standalone="no"?>
<!DOCTYPE svg PUBLIC "-//W3C//DTD SVG 20010904//EN"
 "http://www.w3.org/TR/2001/REC-SVG-20010904/DTD/svg10.dtd">
<svg version="1.0" xmlns="http://www.w3.org/2000/svg"
 width="942.000000pt" height="1280.000000pt" viewBox="0 0 942.000000 1280.000000"
 preserveAspectRatio="xMidYMid meet">
<metadata>
Created by potrace 1.15, written by Peter Selinger 2001-2017
</metadata>
<g transform="translate(0.000000,1280.000000) scale(0.100000,-0.100000)"
fill="#000000" stroke="none">
<path d="M3278 12790 c-288 -33 -552 -103 -1032 -274 -297 -106 -407 -159
-601 -287 -266 -176 -452 -394 -520 -609 -28 -89 -119 -268 -189 -374 -37 -54
-130 -181 -209 -283 -272 -353 -350 -467 -437 -642 -22 -44 -66 -118 -97 -163
-182 -267 -237 -546 -152 -774 19 -51 84 -157 196 -319 125 -181 455 -447 635
-511 174 -63 359 -172 683 -404 318 -227 296 -214 338 -197 43 18 84 71 104
134 23 73 20 284 -7 483 -37 271 -31 351 24 334 34 -11 160 -109 209 -164 93
-103 111 -229 57 -394 -17 -50 -71 -165 -119 -256 -167 -311 -181 -348 -210
-565 -32 -230 -41 -440 -41 -928 0 -414 2 -457 21 -550 49 -242 181 -503 384
-762 96 -122 100 -130 130 -252 58 -234 55 -471 -11 -868 -83 -500 -146 -741
-255 -984 -16 -35 -27 -66 -25 -68 9 -10 130 166 165 240 53 113 69 167 81
277 13 120 31 224 80 464 65 320 73 387 67 574 -15 433 -27 472 -236 732 -167
208 -220 302 -275 493 -66 227 -83 450 -67 872 6 170 11 369 11 442 0 315 63
528 297 1001 116 235 125 257 119 294 -17 108 -83 210 -246 383 -186 197 -224
267 -226 415 -2 102 -11 134 -80 272 -52 105 -89 165 -254 418 -180 275 -254
403 -313 540 -45 106 -96 287 -98 344 0 17 -4 40 -9 51 -8 18 -9 18 -10 -5 -9
-133 67 -383 201 -658 75 -154 84 -168 175 -264 109 -115 160 -186 219 -307
72 -145 121 -330 145 -546 6 -55 17 -264 25 -465 8 -201 20 -400 25 -442 13
-88 2 -146 -32 -180 -17 -17 -28 -19 -65 -14 -70 9 -165 66 -365 216 -165 124
-212 153 -424 263 -132 68 -278 147 -326 175 -193 115 -355 262 -457 414 -31
46 -71 103 -90 128 -47 63 -97 173 -111 247 -16 79 -8 256 14 338 22 81 106
249 155 310 22 28 65 100 96 160 64 125 166 281 284 435 376 488 453 604 531
805 55 142 82 199 126 265 189 286 524 508 1014 673 74 25 158 55 185 67 201
89 478 154 765 180 248 22 960 2 1275 -36 407 -49 743 -184 1026 -412 42 -34
204 -144 360 -245 456 -294 586 -392 762 -577 98 -103 230 -287 286 -399 69
-136 89 -313 55 -479 -54 -263 -280 -625 -581 -931 -204 -206 -250 -321 -241
-592 l5 -140 -28 27 c-15 14 -41 53 -59 85 -81 153 -124 354 -195 929 -14 113
-28 212 -30 220 -3 8 -12 80 -20 160 -17 167 -27 226 -60 365 -66 277 -214
628 -391 925 -102 171 -97 156 45 -153 182 -396 239 -539 296 -746 76 -277 87
-484 42 -791 -26 -173 -37 -342 -57 -861 -20 -519 -67 -729 -182 -806 -115
-76 -235 -50 -623 137 -252 122 -426 172 -488 142 -12 -6 -29 -13 -37 -15 -8
-2 8 -8 35 -11 129 -19 186 -56 148 -98 -19 -22 -129 -78 -152 -78 -8 0 -12
-2 -9 -5 2 -3 45 4 94 15 118 25 253 40 299 33 42 -7 87 -59 107 -125 42 -139
-159 -294 -483 -373 -127 -31 -466 -60 -584 -50 -107 9 -217 30 -260 51 -139
66 -48 211 248 396 56 35 61 36 96 24 57 -21 146 -28 237 -21 94 8 102 19 21
28 -44 4 -179 48 -196 63 -3 2 6 15 19 29 23 24 20 24 -55 -10 -251 -114 -342
-177 -411 -281 -69 -104 -185 -188 -295 -213 -196 -46 -450 45 -610 216 -69
74 -101 128 -120 203 -40 156 -296 741 -306 699 -4 -17 90 -286 168 -482 159
-398 342 -600 624 -688 l59 -18 81 26 c69 22 98 26 210 26 110 1 160 -5 320
-36 260 -50 353 -61 470 -54 110 6 180 23 390 92 188 63 272 104 343 170 71
66 103 132 105 217 1 32 3 58 5 58 2 0 23 -16 45 -36 94 -80 250 -131 371
-122 126 10 225 77 278 187 l32 66 6 205 c5 168 9 211 23 237 58 109 174 74
357 -107 152 -151 274 -317 365 -499 79 -157 125 -194 375 -300 80 -33 164
-73 186 -88 58 -39 339 -280 497 -428 266 -247 500 -520 752 -879 78 -110 98
-146 101 -180 2 -22 15 -111 29 -196 14 -85 32 -207 39 -270 13 -112 14 -113
15 -45 1 49 4 66 11 55 11 -17 13 -152 3 -201 l-7 -34 -6 30 c-5 25 -26 -220
-44 -510 -10 -157 -95 -437 -232 -760 -69 -164 -63 -166 23 -6 113 210 181
411 208 619 8 62 19 121 24 130 4 9 11 53 15 97 4 44 14 123 22 175 16 111 19
397 4 485 -6 33 -12 116 -14 185 -4 159 9 190 79 190 31 0 114 -33 165 -65 21
-14 63 -34 92 -45 l53 -20 -50 48 c-27 26 -63 57 -80 69 l-30 21 22 29 c135
169 264 411 337 631 82 248 118 460 137 807 6 110 13 227 15 260 6 73 -10 109
-49 113 -21 3 -39 -8 -82 -49 -112 -106 -225 -329 -242 -479 -9 -86 -167 -519
-254 -697 -79 -160 -160 -260 -228 -276 -53 -13 -118 37 -168 130 -29 52 -299
355 -533 597 -282 292 -612 550 -755 591 -191 54 -316 173 -482 457 -83 142
-127 246 -161 373 -22 84 -26 122 -26 240 -1 120 2 151 22 215 34 109 62 151
192 287 256 267 433 526 554 814 26 63 59 139 73 169 18 38 27 79 30 132 8
109 -17 180 -153 445 -63 122 -114 228 -114 236 0 9 -46 58 -102 110 -207 192
-333 286 -810 610 -205 140 -421 288 -480 330 -241 172 -478 264 -808 311
-289 42 -1200 85 -1372 66z m2596 -3036 c3 -8 24 -121 46 -249 44 -256 71
-387 95 -454 20 -57 19 -73 -6 -105 -27 -34 -41 -33 -87 9 -109 98 -170 379
-115 530 12 33 24 96 27 140 8 128 23 174 40 129z m3253 -1784 c19 -37 17
-425 -3 -582 -47 -376 -184 -713 -376 -921 l-53 -58 -80 -6 c-91 -6 -155 7
-187 39 -17 17 -20 29 -15 73 7 65 45 141 160 320 221 341 238 382 367 863 22
84 51 176 64 206 41 92 95 121 123 66z"/>
<path d="M5300 12342 c0 -22 46 -104 94 -169 92 -125 235 -443 336 -743 115
-344 177 -601 326 -1350 57 -289 106 -535 109 -547 20 -83 111 57 275 422 40
88 85 185 100 215 49 97 101 372 115 605 7 123 -6 323 -32 460 -27 149 -36 69
-22 -200 13 -257 8 -472 -15 -555 -77 -285 -127 -425 -212 -593 -62 -124 -106
-187 -145 -211 -49 -29 -54 -15 -114 312 -186 1015 -354 1588 -615 2102 -57
112 -80 146 -135 200 -36 35 -65 59 -65 52z"/>
<path d="M4900 11529 c-106 -21 -230 -117 -280 -216 -34 -67 -39 -157 -12
-210 74 -144 325 -219 477 -141 153 79 200 205 134 363 -65 157 -181 232 -319
204z m58 -84 c50 -21 128 -99 159 -159 55 -107 20 -205 -92 -257 -109 -50
-287 15 -339 125 -16 35 -22 116 -8 116 4 0 12 -15 17 -32 18 -59 112 -100
187 -82 31 7 30 8 -26 16 -32 4 -61 10 -64 12 -2 3 12 19 31 35 42 38 52 67
27 81 -26 14 -33 12 -26 -6 6 -17 -9 -44 -25 -44 -5 0 -9 18 -9 40 0 22 -5 49
-12 60 -7 10 -9 23 -5 27 14 13 97 4 140 -15 85 -38 102 -92 51 -159 l-28 -37
34 20 c19 11 43 34 53 51 16 29 17 35 3 67 -14 33 -57 71 -127 109 -32 18 -33
19 -14 33 24 18 27 17 73 -1z"/>
<path d="M4805 11330 c3 -5 8 -10 11 -10 2 0 4 5 4 10 0 6 -5 10 -11 10 -5 0
-7 -4 -4 -10z"/>
<path d="M2384 11051 c-145 -37 -288 -200 -309 -350 -16 -115 45 -219 155
-269 62 -28 163 -32 255 -11 85 19 195 77 246 130 115 118 99 252 -46 387 -36
34 -88 73 -115 87 -53 27 -137 39 -186 26z m122 -132 c193 -72 244 -213 117
-318 -55 -45 -131 -81 -173 -81 -51 0 -153 53 -193 100 -51 60 -71 167 -43
233 39 92 153 118 292 66z m-127 -421 l24 -18 -39 1 c-22 1 -49 4 -62 7 -21 7
-142 138 -142 155 0 7 150 -92 219 -145z"/>
<path d="M2306 10909 c-29 -23 -33 -56 -13 -103 l13 -30 13 32 c15 37 70 88
115 108 30 13 29 13 -35 14 -52 0 -72 -4 -93 -21z"/>
<path d="M2520 10875 c7 -17 6 -42 0 -73 -20 -91 -13 -85 -102 -80 l-79 5 37
-38 36 -37 50 27 c64 34 128 102 128 137 0 15 -12 37 -29 55 -37 37 -54 38
-41 4z"/>
<path d="M2367 10848 c-6 -23 6 -94 17 -106 13 -12 77 -5 93 10 14 14 14 21 3
48 -26 62 -102 94 -113 48z m49 -76 c-15 -15 -16 -14 -16 7 0 12 6 32 12 44
13 22 13 21 16 -7 2 -17 -3 -35 -12 -44z"/>
<path d="M565 9987 c13 -35 39 -90 58 -123 19 -32 102 -190 184 -349 252 -492
346 -612 616 -793 143 -95 144 -95 32 10 -376 350 -452 439 -529 626 -30 73
-303 586 -350 659 -33 51 -37 39 -11 -30z"/>
<path d="M4225 9990 c-151 -14 -195 -21 -195 -30 0 -17 96 -23 230 -14 182 11
238 10 284 -5 52 -18 115 -76 138 -129 58 -129 14 -369 -87 -480 l-37 -41 36
1 c50 2 62 -12 42 -49 -34 -67 -144 -143 -243 -168 -52 -13 -70 -14 -105 -4
-24 7 -45 12 -48 11 -3 -1 -43 -15 -90 -31 -165 -57 -306 -65 -405 -23 -65 28
-31 -1 41 -34 135 -64 300 -57 559 21 150 46 186 65 256 134 157 157 205 435
110 637 -39 83 -91 138 -166 175 -73 36 -162 44 -320 29z"/>
<path d="M3774 9905 c-125 -37 -189 -69 -248 -125 -104 -99 -135 -235 -87
-390 34 -109 123 -238 214 -311 l42 -34 -37 44 c-34 40 -74 128 -63 139 3 3
68 -3 146 -12 145 -18 198 -16 219 9 18 22 5 46 -57 108 -61 61 -66 63 -101
43 l-24 -13 30 -12 c16 -7 47 -30 68 -52 l39 -40 -25 -19 c-29 -22 -67 -25
-141 -9 -61 13 -93 41 -85 74 5 21 2 23 -42 27 -97 9 -162 97 -162 217 0 75
20 128 69 184 47 53 81 71 240 126 79 27 148 54 154 60 19 19 -62 12 -149 -14z"/>
<path d="M4485 9506 c-54 -17 -85 -34 -117 -64 -45 -42 -34 -116 24 -168 22
-20 24 -20 76 -4 51 16 52 17 29 27 -26 12 -62 77 -73 130 -6 29 -4 31 27 38
52 10 133 36 144 46 14 13 -64 10 -110 -5z"/>
<path d="M3694 9345 c-25 -19 -3 -19 46 0 l35 13 -31 1 c-16 1 -39 -6 -50 -14z"/>
<path d="M4231 8834 c0 -21 4 -48 9 -59 6 -13 7 -1 3 35 -7 66 -13 78 -12 24z"/>
<path d="M4251 8681 c-1 -60 -33 -122 -89 -172 -26 -23 -38 -39 -27 -34 42 16
123 34 190 41 39 4 60 9 49 11 -36 7 -76 59 -100 130 l-23 68 0 -44z"/>
<path d="M8900 6172 c0 -5 7 -16 16 -23 42 -35 151 -219 209 -354 43 -99 110
-319 162 -527 32 -125 59 -225 61 -223 2 2 -3 61 -13 132 -59 455 -210 823
-397 974 -21 16 -38 26 -38 21z"/>
<path d="M9357 4910 c8 -109 -13 -340 -41 -450 -81 -317 -283 -634 -625 -978
l-121 -122 -10 -67 c-6 -36 -34 -134 -61 -217 -66 -197 -79 -255 -79 -348 0
-84 21 -155 60 -205 l22 -28 -9 40 c-20 97 -8 212 41 400 31 118 49 211 53
270 l6 90 153 158 c402 414 604 761 659 1132 20 136 19 149 -11 263 -36 137
-44 149 -37 62z"/>
<path d="M3487 4663 c-8 -21 -26 -76 -40 -123 -77 -255 -109 -494 -122 -925
-8 -254 -33 -455 -91 -725 -42 -195 -73 -293 -99 -313 -13 -10 -56 -59 -96
-110 -83 -105 -146 -174 -172 -189 -24 -13 -57 15 -57 49 0 12 -4 23 -10 23
-5 0 -10 -7 -10 -16 0 -9 -21 -57 -47 -107 -87 -168 -220 -277 -340 -277 -28
0 -85 -9 -129 -21 -89 -23 -167 -20 -216 9 -38 22 -68 87 -68 148 l-1 49 -25
-49 c-31 -61 -59 -97 -87 -113 -36 -20 -91 -15 -131 12 -21 14 -51 25 -70 25
-51 0 -130 27 -155 54 -24 25 -30 72 -16 117 17 56 105 172 219 288 66 69 108
117 91 106 -116 -71 -195 -132 -218 -169 -40 -62 -117 -146 -134 -146 -44 0
35 246 130 405 64 107 117 160 202 199 130 61 354 215 326 224 -18 6 -134 -28
-198 -57 -144 -68 -312 -216 -407 -360 -101 -152 -139 -318 -103 -443 9 -29
18 -74 20 -101 15 -161 223 -243 600 -236 78 2 183 2 232 0 144 -5 271 37 410
136 100 72 183 151 360 344 210 227 221 254 284 639 17 102 35 201 41 220 6
19 16 145 21 280 9 259 19 324 51 365 37 47 105 24 206 -69 47 -44 76 -62 146
-87 111 -40 166 -87 166 -143 0 -46 -25 -95 -104 -205 -98 -137 -123 -182
-141 -251 -18 -69 -14 -113 11 -141 9 -10 58 -32 109 -49 66 -22 106 -42 137
-69 43 -38 43 -38 198 -56 188 -23 515 -26 605 -7 160 35 275 85 385 169 38
29 74 53 79 53 17 0 71 -52 87 -83 25 -47 29 -168 9 -272 -22 -121 -99 -347
-185 -548 -38 -90 -70 -175 -70 -189 0 -106 -102 -335 -270 -608 -112 -180
-184 -319 -221 -420 -18 -51 -23 -87 -23 -165 -1 -88 2 -107 25 -155 14 -31
40 -72 58 -92 17 -20 42 -68 56 -107 54 -160 142 -283 236 -331 56 -29 149
-36 211 -17 47 15 48 15 67 -11 l19 -26 98 17 c54 10 211 55 348 101 227 75
326 103 439 121 27 4 54 22 101 65 71 67 115 146 141 251 23 93 29 304 16 544
l-12 210 31 150 c57 279 99 558 170 1120 16 132 44 336 62 453 26 179 34 212
47 207 67 -26 192 -8 331 47 41 16 179 83 305 148 252 129 294 146 322 125 17
-13 17 -16 -5 -82 -12 -37 -35 -120 -51 -183 -16 -63 -65 -207 -109 -320 -138
-351 -165 -438 -183 -582 -30 -248 84 -465 287 -546 280 -113 660 -93 872 46
160 104 211 297 128 485 l-21 49 0 -124 c0 -113 -3 -128 -29 -192 -36 -85
-109 -166 -149 -166 -33 0 -64 33 -77 80 -5 19 -13 85 -17 145 l-7 110 -12
-155 c-17 -242 -32 -276 -130 -296 -75 -16 -156 -17 -188 -3 -50 23 -53 55
-26 294 12 110 12 311 -1 270 -15 -47 -47 -275 -55 -386 l-7 -101 -41 -19
c-49 -22 -153 -25 -209 -5 -85 31 -155 116 -165 202 -5 46 -10 52 -30 32 -19
-19 -40 8 -53 70 -14 68 -6 265 15 362 8 36 37 124 66 195 29 72 97 256 152
410 191 540 283 737 458 975 26 36 55 80 64 98 32 62 9 43 -43 -37 -29 -43
-101 -145 -160 -225 -116 -158 -162 -200 -371 -342 -305 -207 -594 -311 -800
-288 l-59 6 -7 67 c-4 36 -3 212 2 391 11 384 5 536 -22 599 l-19 43 0 -383
c0 -517 -18 -708 -160 -1704 -46 -324 -87 -617 -91 -650 -3 -33 -15 -87 -25
-120 -39 -129 -42 -180 -40 -543 3 -533 -22 -626 -194 -732 -59 -36 -139 -35
-189 4 -37 28 -86 112 -86 149 0 33 -16 17 -28 -28 -20 -75 -74 -176 -124
-230 -84 -92 -188 -129 -305 -107 -42 7 -55 6 -66 -6 -24 -24 -62 -8 -82 35
-10 21 -20 67 -23 103 -4 58 -1 74 26 130 32 70 82 205 82 222 0 6 -6 6 -15
-2 -26 -21 -103 -186 -136 -289 -28 -90 -33 -99 -72 -123 -67 -42 -116 -53
-159 -35 -80 34 -121 138 -122 312 -1 61 3 142 7 180 l9 70 -30 -41 c-16 -22
-47 -55 -67 -72 -103 -84 -148 -27 -124 155 11 81 20 104 176 422 193 394 294
612 364 788 71 177 195 547 214 640 46 223 33 519 -32 718 -58 179 -196 399
-387 620 -118 136 -517 533 -601 599 -292 226 -236 163 274 -309 98 -90 341
-355 401 -435 166 -224 146 -340 -58 -340 -82 0 -297 24 -395 45 -93 19 -94
19 -22 -9 33 -13 83 -35 111 -49 101 -51 185 -54 382 -12 181 38 243 6 279
-145 l13 -55 -76 -73 c-194 -185 -437 -296 -634 -291 -48 1 -97 -3 -113 -9
-36 -15 -37 -15 -37 2 0 8 10 22 23 31 17 13 19 18 8 22 -21 8 -61 54 -61 69
0 23 -14 16 -32 -15 -51 -91 -249 -106 -365 -28 -87 58 -112 148 -68 240 l16
32 -23 -30 c-65 -86 -131 -146 -175 -159 -22 -7 -23 -5 -23 46 1 170 75 318
201 398 83 54 158 73 293 74 90 1 110 3 85 10 -220 59 -485 176 -655 289 -121
80 -260 191 -275 220 -23 41 -12 208 26 391 19 94 41 194 49 221 18 59 14 70
-7 18z"/>
<path d="M4466 3196 c-44 -51 -46 -56 -37 -93 7 -31 9 -34 15 -18 4 11 23 53
42 93 18 39 32 72 30 72 -2 0 -24 -24 -50 -54z"/>
<path d="M7545 2537 c-9 -21 -19 -83 -23 -137 l-7 -98 41 30 c46 33 43 18 29
158 -8 80 -20 94 -40 47z"/>
<path d="M2086 2468 c-16 -47 -46 -151 -46 -164 0 -4 20 32 45 81 28 54 43 95
39 107 -9 29 -21 21 -38 -24z"/>
<path d="M7473 2248 c-28 -48 -47 -98 -40 -105 4 -3 21 24 38 61 33 71 35 99
2 44z"/>
<path d="M4909 899 c-23 -47 -69 -176 -69 -193 1 -6 14 14 30 44 31 57 74 180
66 187 -3 3 -15 -15 -27 -38z"/>
<path d="M5847 705 c-11 -44 -17 -97 -15 -140 l3 -70 18 115 c23 142 19 196
-6 95z"/>
</g>
</svg>
