<svg xmlns="http://www.w3.org/2000/svg" xmlnsXlink="http://www.w3.org/1999/xlink" xmlnsXodm="http://www.corel.com/coreldraw/odm/2003" xml:space="preserve" width="209.903mm" height="296.686mm" version="1.1" viewBox="0 0 20990.28 29668.6" style="clip-rule:evenodd;fill-rule:evenodd;image-rendering:optimizeQuality;shape-rendering:geometricPrecision;text-rendering:geometricPrecision">
  <defs>
    <style type="text/css">
      
    .str0 {stroke:#2B2A29;stroke-width:20;stroke-miterlimit:22.9256}
    .fil1 {fill:#FEFEFE}
    .fil0 {fill:#2B2A29}
   
    </style>
  </defs>
  <g id="Camada_x0020_1">
    <metadata id="CorelCorpID_0Corel-Layer"/>
    <rect class="fil0 str0" x="-878.26" y="-836.43" width="22930.57" height="16368.9"/>
    <path class="fil1 str0" d="M19822.5 2220.6c-164.54-522.61-478.49-1012.94-1009.84-1456.32-475.53 316.41-951.05 632.83-1426.58 949.24 442.68 406.47 797.55 875.69 993.29 1458.55 481.04-317.16 962.09-634.31 1443.13-951.47z"/>
    <path class="fil1 str0" d="M16305.69 4577.69c660-446.86 1319.99-893.72 1979.99-1340.58-203.47-572.09-538.82-1055.13-1007.62-1448.07-661.48 443.92-1322.97 887.83-1984.45 1331.75 417.57 442.18 735.67 938.25 1012.08 1456.9z"/>
    <path class="fil1 str0" d="M19924.93 2141.82c-187.59-549.38-520.91-1031.51-1014.24-1439.79 348.37-234.45 696.74-468.9 1045.11-703.35 249.89 0 499.77 0 749.66 0 6.25 533.95 12.51 1067.89 18.76 1601.84-266.43 180.43-532.86 360.87-799.29 541.3z"/>
    <path class="fil1 str0" d="M10440.73 1796.89c3208.99 0 5810.39 2601.4 5810.39 5810.39 0 3208.99-2601.4 5810.39-5810.39 5810.39-3208.99 0-5810.39-2601.4-5810.39-5810.39 0-3208.99 2601.4-5810.39 5810.39-5810.39zm2171.16 7827.88l720.42 881.04-40.21 45c-101.26 113.31-159.86 199.79-177.8 254.2l2.83-0.63c85.75-16.95 243.13-101.77 469.78-270.32 135.92-118.28 226.8-213.31 261.28-275.31-64.26 1.96-179.9 33.66-354.89 101.34l-47.59 18.41-32.34-39.63c-122.26-149.79-236.1-302.28-342.86-456.96-107.21-155.34-206.86-312.09-300.41-469.92l-26.76-45.14 35.85-38.65c152.38-164.3 288.46-348.12 401.02-560.01 92.75-174.62 169.45-368.12 226.04-585.21-8.95 1.88-17.82 3.26-26.6 4.14-66.47 6.68-125.29-14.21-174.14-57.07-43.66-38.32-78.08-94.16-101.22-162.73-39.32-116.5-47.48-274.41-13.1-446l1.11-4.13c26.52-100.07 66.03-196.68 114.34-274.59 38.97-62.86 84.28-114.46 134.1-147.69 43.86-29.26 90.73-44.94 139.7-43.23l-0.65-4.71c-4.71-33.4-11.68-66.14-20.94-98.11l-19.05-65.68 1089.59-347.83 26.11 56.05c64.17 137.77 122.61 224.04 166.76 258.04l0.15-0.65c17.44-72.53 2.82-223.79-60.73-459.41-78.31-220.3-141.92-358.28-190.3-422.09-16.63 63.31-22.88 176.8-18.18 335.55l1.36 45.94-41.87 19.65c-244.39 114.73-549.18 182.89-853.95 251.04l-162.29 36.6-21.17-58.32c-40.48-111.48-86.55-220.83-138.24-327.44-1.15 40.54-7.48 77.94-18.03 109.34-22.59 67.23-65.68 112.62-123.88 120.15-57.85 7.48-110.92-25.43-149.89-84.67-29.55-44.92-52.4-107.88-61.5-178.17l-0.83-6.76c-7.87-67.65-1.68-131.56 14.84-180.75 22.59-67.23 65.69-112.62 123.87-120.15 8.06-1.04 16.03-1.3 23.88-0.81-177.03-275.53-397.34-525.11-662.01-735.92-420.48-334.93-953.48-572.46-1603.36-661.35l-66.46-9.08 44.4-532.03 56.74-7.35c161.35-20.88 255.82-45.22 300.8-70.31-4.6-2.94-10.13-6.22-16.48-9.8-91.07-51.36-274.39-93.74-443.89-104-314.53-4.4-462.5 4.46-468.83 24.54-2.87 9.11 119.08 60.21 343.7 145.8l47.95 18.28-27.76 515.2-53.84 1.95c7.89 17.77 13.85 35.86 17.9 54.18 10.9 49.26 7.82 98.97-8.54 147.49-15.56 46.11-42.89 90.68-81.35 132.17l-0.14-0.13c-91.78 98.97-251.04 183.92-467 231.7l-3.09 0.69-3.25 0.41c-238.3 30.49-438.13 24.96-589.53-25.89-138.85-46.63-237.62-129.42-289.36-254.56-16.05 6.94-31.95 14.57-47.73 22.73-37.18 19.24-74.06 41.8-110.79 65.36l-57.68 37.01-644.86-952.41 42.18-40.98c112.5-109.28 172.55-183.4 194.23-229.78-4.97 0.48-10.68 1.16-17.05 2.03-103.95 14.25-277.92 91.92-426.62 190.28-217.18 164.88-344.19 276.94-345.09 315.05l402.72-121.45 29.47 39.85c197.34 266.8 357.97 549.46 518.58 832.07l41.29 72.66-53.82 36.48c-324.82 220.17-584.31 481.73-785.76 779.97-201.55 298.39-345.01 633.72-437.68 1001.3l-13.3 52.77-1093.03 8.58-12.92-54.47c-43.26-182.46-85.96-290.58-123.86-335.45l-5.31 11.33c-38.41 79.13-63.07 247.81-62.66 485.62 11.95 196.14 33.51 334.94 62.31 405.36 30.48-48.97 65.62-144 104.72-290.43l14.5-54.3 1082.03 42.57-5.12 72.38c-26.36 373.05 8.22 722.52 102.76 1048.78 15.02-64.77 48.94-112.72 101.28-133.59l13.15-5.24 2.51 0c64.42-17.58 135.5 11.16 200.12 73.55 56.16 54.23 110.57 136.9 150.01 235.2l0.1-0.04 1.45 3.76c38.79 98.19 56.1 195.31 52.67 273.11-4.3 97.18-41.25 170.98-109.8 198.32l-13.13 5.24-2.55 0c-38.26 10.43-78.87 4.53-119.09-15.06 188.18 315.66 444.35 605.72 767.35 870.6l47.47 38.93-540.12 874.23-51.37-15.19c-161.83-47.84-271.73-70.68-335.5-71.79 47.82 62.54 157.42 155.86 317.38 272.87 161.97 110.41 329.42 188.28 428.01 202.67l13.74 1.85c-20.88-47.97-81.39-125.34-195.43-239.13l-41.25-41.16 602.59-886.53 59.09 46.27c73.91 57.88 133.44 97.2 210.99 136.3 55.42 27.95 120.94 56.23 207.77 91.21-0.06-8.41 0.26-16.69 0.95-24.81 5.8-68.39 36.27-125.16 84.91-168.01 44.85-39.52 105.11-66.14 174.93-77.79 85.75-14.31 187.27-5.84 292.05 29.63l0.28 0c135.77 46.61 245.77 127.6 317.01 219.78 59.12 76.49 92.19 161.54 92.85 243.44 295.33 30.06 594.57 16.67 898.39-48.17-41.39-7.37-75.27-24.67-98.18-51.65l-2.4-3.22c-41.59-52.03-48.59-145.07-13.45-246.32 30.84-88.85 94.14-189.15 194.23-274.16 5.84-4.95 11.57-9.69 17.07-14.08l0.13 0.17c99.64-79.59 205.19-130.3 295.74-153.96 118.54-30.98 219.95-15.25 268.16 41.54 0.54 0.52 0.89 0.94 1.22 1.62 44.48 54.21 45.3 148.89 2.8 251.4-36.23 87.38-104.68 186.15-203.43 269.99l-0.13-0.16-10.25 8.69c-33.9 27.81-68.48 52.28-102.88 73.42 363.2-124.15 733.97-324.32 1113.55-613.65l54.24-41.34 43.05 52.64zm-3648.89-673.3l54.29 101.35 75.46-114.14 285.08 371.48 106-195.66 66.56 61.14c81.08 74.48 164.45 142.92 250.53 203.94 70.28 49.82 142.29 94.75 216.24 134.04l269.52-336.16 356.12 293.45c84.2-58.49 162.73-119.57 236.38-182.84 85.63-73.57 164.67-150.23 238.4-229.31l52.49-56.31 156.68 174.99 261.98-449.28 106.68 133.34 117.24-262.44c-631.53-370.5-935.28-168.05-1193.18 3.95-132.86 88.61-255.06 170.08-405.67 181.34-116.28 13.01-227.76-30.15-348.18-76.8-241.32-93.48-524.95-203.24-902.62 243.92zm-621.55-906.19c27.41 74.61 57.14 148.23 89.44 220.73 44.5 99.87 93.95 197.77 149.03 293.41l66.34-110.18 210.59 326.54c499.63-479.23 756.13-378.69 1022.83-274 96.21 37.76 193.96 76.14 303.2 78.68 109.44-0.35 223.16-70.98 349.95-149.74 309.53-192.26 688.05-427.35 1367.35-0.22l112.57-227.58 96.74 104.42c53.55-112.86 101.53-226.39 142.73-340.66 28.64-79.43 54.05-159.44 75.82-240.09-73.09 56.76-148.06 111.24-224.33 164.09-133.97 92.83-269.88 179.41-406.29 264.25l-21.41 13.32-25.17-3.4c-157.64-21.25-314.54-52.3-470.75-91.79-144.26-36.47-288.52-80.23-432.76-130.21l-495.69 389-39.49-19c-92.2-44.34-181.41-92.88-267.61-145.52-73.58-44.94-145.94-93.44-217.05-145.44-108.58 58.73-220.76 115.16-336.66 169.14-129.73 60.43-266.08 118.72-409.3 174.73l-27.34 10.7-26.95-12.07c-137.61-61.61-268.76-129.43-394.66-202.28-64.73-37.46-128.4-76.47-191.13-116.83zm-259.56-344.88l-1.33-4.29 4.04 2.83 197.24-106.59 89.17 145.5-23.66 37.16c-0.05 0.07-6.73 11.2-20.56 25.51 16.88 11.56 36.09 24.26 57.06 37.77 190.5 122.73 514.8 313.24 560.66 320.3 130.28-56.03 259.59-112.98 385.45-173.08 128.52-61.37 252.92-125.75 370.11-195.28l40.7-24.14 37.85 28.82c80.5 61.3 161.01 120.47 241.45 175.58 65.94 45.18 131.96 87.71 198.05 126.5l494.41-401.8 37.7 14.28c149.24 56.55 299.18 105.89 449.8 147.47 142.19 39.26 285.7 71.8 430.51 97.16 129.02-74.79 253.93-154.9 374.93-239.98 97.05-68.24 191.18-139.23 282.53-212.81l-60.29-24.37 78.1-184.63 224.19 81.05 20.12-17.4-4.41 23.08 190.34 68.82-105.07 172.6-61.88-21.46c-37.42 157.87-85.48 311.34-142.13 461.23-65.66 173.74-142.79 342.42-228.2 507.41l-47.58 91.9-87.37-100.17-317.18 679.83-128.78-158.96-247.3 427.19-199.85-215.82c-64.46 67.03-131.76 131.48-203.4 191.88-91.79 77.4-190.77 148.15-300.15 209.2l-42.11 23.5-311.31-258.05-255.98 310.4-50.41-26.24c-94.95-49.42-188.18-105.35-279.2-169.49-65.96-46.49-130.61-97.28-193.74-153.01l-127.33 258.92-294.38-404.62-87.01 176.4-366.9-620.56-52.08 122.23-72.76-102.56c-112.78-158.98-206.3-323.2-283.87-491.69-64.65-140.39-118.38-284.12-163.09-430.55l-65.14 37.65-111.55-171.89 171.59-92.73zm2962.84-891.92c75.07 41.74 157.43 54.69 234.54 43.94 60.29-8.4 117.46-31.3 165.43-66.2l0.13 0.18c46.82-34.1 84.69-79.91 107.69-134.99 28.7-68.75 34.27-152.84 5.58-248.14-75.07 71.09-154.32 139.86-237.96 206.17-86.91 68.9-178.64 135.3-275.41 199.04zm-1980.07 211.36c78.85-3.63 160.88-35.98 234.2-103.48-102.44-44.72-202.42-92.76-299.86-144.21-96.73-51.07-191.3-105.62-283.61-163.72-12.56 101.74 9.52 189.91 53.56 258.15 32.38 50.18 76.68 89.85 127.62 116.25 51.11 26.48 108.9 39.73 168.09 37.01zm-1462.28 1275.07c-4.05 1.78-6.83 19.48-8.02 46.69-2 45.47 8.78 104.06 32.76 165.26l1.21 3.03c24.75 62.09 57.69 113 90.9 145.07 19.79 19.11 34.16 30.09 38.35 28.42 4.05-1.61 6.85-19.36 8.05-46.71 2-45.56-8.82-104.28-32.9-165.62l-0.79-1.57-0.84-2.51c-24.69-61.45-57.39-111.84-90.36-143.67-19.77-19.09-34.13-30.08-38.36-28.39zm-9.99-1401.75c-0.71-3.17-1.06-4.37-0.75 0.04 0.31 4.42 0.49 3.19 0.75-0.04zm186.18-13.1c0.72 3.1 1.07 4.23 0.76-0.16-0.32-4.48-0.49-3.17-0.76 0.16zm221.36-745.29c2.15-26.25 0.38-44.4-5.81-48.17-6.17-3.76-23.05 2.96-45.31 16.86-36.19 22.6-74.47 62.68-106.25 114.84-31.7 52.03-49.73 104.38-53.22 146.87-2.15 26.26-0.38 44.41 5.81 48.18 6.18 3.76 23.05-2.96 45.31-16.86 35.83-22.39 73.75-61.94 105.35-113.38l0.9-1.48c31.71-52.02 49.73-104.35 53.22-146.86zm2269.41-433.81c-57.47-29.28-139.66-50.98-232.89-58.13-93.42-7.16-178.04 1.74-239.3 21.91-41.9 13.79-68.28 28.07-69.15 39.51-0.89 11.64 22.98 29.86 62.27 49.88 57.47 29.28 139.67 50.99 232.89 58.13 93.41 7.16 178.03-1.74 239.29-21.91 41.91-13.8 68.29-28.07 69.16-39.51 0.89-11.63-22.98-29.86-62.27-49.88zm621.53-645.42c-115.42 7.56-217.28 34.97-288.64 73.13-54.96 29.39-88.07 61.06-86.31 87.98 1.74 26.58 38.74 53.49 97.13 75.48 75.8 28.55 180.48 42.43 295.98 34.86l0.57-0.04c115.2-7.6 216.86-34.99 288.1-73.09 54.95-29.38 88.07-61.05 86.31-87.97-1.74-26.58-38.75-53.49-97.14-75.48-75.81-28.55-180.49-42.44-296-34.87zm1615.87 941.64c-34.82-23.63-64.86-33.61-81.82-24.35-16.82 9.18-24.57 39.87-23.51 82 1.46 57.99 21.99 129.78 61.21 201.59 39.2 71.77 88.5 127.82 136.49 160.38 34.82 23.63 64.86 33.61 81.82 24.35 16.82-9.18 24.57-39.86 23.51-81.99-1.46-57.98-21.99-129.76-61.2-201.57-39.22-71.81-88.51-127.85-136.5-160.41zm539.06 122.02c-2.88 0.37-1.84 0.83 0.24 1.65 1.68-1.3 2.49-2-0.24-1.65zm3.31 23.45c-4.19 20.47-4.93 45.84-1.36 73.46l0.23 1.74c3.62 26.78 10.66 50.37 19.66 68.6 4.19-20.47 4.94-45.83 1.36-73.46l-0.23-1.78c-3.63-26.75-10.66-50.33-19.66-68.56zm21.6 165.6c-1.68 1.31-2.48 2 0.24 1.65 2.88-0.37 1.85-0.83-0.24-1.65zm423.37 930.79c-2.84-0.8-5.64-1.35-8.4-1.67-13.66-1.57-28.4 2.83-43.51 12.16-20.83 12.86-41.69 33.86-61.72 61.35-61.43 84.32-109.49 220.68-127.27 373.84-4.34 118.59 14.37 213.02 47.53 272.44 13.21 23.68 27.97 40.11 43.37 48.12 10.64 5.53 22.8 6.45 35.93 2.07 23.05-7.71 49.11-27.93 77.31-62.52 27.49-122.02 42.84-243.18 47.94-363.58 4.82-113.81 0.56-227.91-11.18-342.21zm133.47-74.15l2.56 21.95c15.4 132.38 21.39 265.64 15.71 399.93-4.15 98.13-14.51 196.24-31.94 294.32l3.8-3.02-40.04 190.61c-1.57 7.5-3.17 14.96-4.79 22.4l514.5 300.55c108.46-121.19 192.91-187.46 253.57-209.81 55.27-20.36 100.24-12.7 134.65 18.92 28.84 26.5 43.33 67.38 43.84 119.83 0.96 95.89-47.37 255.45-140.37 442.72l-2.2 4.14c-146.42 251.61-265.14 413.2-347.85 480.15-47.65 38.57-92.07 53.23-132.43 43.62-47.96-11.42-78.14-48.81-89.32-112.47-12.73-72.61 0.27-200.79 42.49-385.79l-414.33-243.29c-39.16 100.1-82.87 194.8-130.61 284.68-109.54 206.2-240.5 387.4-386.81 550.62 84.83 141.19 173.96 280.37 268.29 417.04 95.35 138.15 196.46 274.52 304.32 408.72 180.7-67.05 304.11-95.65 377.23-92.47 60.84 2.64 100.57 25.18 120.66 65.53 18.59 37.35 14.39 81.51-10.85 131.31-39.73 78.42-144.6 191.46-300.5 326.96l-4.14 3.31c-245.92 183.11-424.51 276.76-528.86 297.39-57.61 11.39-102.76 3.15-134.53-22.93-37.05-30.39-49.35-75.41-36.19-133.04l0-0.28c15.16-66.38 72.73-163.52 174.26-283.73l-602.16-736.4c-420.52 312.02-831.92 518.91-1235.6 637.36-148.89 43.69-296.63 75.33-443.3 95.81 4.8 57.2 8.01 110.49 11.21 163.77 2.63 43.87 5.27 87.76 8.39 129.96 165.16 16.53 266.87 48.92 318.12 88.36 47.64 36.66 63.86 80.65 53.61 128.54-8.15 38.15-34.85 73.18-76.48 103.32-87.91 63.65-265.47 119.59-470.95 135.49l-1.93 0c-265.51 12.9-465.9 2.15-569.75-31.4-56.54-18.26-93.88-46.32-109.59-84.39-19.28-46.7-6.46-93.63 41.91-139.89l0.14 0.15c52.98-50.6 166.06-110.48 349.62-178.72l-19.12-286.83c-107.7-1.79-214.84-9.29-321.47-22.18l-0.27 0.8-54.62-4.66c-112.48-9.58-226.33-26.67-341.48-50.99-88.41-18.67-176.73-41.42-264.94-68.1l4.31 9.66-159.88-62.53c-156.21-61.09-258.77-102.91-343.54-145.65-64.38-32.46-117.5-64.98-174.3-106.01l-453.63 667.39c119.61 124.84 180.02 215.43 196.91 276.83 17.7 64.34 0.32 110.06-44.45 139.08-32.51 21.07-77.46 26.65-130.72 18.89-118.02-17.22-309.31-104.23-488.18-226.25l-1.93-1.38c-184.48-134.87-309.91-245.12-361.43-321.76-31.56-46.97-41.62-89.9-28.44-128.17 15.15-43.99 52.89-70.06 114.83-76.52 68.89-7.18 187.84 11.73 363.22 60.96l419.37-678.79c-329.57-278.18-589.88-583.23-779.72-915.57l-377.11 227.22c50.13 192.81 63.17 315.23 50.38 383-13.5 71.54-51.27 105.57-107.26 108.58-39.27 2.09-82.23-17.63-126.66-54.56-96.66-80.36-227.52-263.39-339.15-467.04l-1.65-3.31c-97.97-203.22-143.69-356.36-142.71-446.01 0.59-53.82 16.9-93.91 48.2-118.92 34.92-27.91 79.05-32.46 131.29-12.03 61.24 23.96 145.87 91.89 250.26 208.65l419.91-239.13c-142.59-379.72-203.45-790.29-181.03-1232.29l-825.34-32.47c-44.98 156.62-89.1 257.43-130.55 307.88-37.88 46.11-79.6 62.98-124.22 52.41-38.64-9.15-69.84-39.3-93.36-88.98-38.85-82.02-66.85-243.21-80.57-468.65l0-4.13c-0.78-261.81 29.38-454 76.43-550.93 25.33-52.16 58.65-84.9 98.81-96.23 47.21-13.32 92.87 2 134.88 48.53l-0.16 0.14c49.09 54.44 99.8 167.13 146.18 345.88l872.49-6.85c54.21-202.95 123.67-396.38 209.58-579.57l-391.25-270.13c-123.53 112.25-214.22 170.49-275.55 187.04-60.47 16.33-105.12 1.91-134.98-37.86-23.26-31.03-30.39-74.34-22.82-126.82 15-104 92.34-273.43 213.48-458.52l1.19-1.8 3.22-3.99c198.61-245.13 356.54-406.92 443.55-423.51 138.42-26.4 166.6 112.16 39.56 482.97l346.19 256.41c3.86-5.8 7.74-11.61 11.65-17.39 199.82-295.82 454.41-557.34 770.29-780.41-143.1-251.66-287.51-502.59-457.79-738.56-342.46 97.57-491.52 73.87-488.68-45.09 2.04-86.04 150.83-234.1 404.35-426.4l3.58-2.75c164.48-108.8 362.48-195.46 485.6-212.34 53.26-7.31 98.53-2.31 131.18 17.64 47.09 28.78 65.65 74.85 46.55 141.02-17.17 59.46-77.08 146.77-196.24 267.91l502.62 742.33c20.92-12.45 42.22-24.47 64.1-35.79 43.25-22.38 88.48-41.73 136.99-55.93l70.63-20.67 17.29 71.93c27.69 115.15 104.24 188.9 221.32 228.22 129.78 43.59 307.73 47.64 523.96 20.24 185.42-41.44 318.39-110.54 391.33-189.26l0-0.28c24.83-26.8 41.98-54.06 51.03-80.89 8.23-24.41 9.91-48.88 4.68-72.53-7.23-32.7-27.89-66.07-62.84-98.45l-124.77-115.62 227.19-8.27 15.33-284.55c-272.86-108.96-408.79-209.77-380.1-300.74 26.84-85.13 219.8-128.67 608.29-123.2l3.3 0c188.03 11.39 396.29 61.16 504.53 122.2 47.05 26.54 80.41 58.04 94.43 93.85 20.05 51.21 7.23 99.35-47.81 141.09-50.23 38.09-152.7 72.87-325.41 99.03l-23.96 287.15c647 99.39 1180.98 342.5 1605.85 680.92 28.66 22.83 56.82 46.1 84.48 69.78l591.93-760.04c-100.63-124.34-153.55-218.94-166.39-282.95-11.77-58.68 2.89-102.63 41.07-131.55 31.57-23.89 75.48-30.83 129.7-20.85 100.91 18.57 265.84 103.32 469.14 252.67l1.78 1.31 3.18 2.82c279.73 248.28 406.94 414 383.93 498.31-27.82 101.87-194.11 94.32-496.81-21.04-103.32 125.63-201.49 254.48-294.48 386.5-103.34 146.7-199.9 296.47-289.67 449.25l-1.64 2.78c240.02 288.45 425.72 615.01 558.57 962.41l42.5-9.52c279.52-62.5 559.05-125.03 783.14-222.34-2.81-173.52 9.15-297.24 35.01-364.69 21.28-55.48 54.58-86.68 99.8-92.21 41.52-5.1 82.25 14.53 121.58 60.09 60.92 70.56 137.38 228.14 227.56 482.23l1.65 5.24c70.48 260.58 84.44 437.29 61.95 530.78-13.2 54.89-39.75 90.93-77.17 108.11-40.73 18.7-85.23 12.54-131.17-18.22-57.52-38.52-126.47-127.55-196.05-264.53l-844.37 269.56c3.52 17.14 6.48 34.29 8.9 51.44 5.48 38.95 8.23 78.95 8.28 119.91l0.02 17.31zm-805.98 1287.32c-2.37-0.87-2.32 7-11.8 16.16-21.62 20.89-42.75 54.58-58.32 96.18l-0.48 1.3c-15.76 42.58-21.87 82.69-19.02 113.06 1.21 12.89-4.51 18.47-1.93 19.42 2.37 0.87 2.31-7 11.81-16.17 21.84-21.1 43.18-55.27 58.8-97.47 15.74-42.53 21.85-82.55 19.01-112.79l0-0.27c-1.21-12.88 4.51-18.47 1.93-19.42zm-1559.45 1420.17l-11 9.31c-63.41 53.84-102.81 115.39-121.42 169.02-13.92 40.1-17.41 69.76-10.61 80.06l0.46 0.51c6.21 7.17 37.15 3.67 81.99-8.98 57.31-16.17 125.16-50.91 190.45-104.49l0-0.28 7.04-5.73c64.44-54.7 108.57-117.87 131.47-173.11 16.56-39.94 23.14-68.54 17.35-75.9-7.22-8.36-41.36-5.7-90.36 7.1-58.99 15.41-128.58 49.11-195.37 102.49zm-1889.53 270.49c-1 25.26 8.67 54.98 30.95 87.33 104.44 33.71 207.5 61.41 309.07 82.86 87.03 18.38 173.96 32.43 260.78 42.01-0.54-32.46-12.09-64.2-34.76-95.2-42.48-58.07-120.49-114.96-234.46-170.58-102.05-42.15-188.41-48.2-249.72-30.32-27.05 7.88-48.26 20.47-62.38 36.32-11.93 13.4-18.77 29.67-19.48 47.58zm3727.33 668.65c-2.68-1.83-4.03-2.76-1.02-0.29 0.33 0.27 0.65 0.35 1.02 0.29zm761.95-563.12l0.34 0.02 0.07-1.76c-1.83-3.68-1.23-1.64-0.41 1.74zm862.38-3388.17c-2.18 1.65-3.63 2.64-0.73 1.31 0.83-0.38 0.95-0.76 0.73-1.31zm-258.92-916.67c0.42-0.6 0.06-0.83-1.88-0.59-4.86 0.59-2.36 0.56 1.88 0.59zm-8330.59 558.7l0.87-0.79c-0.55 0.14-0.61 0.3-0.87 0.79zm0.87-0.79l-0.87 0.79-0.18 0.37c2.26-1.19 3.55-1.83 1.05-1.16zm-0.34 0.09l-0.32 0.3 0.32-0.3zm-7.91 935.8l0.95 0.3c4.44 1.05 2.73 0.62-0.95-0.3zm1439.49 3113c1.28-4.35 1.97-6.67 0.28-1.74-0.32 0.93-0.4 1.46-0.28 1.74zm3139.41-3761.83c178.79-111.81 350.21-230.94 511.54-359.95 161.32-129 314.46-269.32 457.24-423.89l72.11-78.07 43.92 96.81c151.86 334.83 144.42 630.38 43.99 843.04-50.69 107.32-125.13 193.77-215.14 254.12-90.59 60.74-196.69 94.76-310.08 96.83-201.41 3.66-424.44-94.03-619.84-323.33l-53.03-62.22 69.29-43.34zm-2175.89-552.34c162.5 127.52 333.88 242.08 515.11 342.04 181.13 99.9 372.61 185.5 575.47 255.21l76.52 26.3-36.56 72.09c-129.56 255.52-343.23 399.98-559.43 434.6-108.24 17.34-217.16 7.17-316.81-30.31-100.1-37.64-190.62-102.69-261.53-194.87-141.01-183.34-203.63-473.55-104.67-866.75l26.51-105.32 85.39 67.01zm-1036.95 532.81c46.5-23.63 110.37-40.73 180.54-45.7 70.22-4.96 135.86 2.97 185.18 19.8 68.45 23.36 112.81 66.18 116.83 122.91l0.28 4.96c1.5 54.63-35.94 101.38-98.41 133.14l-0.28 0c-46.46 23.62-110.28 40.71-180.42 45.68l-0.12 0.01c-70.23 4.96-135.87-2.97-185.19-19.8-68.45-23.35-112.82-66.18-116.84-122.91-3.99-56.67 33.92-105.31 98.43-138.09zm5214.37 1550.77c52.96-51.16 112.83-74.88 168.95-60.89l2.37 0 11.91 4.41c60.36 22.35 95.2 82.92 102.69 162.75 5.86 62.33-4.87 139.68-33.56 217.23-28.84 77.92-71.19 143.87-116.33 187.47-57.48 55.52-123.13 78.74-183.26 56.51-60.35-22.33-95.17-82.92-102.68-162.75-5.85-62.35 4.87-139.71 33.57-217.23l0.04-0.1c28.84-77.9 71.19-143.82 116.3-187.4zm-382.51-2529.73c75.42-41.19 168.87-23.98 258.92 37.12 76.9 52.18 153.97 138.49 212.97 246.49 59 108.05 89.95 219.51 92.29 312.39 2.74 108.73-33.34 196.63-108.88 237.9l-16.15 8.82-2.43 0c-71.88 29.31-157.55 10.24-240.35-45.94-76.9-52.18-153.99-138.5-212.99-246.51-58.98-107.98-89.93-219.44-92.27-312.35-2.74-108.74 33.34-196.66 108.89-237.92zm-1440.65-902.88c150.5-9.32 289.73 10.12 393.51 49.22 122.23 46.03 200.96 121.93 207.17 216.71 6.17 94.43-62.01 179.82-177.24 241.45-98.85 52.86-236.13 90.57-388.38 100.55l-0.1 0.01c-152.13 9.96-293.03-9.48-397.82-48.95-122.21-46.04-200.93-121.92-207.14-216.69l-0.28-4.41c-3.77-92.71 64.07-176.37 177.51-237.05 98.84-52.87 236.11-90.58 388.36-100.56l4.41-0.28zm-835.43 585.45c131.92 10.11 250.7 42.09 336.03 85.57 103.53 52.73 164.42 126.47 158.13 208.6-6.32 82.33-77.74 146.01-188.08 182.34-90.98 29.96-213.13 43.45-344.84 33.35-131.96-10.1-250.73-42.08-336.06-85.56-103.54-52.74-164.42-126.47-158.13-208.6 6.31-82.34 77.74-146.01 188.08-182.34 90.99-29.97 213.16-43.46 344.87-33.36zm-1953.69 447.76c62.1 37.84 88.58 112.59 81.18 202.8-6.08 73.96-35.47 161.79-86.69 245.85-51.16 83.99-115.69 150.32-178.62 189.63-76.85 48.01-155.49 58.78-217.62 20.93-62.11-37.85-88.58-112.6-81.18-202.81 6.08-73.96 35.47-161.79 86.69-245.85 51.16-83.99 115.69-150.31 178.62-189.62 76.85-48.01 155.48-58.78 217.62-20.93zm2641.75 4751.19c-2.33-38.68-4.65-77.39-7.31-114.94-32.98 3.83-65.74 6.6-97.98 8.55-28.82 1.75-57.71 2.83-86.28 3.44l22.84 342.74-50.39 17.91c-177.15 62.97-285.89 114.29-336.65 154.26l0.34 0.11c87.75 28.35 270.04 36.84 518.21 24.87 179.65-13.99 329.36-58.88 398.74-109.12 5.68-4.11 10.31-7.64 13.79-10.52-40.35-26.48-133.58-48.65-296.49-60.15l-59.55-4.2-5.49-59.74c-6.3-68.53-10.05-130.89-13.78-193.21zm-577.94 408.16c0.14 0.34 0.36 0.57 0.67 0.73-1.7-3.52-2.49-5.13-0.67-0.73zm-2716.36-2285.98c-14.34-27.88-28.06-55.78-41.21-83.7-11.76-24.99-23.09-49.95-34.01-74.89l-461.93 263.07-37.81-44.57c-97.61-115.04-171.43-182.23-220.15-207.01 1.09 70.31 42.14 198.6 127.74 376.56 104.11 189.8 221.96 356.88 305.03 425.94l8.18 6.72c3.45-60.97-15.01-172.72-63.98-350.01l-14.24-51.58 432.38-260.53zm-800.57-160.94c2.33-2.27 3.65-3.54 0.72-1.2-0.68 0.54-0.85 0.89-0.72 1.2zm927.3-2763.5l-400.52-296.65 17.66-49.15c87.63-243.77 143.67-348.06 135.98-346.6-49.41 9.42-179.9 151.45-357.08 369.9-109.58 167.73-178.61 314.94-190.8 399.4l-0.37 2.46c49.01-20.78 127.01-79.05 239.19-185.65l41.43-39.36 428.47 295.82c11.58-22.47 23.78-45.11 36.68-67.94 15.69-27.77 32.11-55.2 49.36-82.23zm5124.08-665.78c35.75 31.71 69.41 63.78 101 96.19 22.33 22.9 43.8 46.12 64.41 69.65 77.62-127.73 159.06-252.1 244.28-373.09 105.01-149.08 216.27-293.98 333.77-434.65l32.59-39.01 47.34 18.89c236 94.22 355.68 138.93 357.19 133.39 7.69-28.22-104.47-145.55-338.31-353.26-185.12-135.82-328.25-211.6-409.48-226.55l-4.36-0.89c15.7 51.13 69.47 134.27 168.95 251.08l37.1 43.58-634.48 814.67zm413.55-1113.61l-0.22 0.1c-2.8 2.12-1.97 1.51 0.22-0.1zm959.18 4452.89l-489.96-286.21c-6.78 23.94-13.97 47.86-21.6 71.78-11.59 36.35-23.88 71.97-36.88 106.8l492.68 289.31-12.32 50.67c-42.45 174.54-59.69 293.96-54.59 360.34 69.75-58.51 175.29-205.25 310.18-436.89 82.6-166.8 125.59-302.08 124.84-376.93l0.03-3.06c-47.26 22.55-120.66 88.26-223.09 208.75l-38.4 45.17-50.89-29.73zm313.71-238.44c-2.48-2.28-1.7-1.5 0.21 0.37l-0.21-0.37zm-451.13 849.58c0.74 0.18 1.2 0.08 1.53-0.24-4.19-0.59-6.38-0.91-1.53 0.24z"/>
    <path class="fil1 str0" d="M10440.73 1091.75c3598.43 0 6515.53 2917.1 6515.53 6515.53 0 3598.43-2917.1 6515.53-6515.53 6515.53-3598.43 0-6515.53-2917.1-6515.53-6515.53 0-3598.43 2917.1-6515.53 6515.53-6515.53zm0 603.18c3265.31 0 5912.35 2647.04 5912.35 5912.35 0 3265.31-2647.04 5912.35-5912.35 5912.35-3265.31 0-5912.35-2647.04-5912.35-5912.35 0-3265.31 2647.04-5912.35 5912.35-5912.35z"/>
    <path class="fil1" d="M13532.09 8148.95c189.99 110.98 379.97 221.96 569.96 332.94 389.18-457.83 436.93-198.85 213.88 250.26-369.09 634.25-541.54 666.65-385.86 26.46-166.47-97.75-332.95-195.51-499.42-293.26 42.96-105.47 76.09-210.93 101.44-316.4z"/>
    <path class="fil1" d="M12597.16 5213.17c106.02 88.14 196.04 180.85 271.2 277.82 182.66-310.87 390.23-605.63 622.89-884.17 569.04 227.19 603.95 117.13 88.19-340.66-489.04-359.27-723.69-323.88-341.76 124.58-213.51 274.14-427.01 548.29-640.52 822.43z"/>
    <path class="fil1" d="M7665.29 5852.58c-137.44-101.79-274.87-203.59-412.31-305.38 234.28-651.73 32.41-506.63-345.05-40.78-280.67 428.84-312.46 751.17 154.33 307.58 149.57 103.26 299.13 206.53 448.7 309.79 43.24-93.14 93.46-183.96 154.33-271.21z"/>
    <path class="fil1" d="M7536.34 8819.75c-49.91-91.23-94.39-186.45-134.5-284.98-160.03 91.14-320.07 182.27-480.1 273.41-353.38-416.49-455.45-264.52-208.37 248.06 251.04 457.97 591.36 798.71 379.25 30.87 147.91-89.12 295.81-178.24 443.72-267.36z"/>
    <path class="fil1" d="M10794.03 10476.44c11.76 127.88 15.25 254.11 27.01 381.99 640.59 45.26 345.46 284.55-115.77 320.26-649.25 31.57-880.57-77.68-210.56-315.85-8.08-121.27-16.17-242.54-24.25-363.81 100.02 0.16 211.79-3.66 323.57-22.59z"/>
    <path class="fil1" d="M12557.32 9669.42c227.47 278.18 454.94 556.36 682.41 834.54-373.24 417.63-217.02 537.9 391.37 84.89 405.21-352.18 440.77-527.95-163.16-294.35-242.17-296.7-450.89-603.98-637.21-918.34 313.13-337.62 558.91-754.85 678.01-1321.81-256.14 203.19-430.34-110.19-348.37-519.25 69.03-260.47 229.25-491.47 396.88-387.52-0.1-74.23-10.23-147.02-30.88-218.29 321.73-102.71 643.46-205.41 965.19-308.12 220.67 473.84 416.71 409.98 237.53-252.45-239.16-673.82-362.88-627.44-346.17-63.95-264.36 124.1-607.38 193.45-941.49 269-382.34-1052.85-1252.37-1920.85-2651.93-2112.28 11.38-136.33 22.75-272.67 34.13-409 731.81-94.73 240.28-299.61-164.26-324.12-705.32-9.93-683.78 104.75-154.34 306.49-7.18 133.22-14.36 266.44-21.54 399.66-40.42 1.47-80.85 2.94-121.27 4.41 210.13 194.72 34.95 461.61-420.05 562.27-456.03 58.37-757.76-18.83-825.74-301.52-86.64 25.36-164.56 70.68-240.88 119.63-191.09-282.23-382.18-564.45-573.27-846.68 520.07-505.25 16.4-380.61-337.36-146.61-472.92 358.73-554.27 522.19 69.46 334.04 198.48 268.33 360.46 554.93 523.14 841.17-665.62 451.18-1063.01 1071.28-1252.38 1822.33-327.42 2.57-654.85 5.14-982.27 7.71-152.42-642.85-332.66-455.82-330.73 181.89 34.53 566.82 154.72 693.28 305.37 128.99 317.69 12.5 635.37 25 953.06 37.5-74.13 1048.98 323.49 1917.68 1172.46 2613.88-159.84 258.72-319.69 517.44-479.53 776.16-611.42-180.78-548.87-17.72-78.28 326.33 394.4 269.05 836.78 357.21 336.25-142.22 175.85-258.71 351.7-517.43 527.55-776.14 155.75 121.96 251.08 165.8 560.05 286.64-113.09-253.26 140.36-387.61 432.22-288.81 249.28 85.58 399.53 296.23 354.44 458.61 794.26 99.34 1616.78-105.52 2481.59-764.68zm-133.39-2189.07c-34.54-13.96-69.09-27.93-103.63-41.89 8.08-19.11 16.17-38.22 24.25-57.33 95.55 34.54 191.09 69.09 286.64 103.63-10.29 16.9-20.58 33.81-30.87 50.71-27.56-9.55-55.12-19.11-82.68-28.66-77.37 363.72-212.92 703.07-381.43 1028.58-30.13-34.54-60.27-69.09-90.4-103.63-105.1 225.27-210.2 450.53-315.3 675.8-40.79-50.35-81.58-100.69-122.37-151.04-83.6 144.42-167.21 288.85-250.81 433.27-62.11-67.07-124.22-134.14-186.33-201.21-156.85 170.03-328.23 325.55-538.02 442.65-109.51-90.77-219.02-181.54-328.53-272.31-88.19 106.94-176.39 213.88-264.58 320.82-185.24-96.41-362.32-217.22-526.98-375.38-39.13 79.56-78.26 159.13-117.39 238.69-98.12-134.87-196.24-269.73-294.36-404.6-27.01 54.75-54.01 109.5-81.02 164.25-123.84-209.46-247.68-418.92-371.52-628.38-19.11 44.83-38.21 89.67-57.32 134.5-220.06-310.2-365.33-641.75-461.94-987.23-28.3 16.35-56.59 32.71-84.89 49.06-11.21-17.27-22.42-34.55-33.63-51.82 81.95-44.28 163.9-88.57 245.85-132.85 10.47 17.09 20.95 34.18 31.42 51.27 0 0-23.74 39.73-78.27 51.82-54.53 12.09 690.56 451.61 752.71 438.51 268.96-115.53 533.93-234.65 773.37-376.72 162.98 124.1 325.98 239.56 488.97 331.28 166.85-135.6 333.71-271.2 500.56-406.8 301.79 114.37 607.72 199.88 918.34 252.48 276.58-158.46 535.92-341.98 780.16-547.47zm-1680.46-632.01c359.97-225.12 693.98-482.66 983.38-795.97 409.3 902.46-403.41 1476.6-983.38 795.97zm-2256.65-556.75c330.73 259.55 698.21 466.61 1111.25 608.55-355.27 700.66-1386.63 485.6-1111.25-608.55zm-807.9 501.99c-121.63 8.62-217.28 57.2-213.65 108.55 3.64 51.33 105.17 85.99 226.79 77.39 121.62-8.6 217.27-57.2 213.63-108.55-3.63-51.33-105.16-85.99-226.77-77.39zm-128.12 1371.54c-80.66 32.16-88.2 203.3-16.85 382.25 71.34 178.94 194.58 297.93 275.23 265.77 80.67-32.15 88.21-203.29 16.86-382.24-71.36-178.95-194.59-297.95-275.24-265.78zm3642.71 1624.41c-193.77 154.86-243.1 369.4-185.53 437.19 57.56 67.79 264.24 26.2 451.3-127.31 187.07-153.52 258.25-363.99 200.7-431.78-57.55-67.79-272.7-32.95-466.47 121.9zm1673.26-1460.09c-65.28-24.17-158.93 66.31-209.17 202.08-50.25 135.76-38.07 265.41 27.21 289.58 65.29 24.15 158.94-66.33 209.19-202.08 50.25-135.78 38.06-265.41-27.23-289.58zm163.67-2330.41c-57.93 7.51-92.4 110.1-76.97 229.11 15.42 119.03 74.9 209.43 132.84 201.93 57.94-7.51 92.4-110.1 76.97-229.11-15.42-119.03-74.9-209.43-132.84-201.93zm-671.54-147.25c100.82-55.07 269.4 59.34 376.55 255.53 107.15 196.17 112.3 399.84 11.5 454.89-100.82 55.07-269.39-59.34-376.55-255.51-107.15-196.18-112.3-399.85-11.5-454.91zm-1474.24-894.06c-284.46 18.65-508.21 138.33-499.75 267.32 8.45 128.98 245.91 218.43 530.37 199.77 284.46-18.65 508.2-138.32 499.75-267.31-8.46-128.99-245.92-218.43-530.37-199.78zm-840.7 585.17c244.82 18.78 436.94 116.67 429.12 218.65-7.83 101.98-212.63 169.43-457.43 150.65-244.82-18.77-436.94-116.66-429.12-218.64 7.82-101.99 212.63-169.43 457.43-150.66zm-1985.11 437.56c74.71 45.52 61.76 203.09-28.94 351.94-90.69 148.85-224.77 232.63-299.49 187.11-74.71-45.52-61.76-203.1 28.94-351.95 90.69-148.85 224.77-232.62 299.49-187.1z"/>
    <path class="fil1" d="M9360.93 10290.46c-167.67-209.59 44.54-401.53 371.52-265.69 251.75 122.31 349.85 258.05 298.77 406.8-220.45-18.78-443.95-66.47-670.29-141.11z"/>
    <path class="fil1" d="M11218.3 9817.53c-159.19 127.22-199.71 303.47-152.42 359.16 47.29 55.69 217.08 21.53 370.76-104.59 153.68-126.12 212.16-299.03 164.88-354.72-47.28-55.69-224.03-27.07-383.22 100.15z"/>
    <path class="fil1" d="M12845.82 8386.06c-50.25-18.6-122.33 51.04-161 155.54-38.67 104.49-29.3 204.28 20.95 222.88 50.25 18.59 122.33-51.05 161.01-155.54 38.67-104.5 29.29-204.28-20.96-222.88z"/>
    <path class="fil1" d="M13560.11 7194.83c-161.53-117.69-338.64 149.65-377.05 482.9-14.44 351.34 162.14 531.37 339.55 297.66 61.03-261.75 67.62-521.74 37.5-780.56z"/>
    <path class="fil1" d="M13036.98 6049.47c-44.38 5.75-70.78 84.33-58.96 175.49 11.81 91.17 57.37 160.42 101.75 154.67 44.38-5.75 70.78-84.33 58.96-175.49-11.81-91.17-57.37-160.42-101.75-154.67z"/>
    <path class="fil1" d="M12391.3 5911.09c83.98-45.87 224.41 49.43 313.67 212.86 89.26 163.42 93.55 333.08 9.58 378.94-83.98 45.87-224.41-49.43-313.67-212.85-89.26-163.42-93.55-333.08-9.58-378.95z"/>
    <path class="fil1" d="M10886.46 4985.26c-250.91 16.45-448.28 122.02-440.82 235.8 7.46 113.77 216.92 192.67 467.83 176.21 250.92-16.45 448.28-122.01 440.82-235.79-7.46-113.78-216.92-192.67-467.83-176.22z"/>
    <path class="fil1" d="M10041.69 5572.55c205.5 15.76 366.76 97.93 360.2 183.53-6.57 85.6-178.48 142.22-383.97 126.46-205.5-15.76-366.76-97.93-360.2-183.53 6.57-85.61 178.48-142.22 383.97-126.46z"/>
    <path class="fil1" d="M8030.78 6026.52c61.94 37.74 51.2 168.38-23.99 291.78-75.19 123.41-186.35 192.87-248.3 155.13-61.94-37.74-51.2-168.38 23.99-291.79 75.19-123.41 186.35-192.86 248.3-155.12z"/>
    <path class="fil1" d="M7680.59 6817.26c-90.65 6.42-161.94 42.63-159.23 80.9 2.71 38.26 78.38 64.09 169.03 57.68 90.64-6.41 161.93-42.63 159.22-80.9-2.71-38.26-78.38-64.09-169.02-57.68z"/>
    <path class="fil1" d="M7576.5 8229.57c-64.62 25.76-70.66 162.86-13.5 306.22 57.15 143.35 155.88 238.67 220.49 212.91 64.62-25.76 70.66-162.86 13.5-306.22-57.16-143.35-155.88-238.68-220.49-212.91z"/>
    <path class="fil1" d="M9525.14 6931.98c-19.84-7.72-39.69-15.44-59.53-23.16-160.1 262.37-551.41 264.28-695.16 144.33-156.28-130.41-207.03-396.86-147.09-595.19-35.28-27.93-70.55-55.85-105.83-83.78-186.02 1091.19 793.07 1035.74 1007.61 557.8z"/>
    <path class="fil1" d="M9417.1 6890.12c-321.89 424.94-908.78 117.84-748.56-395.79 234.65 155.74 484.53 287.09 748.56 395.79z"/>
    <path class="fil1" d="M11713.61 6136.16c-28.3 31.6-56.59 63.21-84.89 94.81 292.42 744.6-495.23 910.62-762.11 588.72-21.23 12.22-42.47 24.43-63.7 36.65 350.22 458.03 1236.63 268.92 910.7-720.18z"/>
    <path class="fil1" d="M10920.24 6804.57c337.43 310.66 920.77-11.89 663.67-524.77-189.61 190.73-409.4 366.4-663.67 524.77z"/>
    <path class="fil1" d="M8208.47 7871.33c89.4 288.66 208.63 565.38 371.52 824.62 22.79-37.85 45.57-75.7 68.36-113.55 65.41 101.43 130.82 202.85 196.23 304.28 711.11-721.57 907.63-245.65 1337.26-235.93 418.93 0.37 754.06-786.42 1746.26-117.97 34.17-69.09 68.35-138.17 102.52-207.26 32.34 34.91 64.68 69.83 97.02 104.74 145.97-290.74 257.54-586.07 315.31-888.57-240.76 208.31-509.53 383.51-782.74 553.43-308.68-41.62-617.38-122.3-926.05-231.51-163.9 128.62-327.79 257.23-491.69 385.85-178.63-85.91-348.32-189.69-509.33-310.89-237.36 130.67-495.77 251.53-777.24 361.6-269.73-120.76-515.91-266.89-747.43-428.84z"/>
    <path class="fil1" d="M8878.74 8943.01c44.1 82.32 88.19 164.63 132.29 246.95 28.66-43.36 57.33-86.73 85.99-130.09 97.01 126.41 194.03 252.83 291.04 379.24 38.22-70.55 76.43-141.11 114.65-211.66 166.1 152.59 342.49 281.04 533.58 374.83 86.91-108.41 173.82-216.81 260.73-325.22 113.94 93.89 227.87 187.77 341.81 281.66 206.57-138.12 379.59-290.35 530.29-452 56.59 63.21 113.19 126.42 169.78 189.63 86.35-148.09 172.71-296.19 259.06-444.28 38.22 47.77 76.44 95.55 114.66 143.32 63.2-141.48 126.41-282.96 189.61-424.44-1019.4-631.34-1262.66 113.18-1695.56 143.31-339.01 38.77-726.53-519.99-1327.93 228.75z"/>
    <path class="fil1 str0" d="M16398.74 4626.86c451.43 898.8 705.57 1913.81 705.57 2988.17 0 3681.9-2984.77 6666.67-6666.68 6666.67-3681.9 0-6666.67-2984.77-6666.67-6666.67 0-3681.91 2984.77-6666.68 6666.67-6666.68 1909.66 0 3614.59 784.81 4829.99 2071.47l4832.46-3230.14-20386.4 82.72 39.49 15019.4 21462.57 86.87 194.56-13681.61-5011.56 3329.8z"/>
  </g>
</svg>
