<?xml version="1.0"?>
<svg xmlns="http://www.w3.org/2000/svg" id="Layer_1" data-name="Layer 1" viewBox="0 0 128 128" width="40" height="40"><title>MURAL</title><path d="M27.764,87.932a7.587,7.587,0,1,1,14.4,1.935A16.638,16.638,0,0,1,24.5,100.5s4.394-2.665,3.263-12.568Z" style="fill:#fff"/><ellipse cx="50.251" cy="53.675" rx="28.715" ry="5.868" transform="translate(-19.377 77.298) rotate(-65.628)" style="fill:#fed6b3"/><path d="M40.455,62.371c-.745,2.163-1.373,4.207-1.868,6.079a19.219,19.219,0,0,0,8.247,3.736c1.082-1.607,2.2-3.426,3.339-5.413a19.025,19.025,0,0,1-9.718-4.4Z" style="fill:#feec4e"/><ellipse cx="81.307" cy="47.936" rx="22.193" ry="4.085" style="fill:#9b54eb"/><path d="M81.307,52.022c-12.257,0-22.193-1.829-22.193-4.085V96.509c0,2.256,9.936,4.085,22.193,4.085S103.5,98.765,103.5,96.509V47.936C103.5,50.193,93.564,52.022,81.307,52.022Z" style="fill:#16e2fd"/><path d="M99.267,50.33a80.054,80.054,0,0,1-17.96,1.692,95.543,95.543,0,0,1-14.535-1c-.394,3.08-.344,7.777,2.776,10.794,4.969,4.8,8.281.662,14.243,6.79s10.1.166,9.275-4.969,6.2-13.3,6.2-13.3Z" style="fill:#5fe74a"/><path d="M48.835,53.033c5.006-11.05,10.685-19.857,14.4-22.792-.075-1.453-.441-2.408-1.135-2.722-2.952-1.337-10.651,9.289-17.195,23.734s-9.456,27.24-6.5,28.577c.694.314,1.653-.04,2.795-.942C40.953,74.16,43.83,64.083,48.835,53.033Z" style="fill:#fff"/><path d="M38.691,79.981a7.578,7.578,0,0,0-6.8,8.749h0c.769,6.734-1.015,10.116-2.237,11.595,9.56-1.645,12.515-10.458,12.515-10.458A7.582,7.582,0,0,0,38.691,79.981Z" style="fill:#5fe74a"/><rect x="59.25" y="49.375" width="3.375" height="49.125" style="fill:#fff"/><rect x="75" y="51.875" width="6.307" height="48.45" style="fill:#fff"/><path d="M103.5,53.313a1.25,1.25,0,0,0-1.25,1.25V96.376c-.884,1.038-7.911,2.969-20.943,2.969s-20.06-1.931-20.943-2.969V50.617c5.647,2.561,19.057,2.655,20.943,2.655a105.885,105.885,0,0,0,14.914-1.051c-2.136,3-5,7.844-4.389,11.612.394,2.441-.569,5.073-2.146,5.866-1.8.9-3.905-.845-5-1.969a12.969,12.969,0,0,0-8.625-4.318,8.679,8.679,0,0,1-5.645-2.5,8.35,8.35,0,0,1-2.291-4.423A1.25,1.25,0,0,0,65.677,57a10.8,10.8,0,0,0,3,5.713,10.99,10.99,0,0,0,7.02,3.174,10.582,10.582,0,0,1,7.2,3.589c2.258,2.32,4.215,2.978,5.709,2.978a4.893,4.893,0,0,0,2.205-.52c2.564-1.289,4.065-4.942,3.491-8.5-.58-3.6,3.725-9.659,5.694-12.021,2.791-.783,4.756-1.895,4.756-3.477,0-5.186-21.043-5.335-23.443-5.335-1.778,0-13.792.085-19.9,2.238a79.251,79.251,0,0,0,2.217-7.67c1.434-6.3,1.1-9.83-1.012-10.789-2.2-.993-5.213,1.284-9.218,6.968a1.25,1.25,0,0,0,2.044,1.44c3.848-5.462,5.835-6.229,6.14-6.131,1.342.838.044,11.1-7.125,26.924a112.508,112.508,0,0,1-8.2,15.2,17.076,17.076,0,0,1-6.222-2.847c.3-1.094.647-2.254,1.048-3.493a20.229,20.229,0,0,0,3.4,1.965,1.25,1.25,0,1,0,1.031-2.277,17.586,17.586,0,0,1-3.587-2.177c1.079-3.058,2.43-6.46,4.117-10.183A125.673,125.673,0,0,1,52.19,39.857a1.25,1.25,0,1,0-2.151-1.273,128.274,128.274,0,0,0-6.272,12.154c-1.38,3.046-3.014,7.032-4.424,11.111a1.2,1.2,0,0,0-.093.27c-.679,1.979-1.3,3.974-1.814,5.892a1.2,1.2,0,0,0-.065.242c-1.005,3.816-1.56,7.3-1.234,9.692a8.83,8.83,0,0,0-9.614,10.141c1,8.828-2.651,11.332-2.671,11.346a1.25,1.25,0,0,0,.534,2.314c.726.066,1.424.1,2.1.1,12.292,0,16.471-10.507,16.84-11.506A8.82,8.82,0,0,0,41.3,80.3c2.017-1.331,4.274-4.048,6.485-7.327a1.2,1.2,0,0,0,.157-.235,121.694,121.694,0,0,0,8.793-16.122q.582-1.284,1.128-2.558V96.509c0,5.187,21.044,5.336,23.443,5.336s23.443-.149,23.443-5.336V54.563A1.25,1.25,0,0,0,103.5,53.313ZM41.028,89.351c-.017.039-.033.079-.047.119-.034.1-3.283,9.438-13.787,9.858,1.252-2.014,2.49-5.589,1.812-11.538,0-.02,0-.038-.008-.057a6.337,6.337,0,1,1,12.03,1.617ZM38.92,78.693c-.686-.428-.675-3.331.45-8.167a19.71,19.71,0,0,0,5.393,2.442C41.869,77.007,39.694,78.931,38.92,78.693Zm63.189-30.757a9.538,9.538,0,0,1-3.1,1.175l-.071.017c-3.378.845-9.261,1.643-17.636,1.643-12.494,0-19.47-1.774-20.8-2.835,1.333-1.061,8.309-2.835,20.8-2.835S100.776,46.876,102.109,47.937Z" style="fill:#603ca6"/></svg>
