<svg width="83" height="82" viewBox="0 0 83 82" fill="none" xmlns="http://www.w3.org/2000/svg">
<path d="M61.7998 40.6938L42.2368 61.1214L41.9774 49.1242L25.9811 49.47L25.6353 33.4738L41.6316 33.1279L41.3722 21.1307L61.7998 40.6938ZM1.81382 41.9907C1.58451 31.3845 5.57789 21.1216 12.9154 13.4598C20.253 5.79791 30.3337 1.36471 40.9399 1.1354C46.1915 1.02186 51.4141 1.94382 56.3094 3.84864C61.2048 5.75346 65.677 8.60384 69.4708 12.237C73.2645 15.8702 76.3055 20.2151 78.4202 25.0235C80.5348 29.8319 81.6816 35.0098 81.7951 40.2615C82.0244 50.8676 78.0311 61.1305 70.6935 68.7924C63.3559 76.4542 53.2752 80.8874 42.6691 81.1167C37.4174 81.2303 32.1948 80.3083 27.2995 78.4035C22.4042 76.4987 17.9319 73.6483 14.1382 70.0151C6.47632 62.6775 2.04312 52.5968 1.81382 41.9907ZM9.81195 41.8177C9.99539 50.3027 13.542 58.3672 19.6714 64.2373C25.8009 70.1073 34.0112 73.302 42.4961 73.1186C50.9811 72.9351 59.0456 69.3886 64.9157 63.2591C70.7857 57.1296 73.9804 48.9193 73.797 40.4344C73.6135 31.9494 70.067 23.8849 63.9375 18.0148C57.808 12.1448 49.5977 8.95009 41.1128 9.13353C32.6278 9.31698 24.5633 12.8635 18.6933 18.993C12.8232 25.1225 9.6285 33.3328 9.81195 41.8177Z" fill="#1B6DB9"/>
</svg>
