<?xml version="1.0" encoding="iso-8859-1"?>
<!-- Generator: Adobe Illustrator 19.0.0, SVG Export Plug-In . SVG Version: 6.00 Build 0)  -->
<svg version="1.1" id="Capa_1" xmlns="http://www.w3.org/2000/svg" width="32" height="32" xmlns:xlink="http://www.w3.org/1999/xlink" x="0px" y="0px"
	 viewBox="0 0 512.001 512.001" style="enable-background:new 0 0 512.001 512.001;" xml:space="preserve">
<path style="fill:#F1F1F3;" d="M217.833,237.573C351.193,104.213,494.982-14.237,510.61,1.391S407.787,160.808,274.428,294.168
	L152.805,415.79c-15.628,15.628-40.966,15.628-56.594,0l0,0c-15.628-15.628-15.628-40.966,0-56.594L217.833,237.573z"/>
<path style="fill:#C7AA92;" d="M96.21,415.79c15.628,15.628,15.628,40.966,0,56.594C77.346,491.249,19.808,505.397,1.887,512
	L0,510.114c6.603-17.922,20.751-75.459,39.616-94.324C55.244,400.162,80.582,400.162,96.21,415.79"/>
<path style="fill:#DFDFE1;" d="M510.609,1.391L96.21,415.79c15.628,15.628,40.966,15.628,56.594,0l121.622-121.622
	C407.787,160.808,526.237,17.019,510.609,1.391z"/>
<path style="fill:#BD9475;" d="M510.609,1.391c-15.628-15.628-159.417,102.823-292.777,236.183l-63.854,63.854l56.594,56.594
	l63.854-63.854C407.787,160.808,526.237,17.019,510.609,1.391z"/>
<path style="fill:#9E7957;" d="M182.276,329.724l28.297,28.297l63.854-63.854C407.787,160.807,526.237,17.018,510.609,1.39
	L182.276,329.724z"/>
<path style="fill:#BD9475;" d="M96.21,415.79L0.943,511.057L1.887,512c17.922-6.603,75.459-20.751,94.324-39.616
	C111.838,456.756,111.839,431.418,96.21,415.79L96.21,415.79z"/>
<path style="fill:#FF6849;" d="M94.349,474.122l-56.471-56.471C19.883,438.179,6.398,492.747,0,510.114L1.887,512
	C19.253,505.602,73.821,492.117,94.349,474.122z"/>
<path style="fill:#E8130F;" d="M0.943,511.057L1.887,512c17.367-6.398,71.935-19.883,92.463-37.878l-28.236-28.236L0.943,511.057z"
	/>
<g>
</g>
<g>
</g>
<g>
</g>
<g>
</g>
<g>
</g>
<g>
</g>
<g>
</g>
<g>
</g>
<g>
</g>
<g>
</g>
<g>
</g>
<g>
</g>
<g>
</g>
<g>
</g>
<g>
</g>
</svg>
