<svg width="82" height="82" viewBox="0 0 82 82" fill="none" xmlns="http://www.w3.org/2000/svg">
<path d="M21.0037 41.2284L40.5929 20.8258L40.8369 32.8233L56.8336 32.498L57.1589 48.4947L41.1622 48.82L41.4063 60.8175L21.0037 41.2284ZM80.9913 40.0083C81.207 50.6147 77.2005 60.8725 69.8531 68.5249C62.5058 76.1774 52.4194 80.5977 41.813 80.8134C36.5612 80.9202 31.3398 79.9916 26.4469 78.0805C21.554 76.1694 17.0854 73.3133 13.2963 69.6752C9.50719 66.0372 6.47175 61.6885 4.36329 56.8773C2.25484 52.0662 1.11465 46.8868 1.00784 41.6351C0.792113 31.0286 4.79863 20.7708 12.146 13.1184C19.4934 5.46595 29.5797 1.04566 40.1862 0.829933C45.438 0.723117 50.6594 1.65176 55.5523 3.56285C60.4452 5.47393 64.9137 8.33004 68.7028 11.9681C76.3553 19.3154 80.7756 29.4018 80.9913 40.0083ZM72.993 40.1709C72.8204 31.6858 69.2841 23.6167 63.1622 17.7388C57.0402 11.8609 48.834 8.6557 40.3489 8.82828C31.8637 9.00086 23.7946 12.5371 17.9167 18.659C12.0388 24.781 8.8336 32.9872 9.00618 41.4724C9.17876 49.9575 12.715 58.0266 18.837 63.9045C24.9589 69.7824 33.1651 72.9876 41.6503 72.815C50.1355 72.6425 58.2045 69.1062 64.0824 62.9843C69.9603 56.8623 73.1655 48.6561 72.993 40.1709Z" fill="#1B6DB9"/>
</svg>
