<svg xmlns="http://www.w3.org/2000/svg" width="210" height="297" viewBox="0 0 20990.3 29668.6" style="image-rendering:optimizeQuality;shape-rendering:geometricPrecision;text-rendering:geometricPrecision"><path class="fil0" d="M3250.5 9720.1l0 48.2-370.3 0 0-551.1 363.2 0 0 48.2-308.9 0 0 198.7 269.3 0 0 45.8-269.3 0 0 210.3 315.9 0zm426.8 48.2l-52.8 0 0-225.9c0-48.2-7-82.9-21.3-104.7-14.3-21.8-36.1-32.6-65.6-32.6-15.6 0-31 2.9-46.6 8.6-15.6 5.7-29.9 13.6-43.1 24-13.2 10.3-24.9 22.7-35.2 37-10.3 14.3-18 29.7-22.7 46.2l0 247.5-52.6 0 0-404.4 48 0 0 91.5c16.5-29.5 40.3-53.2 71.1-71.5 30.8-18 64.2-27.1 100.5-27.1 22.2 0 41.1 4.2 56.8 12.3 15.4 8.4 27.7 20 37.2 35 9.2 15.2 16.1 33.4 20.2 55.2 4.2 21.8 6.2 45.8 6.2 72.2l0 236.7zm268.6 7.7c-27.5 0-52.4-5.7-74.8-17.4-22.7-11.7-41.8-27.1-57.9-46.6-16.1-19.4-28.6-41.6-37.4-66.7-8.8-25.1-13.2-51.3-13.2-78.8 0-27.9 4.8-54.8 14.7-80.1 9.9-25.3 23.5-47.5 40.9-66.7 17.4-19.1 37.8-34.5 61.4-46 23.5-11.2 48.6-16.9 75.5-16.9 15.6 0 30.8 2.2 45.5 6.6 14.7 4.4 28.4 10.3 41.4 17.8 13 7.7 24.6 16.7 35.4 27.3 10.6 10.6 19.8 22 27.5 34.5l0-79.2 47.3 0 0 499c0 14.5 6.4 22 19.4 22.7l0 45.8c-5.1 1.1-10.1 1.5-15 1.5-5.1 0-9.9 0-14.5 0-11.9-1.1-22-6.2-30.1-15.2-8.4-9-12.5-19.8-12.5-32.1l0-201.1c-19.6 30.1-42.5 52.8-68.2 68.2-26 15.6-54.3 23.3-85.4 23.3zm16.3-46.4c15.6 0 30.1-2.6 44-7.9 13.6-5.1 26.2-11.9 37.8-20.5 11.7-8.6 22-18.7 31.5-30.4 9.2-11.7 17.2-23.8 24-36.7l0-125c-2-14.1-7.5-27.5-16.3-40-8.8-12.5-19.6-23.8-32.1-33.7-12.8-9.9-26.6-17.6-41.6-23.3-15-5.7-29.7-8.6-44.2-8.6-21.8 0-41.8 4.6-60.1 13.9-18.5 9.5-34.3 21.8-47.5 37-13.2 15.2-23.3 32.8-30.6 52.4-7.3 19.6-10.8 39.8-10.8 60.5 0 21.8 3.5 42.5 10.8 62 7.3 19.8 17.4 37 30.4 51.7 13 14.7 28.4 26.6 46.2 35.4 17.8 8.8 37.2 13.2 58.5 13.2zm433.2 46.4c-44 0-76.8-14.5-98.1-43.8-21.6-29.3-32.3-72.8-32.3-130.7l0-237.6 52.8 0 0 228.1c0 91.7 31.2 137.5 93.9 137.5 15.6 0 30.8-2.6 45.8-7.9 15-5.1 28.8-12.5 41.6-22.4 12.5-9.9 24-21.6 34.1-35 10.1-13.4 18.3-28.6 24.4-45.8l0-254.5 52.8 0 0 336.2c0 14.3 6.2 21.6 18.5 21.6l0 46.6c-6.2 1.1-11.2 1.5-15 1.5-4 0-6.6 0-8.1 0-12.5-0.4-22.7-4.8-30.4-13.2-7.7-8.1-11.7-19.4-11.7-33.4l0-46.4c-17.6 31.5-41.6 55.9-71.7 73.3-30.4 17.4-62.5 26-96.6 26zm436.3 0c-19.1 0-37-3.3-53.2-9.7-16.3-6.4-30.6-15.4-42.7-26.8-12.1-11.2-21.6-24.6-28.4-39.8-6.8-15.2-10.1-31.7-10.1-49.3 0-17.6 4.2-33.9 12.5-49.1 8.1-15 19.8-27.9 35-38.7 15-10.8 32.8-19.4 53.5-25.3 20.7-5.9 43.3-8.8 68.2-8.8 20.9 0 41.8 1.8 63.1 5.3 21.1 3.7 40 8.8 56.5 15.6l0-36.5c0-35.6-10.1-64-30.1-84.9-20.2-20.9-48.2-31.5-84-31.5-20.7 0-41.8 4.2-63.6 12.3-21.8 8.4-43.8 20.2-66 35.9l-18.7-35c52.4-35.2 103.2-52.8 152.2-52.8 50.8 0 90.6 14.3 119.7 42.7 28.8 28.4 43.3 67.8 43.3 118.1l0 182.4c0 14.3 6.4 21.6 19.4 21.6l0 46.6c-8.8 1.5-15.6 2.4-20.2 2.4-13.4 0-24-3.3-31.5-10.1-7.5-6.8-11.4-16.1-11.9-27.9l-1.5-31.9c-18.7 24.4-42 42.9-70.2 55.9-28.4 13-58.7 19.4-91.3 19.4zm12.3-40.3c27.5 0 52.6-5.3 75.7-15.6 23.1-10.3 40.5-24 52.4-41.1 4.6-4.6 8.1-9.7 10.6-15.2 2.4-5.5 3.5-10.3 3.5-15l0-66c-17.6-6.8-35.9-11.9-54.8-15.6-18.9-3.5-38.3-5.3-57.9-5.3-37.2 0-67.5 7.7-90.6 23.1-23.3 15.6-35 36.1-35 61.4 0 12.5 2.4 24.2 7.5 35 4.8 10.8 11.4 20.2 20 28.2 8.6 8.1 18.7 14.5 30.6 19.1 11.9 4.6 24.6 7 38.1 7zm649 32.6l-52.8 0 0-225.9c0-48.2-7-82.9-21.3-104.7-14.3-21.8-36.1-32.6-65.6-32.6-15.6 0-31 2.9-46.6 8.6-15.6 5.7-29.9 13.6-43.1 24-13.2 10.3-24.9 22.7-35.2 37-10.3 14.3-18 29.7-22.7 46.2l0 247.5-52.6 0 0-404.4 48 0 0 91.5c16.5-29.5 40.3-53.2 71.1-71.5 30.8-18 64.2-27.1 100.5-27.1 22.2 0 41.1 4.2 56.8 12.3 15.4 8.4 27.7 20 37.2 35 9.2 15.2 16.1 33.4 20.2 55.2 4.2 21.8 6.2 45.8 6.2 72.2l0 236.7zm306.7-19.4c-3.3 1.5-7.7 3.5-13.6 6.2-5.9 2.6-13 5.3-20.7 7.7-7.7 2.6-16.5 5.1-26.4 7-9.9 2-20.2 3.1-31 3.1-11.2 0-22-1.5-32.3-4.6-10.3-3.1-19.6-7.9-27.3-14.3-7.7-6.4-14.1-14.5-18.7-24.4-4.6-9.9-7-21.3-7-34.3l0-289.3-55.9 0 0-42 55.9 0 0-136.6 52.8 0 0 136.6 93.1 0 0 42-93.1 0 0 274.6c1.1 15.2 6.4 26.2 16.1 33 9.5 7 20.5 10.6 32.8 10.6 15.2 0 28.4-2.4 39.8-7.5 11.2-4.8 18.5-8.4 21.6-10.3l14.1 42.7zm228.2 27.1c-29.5 0-56.3-5.5-80.7-16.7-24.4-11-45.3-26.2-63.1-45.3-17.8-19.1-31.7-41.4-41.6-66.7-9.9-25.3-14.7-52.1-14.7-80.1 0-28.4 5.1-55.4 15.2-80.7 9.9-25.3 24-47.5 41.8-66.7 17.8-19.1 38.9-34.5 63.4-46 24.2-11.2 50.8-16.9 79.9-16.9 28.8 0 55.7 5.7 80.3 16.9 24.4 11.4 45.8 26.8 63.6 46 17.8 19.1 31.9 41.4 42 66.7 9.9 25.3 15 52.4 15 80.7 0 27.9-4.8 54.8-14.7 80.1-9.9 25.3-23.5 47.5-41.4 66.7-17.8 19.1-39.2 34.3-63.6 45.3-24.6 11.2-51.7 16.7-81.2 16.7zm-146.7-207.9c0 22.7 4 43.8 11.7 63.1 7.7 19.6 18.3 36.5 31.5 51.3 13.2 14.7 28.8 26.4 46.6 34.5 17.8 8.4 36.7 12.5 57 12.5 20 0 39.2-4.4 57-13 17.8-8.6 33.7-20.2 47.1-35 13.4-14.7 24-31.9 31.7-51.5 7.7-19.6 11.7-40.9 11.7-63.6 0-22.2-4-43.3-11.7-63.4-7.7-20-18.3-37.4-31.7-52.1-13.4-14.7-29.3-26.2-47.1-34.8-17.8-8.6-37-12.8-57-12.8-20.2 0-39.2 4.2-56.8 12.8-17.6 8.6-33 20.2-46.4 35.2-13.4 15.2-24.2 32.6-31.9 52.6-7.7 20-11.7 41.4-11.7 64zm808.7 207.9c-29.5 0-56.5-5.5-81-16.7-24.6-11-46-26.2-64-45.8-18.3-19.4-32.3-41.8-42.2-67.1-10.1-25.3-15.2-52.6-15.2-81.4 0-28.4 5.1-55.2 15.2-80.5 9.9-25.1 24-47.1 41.8-66 17.8-18.7 39.2-33.7 64-44.9 24.9-11.2 51.7-16.7 80.7-16.7 29.5 0 56.5 5.5 81.2 16.7 24.4 11.2 45.5 26.2 63.1 45.3 17.6 19.1 31.2 41.1 41.1 66 9.9 24.9 14.7 51.3 14.7 79.2 0 4.2 0 8.1 0 12.3 0 4.2-0.2 7-0.9 8.6l-346.1 0c1.5 21.8 6.6 42 15.2 60.3 8.6 18.3 19.6 34.3 33 47.7 13.4 13.4 28.8 24 46.2 31.5 17.4 7.5 35.9 11.2 55.4 11.2 13 0 26-1.8 38.9-5.5 13-3.7 24.9-8.6 35.6-14.7 10.8-6.2 20.7-13.9 29.5-22.9 8.8-9 15.4-19.1 20-29.9l46 12.5c-6.4 15-15.2 28.6-26.4 40.7-11.4 12.1-24.6 22.7-39.6 31.7-15.2 9-31.7 16.1-49.7 21.1-18.3 4.8-37.2 7.3-56.8 7.3zm149.2-231.2c-1.5-21.8-6.6-41.6-15.2-59.4-8.6-17.8-19.4-33.2-32.6-46.2-13.2-13-28.4-23.1-45.8-30.4-17.4-7.3-36.1-10.8-55.7-10.8-19.6 0-38.3 3.5-55.9 10.8-17.6 7.3-33 17.4-46.2 30.4-13.2 13-23.8 28.4-31.7 46.4-8.1 18.3-12.8 37.8-14.3 59.2l297.2 0zm134.2-343l52.8 0 0 475c0 15 4.2 26.6 12.5 35.2 8.1 8.6 19.8 12.8 34.8 12.8 5.7 0 12.5-0.9 20.2-2.4 7.7-1.5 15-3.5 21.8-5.9l9.2 42.7c-9.9 4.2-21.8 7.5-36.1 10.1-14.3 2.4-26.6 3.7-37 3.7-24.2 0-43.3-6.8-57.2-20.7-14.1-13.6-21.1-32.8-21.1-57.6l0-492.8zm383.5 574.2c-29.5 0-56.5-5.5-81-16.7-24.6-11-46-26.2-64-45.8-18.3-19.4-32.3-41.8-42.2-67.1-10.1-25.3-15.2-52.6-15.2-81.4 0-28.4 5.1-55.2 15.2-80.5 9.9-25.1 24-47.1 41.8-66 17.8-18.7 39.2-33.7 64-44.9 24.9-11.2 51.7-16.7 80.7-16.7 29.5 0 56.5 5.5 81.2 16.7 24.4 11.2 45.5 26.2 63.1 45.3 17.6 19.1 31.2 41.1 41.1 66 9.9 24.9 14.7 51.3 14.7 79.2 0 4.2 0 8.1 0 12.3 0 4.2-0.2 7-0.9 8.6l-346.1 0c1.5 21.8 6.6 42 15.2 60.3 8.6 18.3 19.6 34.3 33 47.7 13.4 13.4 28.8 24 46.2 31.5 17.4 7.5 35.9 11.2 55.4 11.2 13 0 26-1.8 38.9-5.5 13-3.7 24.9-8.6 35.6-14.7 10.8-6.2 20.7-13.9 29.5-22.9 8.8-9 15.4-19.1 20-29.9l46 12.5c-6.4 15-15.2 28.6-26.4 40.7-11.4 12.1-24.6 22.7-39.6 31.7-15.2 9-31.7 16.1-49.7 21.1-18.3 4.8-37.2 7.3-56.8 7.3zm149.2-231.2c-1.5-21.8-6.6-41.6-15.2-59.4-8.6-17.8-19.4-33.2-32.6-46.2-13.2-13-28.4-23.1-45.8-30.4-17.4-7.3-36.1-10.8-55.7-10.8-19.6 0-38.3 3.5-55.9 10.8-17.6 7.3-33 17.4-46.2 30.4-13.2 13-23.8 28.4-31.7 46.4-8.1 18.3-12.8 37.8-14.3 59.2l297.2 0zm504.5 231.2c-29.5 0-56.5-5.5-81-16.7-24.6-11-46-26.2-64-45.8-18.3-19.4-32.3-41.8-42.2-67.1-10.1-25.3-15.2-52.6-15.2-81.4 0-28.4 5.1-55.2 15.2-80.5 9.9-25.1 24-47.1 41.8-66 17.8-18.7 39.2-33.7 64-44.9 24.9-11.2 51.7-16.7 80.7-16.7 29.5 0 56.5 5.5 81.2 16.7 24.4 11.2 45.5 26.2 63.1 45.3 17.6 19.1 31.2 41.1 41.1 66 9.9 24.9 14.7 51.3 14.7 79.2 0 4.2 0 8.1 0 12.3 0 4.2-0.2 7-0.9 8.6l-346.1 0c1.5 21.8 6.6 42 15.2 60.3 8.6 18.3 19.6 34.3 33 47.7 13.4 13.4 28.8 24 46.2 31.5 17.4 7.5 35.9 11.2 55.4 11.2 13 0 26-1.8 38.9-5.5 13-3.7 24.9-8.6 35.6-14.7 10.8-6.2 20.7-13.9 29.5-22.9 8.8-9 15.4-19.1 20-29.9l46 12.5c-6.4 15-15.2 28.6-26.4 40.7-11.4 12.1-24.6 22.7-39.6 31.7-15.2 9-31.7 16.1-49.7 21.1-18.3 4.8-37.2 7.3-56.8 7.3zm149.2-231.2c-1.5-21.8-6.6-41.6-15.2-59.4-8.6-17.8-19.4-33.2-32.6-46.2-13.2-13-28.4-23.1-45.8-30.4-17.4-7.3-36.1-10.8-55.7-10.8-19.6 0-38.3 3.5-55.9 10.8-17.6 7.3-33 17.4-46.2 30.4-13.2 13-23.8 28.4-31.7 46.4-8.1 18.3-12.8 37.8-14.3 59.2l297.2 0zm266.2 231.2c-31.5 0-62.3-5.3-92.4-15.6-30.1-10.3-55.9-25.3-77.7-44.9l24.2-35.6c22.7 18.7 46 32.6 69.5 41.8 23.5 9.5 48.6 14.1 75.5 14.1 32.8 0 58.7-6.6 78.1-19.8 19.4-13.2 29-31.9 29-56.3 0-11.4-2.6-20.9-7.7-28.4-5.1-7.5-12.8-14.1-22.9-19.8-10.1-5.5-22.9-10.6-38.1-15-15.2-4.4-33-9-53.2-13.6-23.1-5.7-43.3-11.4-60.3-17.2-17.2-5.7-31.2-12.1-42.5-19.4-11.2-7.3-19.4-16.1-24.9-26.8-5.5-10.6-8.1-23.8-8.1-39.8 0-20.2 4-38.1 12.1-53.7 7.9-15.6 18.7-28.4 32.6-38.5 13.6-9.9 29.7-17.6 48.2-22.9 18.3-5.1 37.8-7.7 58.5-7.7 31 0 59.4 5.1 84.7 15.2 25.3 10.1 45.5 23.5 61.2 40l-25.5 31c-15.2-15.6-33.4-27.3-54.8-35-21.3-7.7-43.8-11.7-67.1-11.7-13.9 0-26.8 1.3-38.7 4.2-12.1 2.9-22.4 7.5-31.5 13.6-9 6.4-16.3 14.3-21.3 23.8-5.3 9.5-7.9 20.7-7.9 33.7 0 10.8 1.8 19.6 5.5 26.4 3.7 6.8 9.7 12.5 18 17.4 8.1 5.1 18.7 9.5 31.2 13.2 12.5 4 27.9 7.9 46.2 12.1 25.7 6.4 48.6 12.5 68.2 18.7 19.6 6.2 36.1 13.4 49.3 21.6 13.2 8.4 23.1 18.5 29.9 30.4 6.8 12.1 10.1 26.6 10.1 43.6 0 37.2-14.3 66.7-42.7 88.4-28.4 21.8-66.7 32.6-114.8 32.6zm437.8-27.1c-3.3 1.5-7.7 3.5-13.6 6.2-5.9 2.6-13 5.3-20.7 7.7-7.7 2.6-16.5 5.1-26.4 7-9.9 2-20.2 3.1-31 3.1-11.2 0-22-1.5-32.3-4.6-10.3-3.1-19.6-7.9-27.3-14.3-7.7-6.4-14.1-14.5-18.7-24.4-4.6-9.9-7-21.3-7-34.3l0-289.3-55.9 0 0-42 55.9 0 0-136.6 52.8 0 0 136.6 93.1 0 0 42-93.1 0 0 274.6c1.1 15.2 6.4 26.2 16.1 33 9.5 7 20.5 10.6 32.8 10.6 15.2 0 28.4-2.4 39.8-7.5 11.2-4.8 18.5-8.4 21.6-10.3l14.1 42.7zm66 19.4l0-404.4 52.6 0 0 404.4-52.6 0zm0-489.1l0-77.4 52.6 0 0 77.4-52.6 0zm290.2 489.1l-164.6-404.4 54.3 0 138.8 355.5 139.7-355.5 51.3 0-164.6 404.4-55 0zm453 7.7c-29.5 0-56.5-5.5-81-16.7-24.6-11-46-26.2-64-45.8-18.3-19.4-32.3-41.8-42.2-67.1-10.1-25.3-15.2-52.6-15.2-81.4 0-28.4 5.1-55.2 15.2-80.5 9.9-25.1 24-47.1 41.8-66 17.8-18.7 39.2-33.7 64-44.9 24.9-11.2 51.7-16.7 80.7-16.7 29.5 0 56.5 5.5 81.2 16.7 24.4 11.2 45.5 26.2 63.1 45.3 17.6 19.1 31.2 41.1 41.1 66 9.9 24.9 14.7 51.3 14.7 79.2 0 4.2 0 8.1 0 12.3 0 4.2-0.2 7-0.9 8.6l-346.1 0c1.5 21.8 6.6 42 15.2 60.3 8.6 18.3 19.6 34.3 33 47.7 13.4 13.4 28.8 24 46.2 31.5 17.4 7.5 35.9 11.2 55.4 11.2 13 0 26-1.8 38.9-5.5 13-3.7 24.9-8.6 35.6-14.7 10.8-6.2 20.7-13.9 29.5-22.9 8.8-9 15.4-19.1 20-29.9l46 12.5c-6.4 15-15.2 28.6-26.4 40.7-11.4 12.1-24.6 22.7-39.6 31.7-15.2 9-31.7 16.1-49.7 21.1-18.3 4.8-37.2 7.3-56.8 7.3zm149.2-231.2c-1.5-21.8-6.6-41.6-15.2-59.4-8.6-17.8-19.4-33.2-32.6-46.2-13.2-13-28.4-23.1-45.8-30.4-17.4-7.3-36.1-10.8-55.7-10.8-19.6 0-38.3 3.5-55.9 10.8-17.6 7.3-33 17.4-46.2 30.4-13.2 13-23.8 28.4-31.7 46.4-8.1 18.3-12.8 37.8-14.3 59.2l297.2 0zm333.7-134.2c-35.9 1.1-66.9 10.8-93.1 29.5-26.4 18.7-45.1 44.2-56.1 76.8l0 251.5-52.6 0 0-404.4 49.5 0 0 97c15.2-31 35.4-55.4 60.7-73 25.3-17.6 52.4-26.4 81.4-26.4 4.2 0 7.5 0.2 10.1 0.9l0 48.2zm589.9 357.7l-52.8 0 0-225.9c0-48.2-7-82.9-21.3-104.7-14.3-21.8-36.1-32.6-65.6-32.6-15.6 0-31 2.9-46.6 8.6-15.6 5.7-29.9 13.6-43.1 24-13.2 10.3-24.9 22.7-35.2 37-10.3 14.3-18 29.7-22.7 46.2l0 247.5-52.6 0 0-404.4 48 0 0 91.5c16.5-29.5 40.3-53.2 71.1-71.5 30.8-18 64.2-27.1 100.5-27.1 22.2 0 41.1 4.2 56.8 12.3 15.4 8.4 27.7 20 37.2 35 9.2 15.2 16.1 33.4 20.2 55.2 4.2 21.8 6.2 45.8 6.2 72.2l0 236.7zm214.3 7.7c-19.1 0-37-3.3-53.2-9.7-16.3-6.4-30.6-15.4-42.7-26.8-12.1-11.2-21.6-24.6-28.4-39.8-6.8-15.2-10.1-31.7-10.1-49.3 0-17.6 4.2-33.9 12.5-49.1 8.1-15 19.8-27.9 35-38.7 15-10.8 32.8-19.4 53.5-25.3 20.7-5.9 43.3-8.8 68.2-8.8 20.9 0 41.8 1.8 63.1 5.3 21.1 3.7 40 8.8 56.5 15.6l0-36.5c0-35.6-10.1-64-30.1-84.9-20.2-20.9-48.2-31.5-84-31.5-20.7 0-41.8 4.2-63.6 12.3-21.8 8.4-43.8 20.2-66 35.9l-18.7-35c52.4-35.2 103.2-52.8 152.2-52.8 50.8 0 90.6 14.3 119.7 42.7 28.8 28.4 43.3 67.8 43.3 118.1l0 182.4c0 14.3 6.4 21.6 19.4 21.6l0 46.6c-8.8 1.5-15.6 2.4-20.2 2.4-13.4 0-24-3.3-31.5-10.1-7.5-6.8-11.4-16.1-11.9-27.9l-1.5-31.9c-18.7 24.4-42 42.9-70.2 55.9-28.4 13-58.7 19.4-91.3 19.4zm12.3-40.3c27.5 0 52.6-5.3 75.7-15.6 23.1-10.3 40.5-24 52.4-41.1 4.6-4.6 8.1-9.7 10.6-15.2 2.4-5.5 3.5-10.3 3.5-15l0-66c-17.6-6.8-35.9-11.9-54.8-15.6-18.9-3.5-38.3-5.3-57.9-5.3-37.2 0-67.5 7.7-90.6 23.1-23.3 15.6-35 36.1-35 61.4 0 12.5 2.4 24.2 7.5 35 4.8 10.8 11.4 20.2 20 28.2 8.6 8.1 18.7 14.5 30.6 19.1 11.9 4.6 24.6 7 38.1 7zm479.2-170.7c0-28.4 4.8-55.4 14.7-80.7 9.9-25.3 23.8-47.5 41.6-66.4 17.8-18.9 39.2-33.9 64-44.7 24.9-10.8 52.1-16.3 82.1-16.3 38.3 0 71.7 8.6 100.1 26 28.4 17.4 49.9 40.9 64.5 70.4l-51.3 16.3c-11.2-20.7-27.1-37-47.5-48.6-20.5-11.7-43.1-17.4-68-17.4-20.7 0-40 4.2-57.9 12.3-17.8 8.4-33.4 19.6-46.6 33.9-13.2 14.3-23.5 31.2-31 50.8-7.5 19.6-11.2 41.1-11.2 64.5 0 22.7 4 44.2 11.7 64.2 7.7 20.2 18.5 37.6 31.9 52.4 13.4 14.7 29 26.4 46.9 35 17.8 8.6 37 13 57 13 13 0 25.7-1.8 38.5-5.5 12.5-3.7 24.4-8.8 35.4-15.2 10.8-6.4 20.2-13.9 27.9-22.2 7.7-8.1 13-16.9 16.3-26.2l51.9 15.4c-5.7 14.5-14.1 27.9-24.9 40-10.8 12.1-23.5 22.7-38.3 31.7-14.7 9-31.2 16.1-49.1 21.1-17.8 4.8-36.3 7.3-55.4 7.3-29.5 0-56.5-5.5-81.4-16.7-24.9-11-46.4-26.2-64.5-45.8-18.3-19.4-32.3-41.8-42.2-67.1-10.1-25.3-15.2-52.6-15.2-81.4zm454.1 203.3l0-404.4 52.6 0 0 404.4-52.6 0zm0-489.1l0-77.4 52.6 0 0 77.4-52.6 0zm335.3 496.8c-27.9 0-53.9-5.7-77.7-17.4-24-11.7-44.4-27.1-61.4-46.2-16.9-19.1-30.4-41.4-39.8-66.4-9.7-25.1-14.5-51.3-14.5-78.8 0-28.4 4.6-55.4 14.1-81.2 9.2-25.5 22-48 38.3-67.1 16.3-19.1 35.6-34.1 58.3-45.3 22.4-11.2 47.1-16.7 74.1-16.7 34.1 0 64.5 9 90.9 26.8 26.2 17.8 46.9 39.6 62 64.9l0-246.8 52.8 0 0 498.3c0 14.3 6.2 21.6 18.5 21.6l0 46.6c-7.7 1.5-13.9 2.4-18.5 2.4-12.5 0-23.3-4-32.6-12.1-9.5-8.1-14.1-17.8-14.1-29l0-39.6c-16.1 26.4-37.6 47.3-65.1 62.7-27.5 15.6-55.9 23.3-85.4 23.3zm11.4-46.4c13 0 27.1-2.6 41.8-7.9 14.7-5.1 28.4-12.3 41.4-21.3 13-9 24-19.6 33-31.7 9-12.1 14.7-25.3 16.7-39.2l0-125c-5.3-14.1-12.8-27.3-22.7-39.4-9.9-12.1-21.1-22.9-33.7-32.3-12.5-9.2-26.2-16.5-40.7-21.6-14.5-5.1-28.8-7.7-42.7-7.7-21.8 0-41.4 4.6-59 13.9-17.6 9.5-32.8 21.8-45.3 37-12.8 15.2-22.4 32.8-29.3 52.4-6.8 19.6-10.1 39.8-10.1 60.5 0 21.8 4 42.5 11.7 62 7.7 19.8 18.5 37 31.9 51.7 13.4 14.7 29.3 26.6 47.7 35.4 18.3 8.8 38.1 13.2 59.2 13.2zm406.8 46.4c-19.1 0-37-3.3-53.2-9.7-16.3-6.4-30.6-15.4-42.7-26.8-12.1-11.2-21.6-24.6-28.4-39.8-6.8-15.2-10.1-31.7-10.1-49.3 0-17.6 4.2-33.9 12.5-49.1 8.1-15 19.8-27.9 35-38.7 15-10.8 32.8-19.4 53.5-25.3 20.7-5.9 43.3-8.8 68.2-8.8 20.9 0 41.8 1.8 63.1 5.3 21.1 3.7 40 8.8 56.5 15.6l0-36.5c0-35.6-10.1-64-30.1-84.9-20.2-20.9-48.2-31.5-84-31.5-20.7 0-41.8 4.2-63.6 12.3-21.8 8.4-43.8 20.2-66 35.9l-18.7-35c52.4-35.2 103.2-52.8 152.2-52.8 50.8 0 90.6 14.3 119.7 42.7 28.8 28.4 43.3 67.8 43.3 118.1l0 182.4c0 14.3 6.4 21.6 19.4 21.6l0 46.6c-8.8 1.5-15.6 2.4-20.2 2.4-13.4 0-24-3.3-31.5-10.1-7.5-6.8-11.4-16.1-11.9-27.9l-1.5-31.9c-18.7 24.4-42 42.9-70.2 55.9-28.4 13-58.7 19.4-91.3 19.4zm12.3-40.3c27.5 0 52.6-5.3 75.7-15.6 23.1-10.3 40.5-24 52.4-41.1 4.6-4.6 8.1-9.7 10.6-15.2 2.4-5.5 3.5-10.3 3.5-15l0-66c-17.6-6.8-35.9-11.9-54.8-15.6-18.9-3.5-38.3-5.3-57.9-5.3-37.2 0-67.5 7.7-90.6 23.1-23.3 15.6-35 36.1-35 61.4 0 12.5 2.4 24.2 7.5 35 4.8 10.8 11.4 20.2 20 28.2 8.6 8.1 18.7 14.5 30.6 19.1 11.9 4.6 24.6 7 38.1 7zm475.2 40.3c-27.9 0-53.9-5.7-77.7-17.4-24-11.7-44.4-27.1-61.4-46.2-16.9-19.1-30.4-41.4-39.8-66.4-9.7-25.1-14.5-51.3-14.5-78.8 0-28.4 4.6-55.4 14.1-81.2 9.2-25.5 22-48 38.3-67.1 16.3-19.1 35.6-34.1 58.3-45.3 22.4-11.2 47.1-16.7 74.1-16.7 34.1 0 64.5 9 90.9 26.8 26.2 17.8 46.9 39.6 62 64.9l0-246.8 52.8 0 0 498.3c0 14.3 6.2 21.6 18.5 21.6l0 46.6c-7.7 1.5-13.9 2.4-18.5 2.4-12.5 0-23.3-4-32.6-12.1-9.5-8.1-14.1-17.8-14.1-29l0-39.6c-16.1 26.4-37.6 47.3-65.1 62.7-27.5 15.6-55.9 23.3-85.4 23.3zm11.4-46.4c13 0 27.1-2.6 41.8-7.9 14.7-5.1 28.4-12.3 41.4-21.3 13-9 24-19.6 33-31.7 9-12.1 14.7-25.3 16.7-39.2l0-125c-5.3-14.1-12.8-27.3-22.7-39.4-9.9-12.1-21.1-22.9-33.7-32.3-12.5-9.2-26.2-16.5-40.7-21.6-14.5-5.1-28.8-7.7-42.7-7.7-21.8 0-41.4 4.6-59 13.9-17.6 9.5-32.8 21.8-45.3 37-12.8 15.2-22.4 32.8-29.3 52.4-6.8 19.6-10.1 39.8-10.1 60.5 0 21.8 4 42.5 11.7 62 7.7 19.8 18.5 37 31.9 51.7 13.4 14.7 29.3 26.6 47.7 35.4 18.3 8.8 38.1 13.2 59.2 13.2zm479.6 46.4c-29.5 0-56.5-5.5-81-16.7-24.6-11-46-26.2-64-45.8-18.3-19.4-32.3-41.8-42.2-67.1-10.1-25.3-15.2-52.6-15.2-81.4 0-28.4 5.1-55.2 15.2-80.5 9.9-25.1 24-47.1 41.8-66 17.8-18.7 39.2-33.7 64-44.9 24.9-11.2 51.7-16.7 80.7-16.7 29.5 0 56.5 5.5 81.2 16.7 24.4 11.2 45.5 26.2 63.1 45.3 17.6 19.1 31.2 41.1 41.1 66 9.9 24.9 14.7 51.3 14.7 79.2 0 4.2 0 8.1 0 12.3 0 4.2-0.2 7-0.9 8.6l-346.1 0c1.5 21.8 6.6 42 15.2 60.3 8.6 18.3 19.6 34.3 33 47.7 13.4 13.4 28.8 24 46.2 31.5 17.4 7.5 35.9 11.2 55.4 11.2 13 0 26-1.8 38.9-5.5 13-3.7 24.9-8.6 35.6-14.7 10.8-6.2 20.7-13.9 29.5-22.9 8.8-9 15.4-19.1 20-29.9l46 12.5c-6.4 15-15.2 28.6-26.4 40.7-11.4 12.1-24.6 22.7-39.6 31.7-15.2 9-31.7 16.1-49.7 21.1-18.3 4.8-37.2 7.3-56.8 7.3zm149.2-231.2c-1.5-21.8-6.6-41.6-15.2-59.4-8.6-17.8-19.4-33.2-32.6-46.2-13.2-13-28.4-23.1-45.8-30.4-17.4-7.3-36.1-10.8-55.7-10.8-19.6 0-38.3 3.5-55.9 10.8-17.6 7.3-33 17.4-46.2 30.4-13.2 13-23.8 28.4-31.7 46.4-8.1 18.3-12.8 37.8-14.3 59.2l297.2 0zm536.4 231.2c-34.1 0-64.2-8.6-90.4-26-26.2-17.4-47.3-39.2-63.4-65.6l0 249-52.6 0 0-569.6 47.3 0 0 78.3c16.5-25.3 38.1-46 64.5-61.8 26.4-15.6 55-23.5 86-23.5 27.9 0 53.7 5.7 77 17.4 23.1 11.7 43.3 27.3 60.5 46.6 16.9 19.6 30.4 41.8 40 67.1 9.5 25.3 14.3 51.5 14.3 78.5 0 28.4-4.4 55.4-13.2 80.7-8.8 25.3-21.3 47.5-37.6 66.7-16.5 19.1-35.9 34.3-58.3 45.3-22.7 11.2-47.3 16.7-74.1 16.7zm-14.7-46.4c21.8 0 41.6-4.6 59.4-14.1 17.8-9.2 33.2-21.6 45.8-37 12.5-15.2 22.2-32.6 29-51.9 6.8-19.4 10.1-39.4 10.1-60.1 0-21.8-4-42.5-11.7-62.3-7.7-19.6-18.3-37-31.7-51.9-13.4-15-29.5-26.8-47.7-35.6-18.5-8.8-38.3-13.2-59.4-13.2-13.4 0-27.5 2.6-42.2 8.1-14.7 5.5-28.6 12.5-41.1 21.6-12.8 9-23.5 19.8-32.6 31.9-9 12.1-14.7 25.1-16.9 38.5l0 124.1c6.4 14.5 14.3 27.9 23.8 40.5 9.5 12.5 20.5 23.1 32.6 32.1 12.1 9 25.3 16.3 39.4 21.3 13.9 5.3 28.4 7.9 43.3 7.9zm489.1-319c-35.9 1.1-66.9 10.8-93.1 29.5-26.4 18.7-45.1 44.2-56.1 76.8l0 251.5-52.6 0 0-404.4 49.5 0 0 97c15.2-31 35.4-55.4 60.7-73 25.3-17.6 52.4-26.4 81.4-26.4 4.2 0 7.5 0.2 10.1 0.9l0 48.2zm224.8 365.4c-29.5 0-56.5-5.5-81-16.7-24.6-11-46-26.2-64-45.8-18.3-19.4-32.3-41.8-42.2-67.1-10.1-25.3-15.2-52.6-15.2-81.4 0-28.4 5.1-55.2 15.2-80.5 9.9-25.1 24-47.1 41.8-66 17.8-18.7 39.2-33.7 64-44.9 24.9-11.2 51.7-16.7 80.7-16.7 29.5 0 56.5 5.5 81.2 16.7 24.4 11.2 45.5 26.2 63.1 45.3 17.6 19.1 31.2 41.1 41.1 66 9.9 24.9 14.7 51.3 14.7 79.2 0 4.2 0 8.1 0 12.3 0 4.2-0.2 7-0.9 8.6l-346.1 0c1.5 21.8 6.6 42 15.2 60.3 8.6 18.3 19.6 34.3 33 47.7 13.4 13.4 28.8 24 46.2 31.5 17.4 7.5 35.9 11.2 55.4 11.2 13 0 26-1.8 38.9-5.5 13-3.7 24.9-8.6 35.6-14.7 10.8-6.2 20.7-13.9 29.5-22.9 8.8-9 15.4-19.1 20-29.9l46 12.5c-6.4 15-15.2 28.6-26.4 40.7-11.4 12.1-24.6 22.7-39.6 31.7-15.2 9-31.7 16.1-49.7 21.1-18.3 4.8-37.2 7.3-56.8 7.3zm149.2-231.2c-1.5-21.8-6.6-41.6-15.2-59.4-8.6-17.8-19.4-33.2-32.6-46.2-13.2-13-28.4-23.1-45.8-30.4-17.4-7.3-36.1-10.8-55.7-10.8-19.6 0-38.3 3.5-55.9 10.8-17.6 7.3-33 17.4-46.2 30.4-13.2 13-23.8 28.4-31.7 46.4-8.1 18.3-12.8 37.8-14.3 59.2l297.2 0zm104.1 20.2c0-28.4 4.8-55.4 14.7-80.7 9.9-25.3 23.8-47.5 41.6-66.4 17.8-18.9 39.2-33.9 64-44.7 24.9-10.8 52.1-16.3 82.1-16.3 38.3 0 71.7 8.6 100.1 26 28.4 17.4 49.9 40.9 64.5 70.4l-51.3 16.3c-11.2-20.7-27.1-37-47.5-48.6-20.5-11.7-43.1-17.4-68-17.4-20.7 0-40 4.2-57.9 12.3-17.8 8.4-33.4 19.6-46.6 33.9-13.2 14.3-23.5 31.2-31 50.8-7.5 19.6-11.2 41.1-11.2 64.5 0 22.7 4 44.2 11.7 64.2 7.7 20.2 18.5 37.6 31.9 52.4 13.4 14.7 29 26.4 46.9 35 17.8 8.6 37 13 57 13 13 0 25.7-1.8 38.5-5.5 12.5-3.7 24.4-8.8 35.4-15.2 10.8-6.4 20.2-13.9 27.9-22.2 7.7-8.1 13-16.9 16.3-26.2l51.9 15.4c-5.7 14.5-14.1 27.9-24.9 40-10.8 12.1-23.5 22.7-38.3 31.7-14.7 9-31.2 16.1-49.1 21.1-17.8 4.8-36.3 7.3-55.4 7.3-29.5 0-56.5-5.5-81.4-16.7-24.9-11-46.4-26.2-64.5-45.8-18.3-19.4-32.3-41.8-42.2-67.1-10.1-25.3-15.2-52.6-15.2-81.4zm454.1 203.3l0-404.4 52.6 0 0 404.4-52.6 0zm0-489.1l0-77.4 52.6 0 0 77.4-52.6 0zm303.4 496.8c-31.5 0-62.3-5.3-92.4-15.6-30.1-10.3-55.9-25.3-77.7-44.9l24.2-35.6c22.7 18.7 46 32.6 69.5 41.8 23.5 9.5 48.6 14.1 75.5 14.1 32.8 0 58.7-6.6 78.1-19.8 19.4-13.2 29-31.9 29-56.3 0-11.4-2.6-20.9-7.7-28.4-5.1-7.5-12.8-14.1-22.9-19.8-10.1-5.5-22.9-10.6-38.1-15-15.2-4.4-33-9-53.2-13.6-23.1-5.7-43.3-11.4-60.3-17.2-17.2-5.7-31.2-12.1-42.5-19.4-11.2-7.3-19.4-16.1-24.9-26.8-5.5-10.6-8.1-23.8-8.1-39.8 0-20.2 4-38.1 12.1-53.7 7.9-15.6 18.7-28.4 32.6-38.5 13.6-9.9 29.7-17.6 48.2-22.9 18.3-5.1 37.8-7.7 58.5-7.7 31 0 59.4 5.1 84.7 15.2 25.3 10.1 45.5 23.5 61.2 40l-25.5 31c-15.2-15.6-33.4-27.3-54.8-35-21.3-7.7-43.8-11.7-67.1-11.7-13.9 0-26.8 1.3-38.7 4.2-12.1 2.9-22.4 7.5-31.5 13.6-9 6.4-16.3 14.3-21.3 23.8-5.3 9.5-7.9 20.7-7.9 33.7 0 10.8 1.8 19.6 5.5 26.4 3.7 6.8 9.7 12.5 18 17.4 8.1 5.1 18.7 9.5 31.2 13.2 12.5 4 27.9 7.9 46.2 12.1 25.7 6.4 48.6 12.5 68.2 18.7 19.6 6.2 36.1 13.4 49.3 21.6 13.2 8.4 23.1 18.5 29.9 30.4 6.8 12.1 10.1 26.6 10.1 43.6 0 37.2-14.3 66.7-42.7 88.4-28.4 21.8-66.7 32.6-114.8 32.6zm345.4 0c-19.1 0-37-3.3-53.2-9.7-16.3-6.4-30.6-15.4-42.7-26.8-12.1-11.2-21.6-24.6-28.4-39.8-6.8-15.2-10.1-31.7-10.1-49.3 0-17.6 4.2-33.9 12.5-49.1 8.1-15 19.8-27.9 35-38.7 15-10.8 32.8-19.4 53.5-25.3 20.7-5.9 43.3-8.8 68.2-8.8 20.9 0 41.8 1.8 63.1 5.3 21.1 3.7 40 8.8 56.5 15.6l0-36.5c0-35.6-10.1-64-30.1-84.9-20.2-20.9-48.2-31.5-84-31.5-20.7 0-41.8 4.2-63.6 12.3-21.8 8.4-43.8 20.2-66 35.9l-18.7-35c52.4-35.2 103.2-52.8 152.2-52.8 50.8 0 90.6 14.3 119.7 42.7 28.8 28.4 43.3 67.8 43.3 118.1l0 182.4c0 14.3 6.4 21.6 19.4 21.6l0 46.6c-8.8 1.5-15.6 2.4-20.2 2.4-13.4 0-24-3.3-31.5-10.1-7.5-6.8-11.4-16.1-11.9-27.9l-1.5-31.9c-18.7 24.4-42 42.9-70.2 55.9-28.4 13-58.7 19.4-91.3 19.4zm12.3-40.3c27.5 0 52.6-5.3 75.7-15.6 23.1-10.3 40.5-24 52.4-41.1 4.6-4.6 8.1-9.7 10.6-15.2 2.4-5.5 3.5-10.3 3.5-15l0-66c-17.6-6.8-35.9-11.9-54.8-15.6-18.9-3.5-38.3-5.3-57.9-5.3-37.2 0-67.5 7.7-90.6 23.1-23.3 15.6-35 36.1-35 61.4 0 12.5 2.4 24.2 7.5 35 4.8 10.8 11.4 20.2 20 28.2 8.6 8.1 18.7 14.5 30.6 19.1 11.9 4.6 24.6 7 38.1 7zm910.6 32.6l-52.8 0 0-225.9c0-47.1-7.5-81.8-22.4-104.1-15.2-22.2-37.4-33.2-66.9-33.2-15.6 0-30.1 2.9-43.8 8.6-13.9 5.7-26.4 13.6-38.1 24-11.7 10.3-22 22.7-30.6 37-8.8 14.3-15.6 29.9-20.2 46.9l0 246.8-52.8 0 0-225.9c0-48.2-7.3-82.9-21.8-104.7-14.5-21.8-36.7-32.6-66.7-32.6-30.6 0-57.6 10.6-81.4 31.7-24 21.3-41.1 49.3-51.5 84l0 247.5-52.6 0 0-404.4 48 0 0 91.5c16.5-31 38.3-55.2 65.3-72.6 26.8-17.4 56.5-26 89.1-26 34.1 0 61.6 9.5 82.1 28.6 20.5 19.1 33 44.4 37.6 75.5 37.6-69.3 89.8-104.1 156-104.1 22.7 0 42 4.2 57.9 12.3 15.6 8.4 28.4 20.2 38.1 35.4 9.5 15.2 16.5 33.7 20.9 55 4.4 21.6 6.6 45.5 6.6 71.9l0 236.7zm284 7.7c-29.5 0-56.3-5.5-80.7-16.7-24.4-11-45.3-26.2-63.1-45.3-17.8-19.1-31.7-41.4-41.6-66.7-9.9-25.3-14.7-52.1-14.7-80.1 0-28.4 5.1-55.4 15.2-80.7 9.9-25.3 24-47.5 41.8-66.7 17.8-19.1 38.9-34.5 63.4-46 24.2-11.2 50.8-16.9 79.9-16.9 28.8 0 55.7 5.7 80.3 16.9 24.4 11.4 45.8 26.8 63.6 46 17.8 19.1 31.9 41.4 42 66.7 9.9 25.3 15 52.4 15 80.7 0 27.9-4.8 54.8-14.7 80.1-9.9 25.3-23.5 47.5-41.4 66.7-17.8 19.1-39.2 34.3-63.6 45.3-24.6 11.2-51.7 16.7-81.2 16.7zm-146.7-207.9c0 22.7 4 43.8 11.7 63.1 7.7 19.6 18.3 36.5 31.5 51.3 13.2 14.7 28.8 26.4 46.6 34.5 17.8 8.4 36.7 12.5 57 12.5 20 0 39.2-4.4 57-13 17.8-8.6 33.7-20.2 47.1-35 13.4-14.7 24-31.9 31.7-51.5 7.7-19.6 11.7-40.9 11.7-63.6 0-22.2-4-43.3-11.7-63.4-7.7-20-18.3-37.4-31.7-52.1-13.4-14.7-29.3-26.2-47.1-34.8-17.8-8.6-37-12.8-57-12.8-20.2 0-39.2 4.2-56.8 12.8-17.6 8.6-33 20.2-46.4 35.2-13.4 15.2-24.2 32.6-31.9 52.6-7.7 20-11.7 41.4-11.7 64zm570.5 207.9c-31.5 0-62.3-5.3-92.4-15.6-30.1-10.3-55.9-25.3-77.7-44.9l24.2-35.6c22.7 18.7 46 32.6 69.5 41.8 23.5 9.5 48.6 14.1 75.5 14.1 32.8 0 58.7-6.6 78.1-19.8 19.4-13.2 29-31.9 29-56.3 0-11.4-2.6-20.9-7.7-28.4-5.1-7.5-12.8-14.1-22.9-19.8-10.1-5.5-22.9-10.6-38.1-15-15.2-4.4-33-9-53.2-13.6-23.1-5.7-43.3-11.4-60.3-17.2-17.2-5.7-31.2-12.1-42.5-19.4-11.2-7.3-19.4-16.1-24.9-26.8-5.5-10.6-8.1-23.8-8.1-39.8 0-20.2 4-38.1 12.1-53.7 7.9-15.6 18.7-28.4 32.6-38.5 13.6-9.9 29.7-17.6 48.2-22.9 18.3-5.1 37.8-7.7 58.5-7.7 31 0 59.4 5.1 84.7 15.2 25.3 10.1 45.5 23.5 61.2 40l-25.5 31c-15.2-15.6-33.4-27.3-54.8-35-21.3-7.7-43.8-11.7-67.1-11.7-13.9 0-26.8 1.3-38.7 4.2-12.1 2.9-22.4 7.5-31.5 13.6-9 6.4-16.3 14.3-21.3 23.8-5.3 9.5-7.9 20.7-7.9 33.7 0 10.8 1.8 19.6 5.5 26.4 3.7 6.8 9.7 12.5 18 17.4 8.1 5.1 18.7 9.5 31.2 13.2 12.5 4 27.9 7.9 46.2 12.1 25.7 6.4 48.6 12.5 68.2 18.7 19.6 6.2 36.1 13.4 49.3 21.6 13.2 8.4 23.1 18.5 29.9 30.4 6.8 12.1 10.1 26.6 10.1 43.6 0 37.2-14.3 66.7-42.7 88.4-28.4 21.8-66.7 32.6-114.8 32.6z"/><path class="fil0" d="M3154.3 10707.3c-27.9 0-53.9-5.7-77.7-17.4-24-11.7-44.4-27.1-61.4-46.2-16.9-19.1-30.4-41.4-39.8-66.4-9.7-25.1-14.5-51.3-14.5-78.8 0-28.4 4.6-55.4 14.1-81.2 9.2-25.5 22-48 38.3-67.1 16.3-19.1 35.6-34.1 58.3-45.3 22.4-11.2 47.1-16.7 74.1-16.7 34.1 0 64.5 9 90.9 26.8 26.2 17.8 46.9 39.6 62 64.9l0-246.8 52.8 0 0 498.3c0 14.3 6.2 21.6 18.5 21.6l0 46.6c-7.7 1.5-13.9 2.4-18.5 2.4-12.5 0-23.3-4-32.6-12.1-9.5-8.1-14.1-17.8-14.1-29l0-39.6c-16.1 26.4-37.6 47.3-65.1 62.7-27.5 15.6-55.9 23.3-85.4 23.3zm11.4-46.4c13 0 27.1-2.6 41.8-7.9 14.7-5.1 28.4-12.3 41.4-21.3 13-9 24-19.6 33-31.7 9-12.1 14.7-25.3 16.7-39.2l0-125c-5.3-14.1-12.8-27.3-22.7-39.4-9.9-12.1-21.1-22.9-33.7-32.3-12.5-9.2-26.2-16.5-40.7-21.6-14.5-5.1-28.8-7.7-42.7-7.7-21.8 0-41.4 4.6-59 13.9-17.6 9.5-32.8 21.8-45.3 37-12.8 15.2-22.4 32.8-29.3 52.4-6.8 19.6-10.1 39.8-10.1 60.5 0 21.8 4 42.5 11.7 62 7.7 19.8 18.5 37 31.9 51.7 13.4 14.7 29.3 26.6 47.7 35.4 18.3 8.8 38.1 13.2 59.2 13.2zm477.4 46.4c-29.5 0-56.3-5.5-80.7-16.7-24.4-11-45.3-26.2-63.1-45.3-17.8-19.1-31.7-41.4-41.6-66.7-9.9-25.3-14.7-52.1-14.7-80.1 0-28.4 5.1-55.4 15.2-80.7 9.9-25.3 24-47.5 41.8-66.7 17.8-19.1 38.9-34.5 63.4-46 24.2-11.2 50.8-16.9 79.9-16.9 28.8 0 55.7 5.7 80.3 16.9 24.4 11.4 45.8 26.8 63.6 46 17.8 19.1 31.9 41.4 42 66.7 9.9 25.3 15 52.4 15 80.7 0 27.9-4.8 54.8-14.7 80.1-9.9 25.3-23.5 47.5-41.4 66.7-17.8 19.1-39.2 34.3-63.6 45.3-24.6 11.2-51.7 16.7-81.2 16.7zm-146.7-207.9c0 22.7 4 43.8 11.7 63.1 7.7 19.6 18.3 36.5 31.5 51.3 13.2 14.7 28.8 26.4 46.6 34.5 17.8 8.4 36.7 12.5 57 12.5 20 0 39.2-4.4 57-13 17.8-8.6 33.7-20.2 47.1-35 13.4-14.7 24-31.9 31.7-51.5 7.7-19.6 11.7-40.9 11.7-63.6 0-22.2-4-43.3-11.7-63.4-7.7-20-18.3-37.4-31.7-52.1-13.4-14.7-29.3-26.2-47.1-34.8-17.8-8.6-37-12.8-57-12.8-20.2 0-39.2 4.2-56.8 12.8-17.6 8.6-33 20.2-46.4 35.2-13.4 15.2-24.2 32.6-31.9 52.6-7.7 20-11.7 41.4-11.7 64zm570.5 207.9c-31.5 0-62.3-5.3-92.4-15.6-30.1-10.3-55.9-25.3-77.7-44.9l24.2-35.6c22.7 18.7 46 32.6 69.5 41.8 23.5 9.5 48.6 14.1 75.5 14.1 32.8 0 58.7-6.6 78.1-19.8 19.4-13.2 29-31.9 29-56.3 0-11.4-2.6-20.9-7.7-28.4-5.1-7.5-12.8-14.1-22.9-19.8-10.1-5.5-22.9-10.6-38.1-15-15.2-4.4-33-9-53.2-13.6-23.1-5.7-43.3-11.4-60.3-17.2-17.2-5.7-31.2-12.1-42.5-19.4-11.2-7.3-19.4-16.1-24.9-26.8-5.5-10.6-8.1-23.8-8.1-39.8 0-20.2 4-38.1 12.1-53.7 7.9-15.6 18.7-28.4 32.6-38.5 13.6-9.9 29.7-17.6 48.2-22.9 18.3-5.1 37.8-7.7 58.5-7.7 31 0 59.4 5.1 84.7 15.2 25.3 10.1 45.5 23.5 61.2 40l-25.5 31c-15.2-15.6-33.4-27.3-54.8-35-21.3-7.7-43.8-11.7-67.1-11.7-13.9 0-26.8 1.3-38.7 4.2-12.1 2.9-22.4 7.5-31.5 13.6-9 6.4-16.3 14.3-21.3 23.8-5.3 9.5-7.9 20.7-7.9 33.7 0 10.8 1.8 19.6 5.5 26.4 3.7 6.8 9.7 12.5 18 17.4 8.1 5.1 18.7 9.5 31.2 13.2 12.5 4 27.9 7.9 46.2 12.1 25.7 6.4 48.6 12.5 68.2 18.7 19.6 6.2 36.1 13.4 49.3 21.6 13.2 8.4 23.1 18.5 29.9 30.4 6.8 12.1 10.1 26.6 10.1 43.6 0 37.2-14.3 66.7-42.7 88.4-28.4 21.8-66.7 32.6-114.8 32.6zm576 0c-31.5 0-62.3-5.3-92.4-15.6-30.1-10.3-55.9-25.3-77.7-44.9l24.2-35.6c22.7 18.7 46 32.6 69.5 41.8 23.5 9.5 48.6 14.1 75.5 14.1 32.8 0 58.7-6.6 78.1-19.8 19.4-13.2 29-31.9 29-56.3 0-11.4-2.6-20.9-7.7-28.4-5.1-7.5-12.8-14.1-22.9-19.8-10.1-5.5-22.9-10.6-38.1-15-15.2-4.4-33-9-53.2-13.6-23.1-5.7-43.3-11.4-60.3-17.2-17.2-5.7-31.2-12.1-42.5-19.4-11.2-7.3-19.4-16.1-24.9-26.8-5.5-10.6-8.1-23.8-8.1-39.8 0-20.2 4-38.1 12.1-53.7 7.9-15.6 18.7-28.4 32.6-38.5 13.6-9.9 29.7-17.6 48.2-22.9 18.3-5.1 37.8-7.7 58.5-7.7 31 0 59.4 5.1 84.7 15.2 25.3 10.1 45.5 23.5 61.2 40l-25.5 31c-15.2-15.6-33.4-27.3-54.8-35-21.3-7.7-43.8-11.7-67.1-11.7-13.9 0-26.8 1.3-38.7 4.2-12.1 2.9-22.4 7.5-31.5 13.6-9 6.4-16.3 14.3-21.3 23.8-5.3 9.5-7.9 20.7-7.9 33.7 0 10.8 1.8 19.6 5.5 26.4 3.7 6.8 9.7 12.5 18 17.4 8.1 5.1 18.7 9.5 31.2 13.2 12.5 4 27.9 7.9 46.2 12.1 25.7 6.4 48.6 12.5 68.2 18.7 19.6 6.2 36.1 13.4 49.3 21.6 13.2 8.4 23.1 18.5 29.9 30.4 6.8 12.1 10.1 26.6 10.1 43.6 0 37.2-14.3 66.7-42.7 88.4-28.4 21.8-66.7 32.6-114.8 32.6zm418.2 0c-29.5 0-56.5-5.5-81-16.7-24.6-11-46-26.2-64-45.8-18.3-19.4-32.3-41.8-42.2-67.1-10.1-25.3-15.2-52.6-15.2-81.4 0-28.4 5.1-55.2 15.2-80.5 9.9-25.1 24-47.1 41.8-66 17.8-18.7 39.2-33.7 64-44.9 24.9-11.2 51.7-16.7 80.7-16.7 29.5 0 56.5 5.5 81.2 16.7 24.4 11.2 45.5 26.2 63.1 45.3 17.6 19.1 31.2 41.1 41.1 66 9.9 24.9 14.7 51.3 14.7 79.2 0 4.2 0 8.1 0 12.3 0 4.2-0.2 7-0.9 8.6l-346.1 0c1.5 21.8 6.6 42 15.2 60.3 8.6 18.3 19.6 34.3 33 47.7 13.4 13.4 28.8 24 46.2 31.5 17.4 7.5 35.9 11.2 55.4 11.2 13 0 26-1.8 38.9-5.5 13-3.7 24.9-8.6 35.6-14.7 10.8-6.2 20.7-13.9 29.5-22.9 8.8-9 15.4-19.1 20-29.9l46 12.5c-6.4 15-15.2 28.6-26.4 40.7-11.4 12.1-24.6 22.7-39.6 31.7-15.2 9-31.7 16.1-49.7 21.1-18.3 4.8-37.2 7.3-56.8 7.3zm149.2-231.2c-1.5-21.8-6.6-41.6-15.2-59.4-8.6-17.8-19.4-33.2-32.6-46.2-13.2-13-28.4-23.1-45.8-30.4-17.4-7.3-36.1-10.8-55.7-10.8-19.6 0-38.3 3.5-55.9 10.8-17.6 7.3-33 17.4-46.2 30.4-13.2 13-23.8 28.4-31.7 46.4-8.1 18.3-12.8 37.8-14.3 59.2l297.2 0zm258.5 231.2c-44 0-76.8-14.5-98.1-43.8-21.6-29.3-32.3-72.8-32.3-130.7l0-237.6 52.8 0 0 228.1c0 91.7 31.2 137.5 93.9 137.5 15.6 0 30.8-2.6 45.8-7.9 15-5.1 28.8-12.5 41.6-22.4 12.5-9.9 24-21.6 34.1-35 10.1-13.4 18.3-28.6 24.4-45.8l0-254.5 52.8 0 0 336.2c0 14.3 6.2 21.6 18.5 21.6l0 46.6c-6.2 1.1-11.2 1.5-15 1.5-4 0-6.6 0-8.1 0-12.5-0.4-22.7-4.8-30.4-13.2-7.7-8.1-11.7-19.4-11.7-33.4l0-46.4c-17.6 31.5-41.6 55.9-71.7 73.3-30.4 17.4-62.5 26-96.6 26zm468.8 0c-31.5 0-62.3-5.3-92.4-15.6-30.1-10.3-55.9-25.3-77.7-44.9l24.2-35.6c22.7 18.7 46 32.6 69.5 41.8 23.5 9.5 48.6 14.1 75.5 14.1 32.8 0 58.7-6.6 78.1-19.8 19.4-13.2 29-31.9 29-56.3 0-11.4-2.6-20.9-7.7-28.4-5.1-7.5-12.8-14.1-22.9-19.8-10.1-5.5-22.9-10.6-38.1-15-15.2-4.4-33-9-53.2-13.6-23.1-5.7-43.3-11.4-60.3-17.2-17.2-5.7-31.2-12.1-42.5-19.4-11.2-7.3-19.4-16.1-24.9-26.8-5.5-10.6-8.1-23.8-8.1-39.8 0-20.2 4-38.1 12.1-53.7 7.9-15.6 18.7-28.4 32.6-38.5 13.6-9.9 29.7-17.6 48.2-22.9 18.3-5.1 37.8-7.7 58.5-7.7 31 0 59.4 5.1 84.7 15.2 25.3 10.1 45.5 23.5 61.2 40l-25.5 31c-15.2-15.6-33.4-27.3-54.8-35-21.3-7.7-43.8-11.7-67.1-11.7-13.9 0-26.8 1.3-38.7 4.2-12.1 2.9-22.4 7.5-31.5 13.6-9 6.4-16.3 14.3-21.3 23.8-5.3 9.5-7.9 20.7-7.9 33.7 0 10.8 1.8 19.6 5.5 26.4 3.7 6.8 9.7 12.5 18 17.4 8.1 5.1 18.7 9.5 31.2 13.2 12.5 4 27.9 7.9 46.2 12.1 25.7 6.4 48.6 12.5 68.2 18.7 19.6 6.2 36.1 13.4 49.3 21.6 13.2 8.4 23.1 18.5 29.9 30.4 6.8 12.1 10.1 26.6 10.1 43.6 0 37.2-14.3 66.7-42.7 88.4-28.4 21.8-66.7 32.6-114.8 32.6zm576 0c-31.5 0-62.3-5.3-92.4-15.6-30.1-10.3-55.9-25.3-77.7-44.9l24.2-35.6c22.7 18.7 46 32.6 69.5 41.8 23.5 9.5 48.6 14.1 75.5 14.1 32.8 0 58.7-6.6 78.1-19.8 19.4-13.2 29-31.9 29-56.3 0-11.4-2.6-20.9-7.7-28.4-5.1-7.5-12.8-14.1-22.9-19.8-10.1-5.5-22.9-10.6-38.1-15-15.2-4.4-33-9-53.2-13.6-23.1-5.7-43.3-11.4-60.3-17.2-17.2-5.7-31.2-12.1-42.5-19.4-11.2-7.3-19.4-16.1-24.9-26.8-5.5-10.6-8.1-23.8-8.1-39.8 0-20.2 4-38.1 12.1-53.7 7.9-15.6 18.7-28.4 32.6-38.5 13.6-9.9 29.7-17.6 48.2-22.9 18.3-5.1 37.8-7.7 58.5-7.7 31 0 59.4 5.1 84.7 15.2 25.3 10.1 45.5 23.5 61.2 40l-25.5 31c-15.2-15.6-33.4-27.3-54.8-35-21.3-7.7-43.8-11.7-67.1-11.7-13.9 0-26.8 1.3-38.7 4.2-12.1 2.9-22.4 7.5-31.5 13.6-9 6.4-16.3 14.3-21.3 23.8-5.3 9.5-7.9 20.7-7.9 33.7 0 10.8 1.8 19.6 5.5 26.4 3.7 6.8 9.7 12.5 18 17.4 8.1 5.1 18.7 9.5 31.2 13.2 12.5 4 27.9 7.9 46.2 12.1 25.7 6.4 48.6 12.5 68.2 18.7 19.6 6.2 36.1 13.4 49.3 21.6 13.2 8.4 23.1 18.5 29.9 30.4 6.8 12.1 10.1 26.6 10.1 43.6 0 37.2-14.3 66.7-42.7 88.4-28.4 21.8-66.7 32.6-114.8 32.6zm370.3 0c-44 0-76.8-14.5-98.1-43.8-21.6-29.3-32.3-72.8-32.3-130.7l0-237.6 52.8 0 0 228.1c0 91.7 31.2 137.5 93.9 137.5 15.6 0 30.8-2.6 45.8-7.9 15-5.1 28.8-12.5 41.6-22.4 12.5-9.9 24-21.6 34.1-35 10.1-13.4 18.3-28.6 24.4-45.8l0-254.5 52.8 0 0 336.2c0 14.3 6.2 21.6 18.5 21.6l0 46.6c-6.2 1.1-11.2 1.5-15 1.5-4 0-6.6 0-8.1 0-12.5-0.4-22.7-4.8-30.4-13.2-7.7-8.1-11.7-19.4-11.7-33.4l0-46.4c-17.6 31.5-41.6 55.9-71.7 73.3-30.4 17.4-62.5 26-96.6 26zm541 0c-34.1 0-64.2-8.6-90.4-26-26.2-17.4-47.3-39.2-63.4-65.6l0 249-52.6 0 0-569.6 47.3 0 0 78.3c16.5-25.3 38.1-46 64.5-61.8 26.4-15.6 55-23.5 86-23.5 27.9 0 53.7 5.7 77 17.4 23.1 11.7 43.3 27.3 60.5 46.6 16.9 19.6 30.4 41.8 40 67.1 9.5 25.3 14.3 51.5 14.3 78.5 0 28.4-4.4 55.4-13.2 80.7-8.8 25.3-21.3 47.5-37.6 66.7-16.5 19.1-35.9 34.3-58.3 45.3-22.7 11.2-47.3 16.7-74.1 16.7zm-14.7-46.4c21.8 0 41.6-4.6 59.4-14.1 17.8-9.2 33.2-21.6 45.8-37 12.5-15.2 22.2-32.6 29-51.9 6.8-19.4 10.1-39.4 10.1-60.1 0-21.8-4-42.5-11.7-62.3-7.7-19.6-18.3-37-31.7-51.9-13.4-15-29.5-26.8-47.7-35.6-18.5-8.8-38.3-13.2-59.4-13.2-13.4 0-27.5 2.6-42.2 8.1-14.7 5.5-28.6 12.5-41.1 21.6-12.8 9-23.5 19.8-32.6 31.9-9 12.1-14.7 25.1-16.9 38.5l0 124.1c6.4 14.5 14.3 27.9 23.8 40.5 9.5 12.5 20.5 23.1 32.6 32.1 12.1 9 25.3 16.3 39.4 21.3 13.9 5.3 28.4 7.9 43.3 7.9zm461.8 46.4c-29.5 0-56.5-5.5-81-16.7-24.6-11-46-26.2-64-45.8-18.3-19.4-32.3-41.8-42.2-67.1-10.1-25.3-15.2-52.6-15.2-81.4 0-28.4 5.1-55.2 15.2-80.5 9.9-25.1 24-47.1 41.8-66 17.8-18.7 39.2-33.7 64-44.9 24.9-11.2 51.7-16.7 80.7-16.7 29.5 0 56.5 5.5 81.2 16.7 24.4 11.2 45.5 26.2 63.1 45.3 17.6 19.1 31.2 41.1 41.1 66 9.9 24.9 14.7 51.3 14.7 79.2 0 4.2 0 8.1 0 12.3 0 4.2-0.2 7-0.9 8.6l-346.1 0c1.5 21.8 6.6 42 15.2 60.3 8.6 18.3 19.6 34.3 33 47.7 13.4 13.4 28.8 24 46.2 31.5 17.4 7.5 35.9 11.2 55.4 11.2 13 0 26-1.8 38.9-5.5 13-3.7 24.9-8.6 35.6-14.7 10.8-6.2 20.7-13.9 29.5-22.9 8.8-9 15.4-19.1 20-29.9l46 12.5c-6.4 15-15.2 28.6-26.4 40.7-11.4 12.1-24.6 22.7-39.6 31.7-15.2 9-31.7 16.1-49.7 21.1-18.3 4.8-37.2 7.3-56.8 7.3zm149.2-231.2c-1.5-21.8-6.6-41.6-15.2-59.4-8.6-17.8-19.4-33.2-32.6-46.2-13.2-13-28.4-23.1-45.8-30.4-17.4-7.3-36.1-10.8-55.7-10.8-19.6 0-38.3 3.5-55.9 10.8-17.6 7.3-33 17.4-46.2 30.4-13.2 13-23.8 28.4-31.7 46.4-8.1 18.3-12.8 37.8-14.3 59.2l297.2 0zm333.7-134.2c-35.9 1.1-66.9 10.8-93.1 29.5-26.4 18.7-45.1 44.2-56.1 76.8l0 251.5-52.6 0 0-404.4 49.5 0 0 97c15.2-31 35.4-55.4 60.7-73 25.3-17.6 52.4-26.4 81.4-26.4 4.2 0 7.5 0.2 10.1 0.9l0 48.2zm456.3 365.4c-34.1 0-64.2-8.6-90.4-26-26.2-17.4-47.3-39.2-63.4-65.6l0 249-52.6 0 0-569.6 47.3 0 0 78.3c16.5-25.3 38.1-46 64.5-61.8 26.4-15.6 55-23.5 86-23.5 27.9 0 53.7 5.7 77 17.4 23.1 11.7 43.3 27.3 60.5 46.6 16.9 19.6 30.4 41.8 40 67.1 9.5 25.3 14.3 51.5 14.3 78.5 0 28.4-4.4 55.4-13.2 80.7-8.8 25.3-21.3 47.5-37.6 66.7-16.5 19.1-35.9 34.3-58.3 45.3-22.7 11.2-47.3 16.7-74.1 16.7zm-14.7-46.4c21.8 0 41.6-4.6 59.4-14.1 17.8-9.2 33.2-21.6 45.8-37 12.5-15.2 22.2-32.6 29-51.9 6.8-19.4 10.1-39.4 10.1-60.1 0-21.8-4-42.5-11.7-62.3-7.7-19.6-18.3-37-31.7-51.9-13.4-15-29.5-26.8-47.7-35.6-18.5-8.8-38.3-13.2-59.4-13.2-13.4 0-27.5 2.6-42.2 8.1-14.7 5.5-28.6 12.5-41.1 21.6-12.8 9-23.5 19.8-32.6 31.9-9 12.1-14.7 25.1-16.9 38.5l0 124.1c6.4 14.5 14.3 27.9 23.8 40.5 9.5 12.5 20.5 23.1 32.6 32.1 12.1 9 25.3 16.3 39.4 21.3 13.9 5.3 28.4 7.9 43.3 7.9zm459.6 46.4c-29.5 0-56.3-5.5-80.7-16.7-24.4-11-45.3-26.2-63.1-45.3-17.8-19.1-31.7-41.4-41.6-66.7-9.9-25.3-14.7-52.1-14.7-80.1 0-28.4 5.1-55.4 15.2-80.7 9.9-25.3 24-47.5 41.8-66.7 17.8-19.1 38.9-34.5 63.4-46 24.2-11.2 50.8-16.9 79.9-16.9 28.8 0 55.7 5.7 80.3 16.9 24.4 11.4 45.8 26.8 63.6 46 17.8 19.1 31.9 41.4 42 66.7 9.9 25.3 15 52.4 15 80.7 0 27.9-4.8 54.8-14.7 80.1-9.9 25.3-23.5 47.5-41.4 66.7-17.8 19.1-39.2 34.3-63.6 45.3-24.6 11.2-51.7 16.7-81.2 16.7zm-146.7-207.9c0 22.7 4 43.8 11.7 63.1 7.7 19.6 18.3 36.5 31.5 51.3 13.2 14.7 28.8 26.4 46.6 34.5 17.8 8.4 36.7 12.5 57 12.5 20 0 39.2-4.4 57-13 17.8-8.6 33.7-20.2 47.1-35 13.4-14.7 24-31.9 31.7-51.5 7.7-19.6 11.7-40.9 11.7-63.6 0-22.2-4-43.3-11.7-63.4-7.7-20-18.3-37.4-31.7-52.1-13.4-14.7-29.3-26.2-47.1-34.8-17.8-8.6-37-12.8-57-12.8-20.2 0-39.2 4.2-56.8 12.8-17.6 8.6-33 20.2-46.4 35.2-13.4 15.2-24.2 32.6-31.9 52.6-7.7 20-11.7 41.4-11.7 64zm602.4 207.9c-27.9 0-53.9-5.7-77.7-17.4-24-11.7-44.4-27.1-61.4-46.2-16.9-19.1-30.4-41.4-39.8-66.4-9.7-25.1-14.5-51.3-14.5-78.8 0-28.4 4.6-55.4 14.1-81.2 9.2-25.5 22-48 38.3-67.1 16.3-19.1 35.6-34.1 58.3-45.3 22.4-11.2 47.1-16.7 74.1-16.7 34.1 0 64.5 9 90.9 26.8 26.2 17.8 46.9 39.6 62 64.9l0-246.8 52.8 0 0 498.3c0 14.3 6.2 21.6 18.5 21.6l0 46.6c-7.7 1.5-13.9 2.4-18.5 2.4-12.5 0-23.3-4-32.6-12.1-9.5-8.1-14.1-17.8-14.1-29l0-39.6c-16.1 26.4-37.6 47.3-65.1 62.7-27.5 15.6-55.9 23.3-85.4 23.3zm11.4-46.4c13 0 27.1-2.6 41.8-7.9 14.7-5.1 28.4-12.3 41.4-21.3 13-9 24-19.6 33-31.7 9-12.1 14.7-25.3 16.7-39.2l0-125c-5.3-14.1-12.8-27.3-22.7-39.4-9.9-12.1-21.1-22.9-33.7-32.3-12.5-9.2-26.2-16.5-40.7-21.6-14.5-5.1-28.8-7.7-42.7-7.7-21.8 0-41.4 4.6-59 13.9-17.6 9.5-32.8 21.8-45.3 37-12.8 15.2-22.4 32.8-29.3 52.4-6.8 19.6-10.1 39.8-10.1 60.5 0 21.8 4 42.5 11.7 62 7.7 19.8 18.5 37 31.9 51.7 13.4 14.7 29.3 26.6 47.7 35.4 18.3 8.8 38.1 13.2 59.2 13.2zm479.6 46.4c-29.5 0-56.5-5.5-81-16.7-24.6-11-46-26.2-64-45.8-18.3-19.4-32.3-41.8-42.2-67.1-10.1-25.3-15.2-52.6-15.2-81.4 0-28.4 5.1-55.2 15.2-80.5 9.9-25.1 24-47.1 41.8-66 17.8-18.7 39.2-33.7 64-44.9 24.9-11.2 51.7-16.7 80.7-16.7 29.5 0 56.5 5.5 81.2 16.7 24.4 11.2 45.5 26.2 63.1 45.3 17.6 19.1 31.2 41.1 41.1 66 9.9 24.9 14.7 51.3 14.7 79.2 0 4.2 0 8.1 0 12.3 0 4.2-0.2 7-0.9 8.6l-346.1 0c1.5 21.8 6.6 42 15.2 60.3 8.6 18.3 19.6 34.3 33 47.7 13.4 13.4 28.8 24 46.2 31.5 17.4 7.5 35.9 11.2 55.4 11.2 13 0 26-1.8 38.9-5.5 13-3.7 24.9-8.6 35.6-14.7 10.8-6.2 20.7-13.9 29.5-22.9 8.8-9 15.4-19.1 20-29.9l46 12.5c-6.4 15-15.2 28.6-26.4 40.7-11.4 12.1-24.6 22.7-39.6 31.7-15.2 9-31.7 16.1-49.7 21.1-18.3 4.8-37.2 7.3-56.8 7.3zm149.2-231.2c-1.5-21.8-6.6-41.6-15.2-59.4-8.6-17.8-19.4-33.2-32.6-46.2-13.2-13-28.4-23.1-45.8-30.4-17.4-7.3-36.1-10.8-55.7-10.8-19.6 0-38.3 3.5-55.9 10.8-17.6 7.3-33 17.4-46.2 30.4-13.2 13-23.8 28.4-31.7 46.4-8.1 18.3-12.8 37.8-14.3 59.2l297.2 0zm333.7-134.2c-35.9 1.1-66.9 10.8-93.1 29.5-26.4 18.7-45.1 44.2-56.1 76.8l0 251.5-52.6 0 0-404.4 49.5 0 0 97c15.2-31 35.4-55.4 60.7-73 25.3-17.6 52.4-26.4 81.4-26.4 4.2 0 7.5 0.2 10.1 0.9l0 48.2zm224.9 365.4c-29.5 0-56.5-5.5-81-16.7-24.6-11-46-26.2-64-45.8-18.3-19.4-32.3-41.8-42.2-67.1-10.1-25.3-15.2-52.6-15.2-81.4 0-28.4 5.1-55.2 15.2-80.5 9.9-25.1 24-47.1 41.8-66 17.8-18.7 39.2-33.7 64-44.9 24.9-11.2 51.7-16.7 80.7-16.7 29.5 0 56.5 5.5 81.2 16.7 24.4 11.2 45.5 26.2 63.1 45.3 17.6 19.1 31.2 41.1 41.1 66 9.9 24.9 14.7 51.3 14.7 79.2 0 4.2 0 8.1 0 12.3 0 4.2-0.2 7-0.9 8.6l-346.1 0c1.5 21.8 6.6 42 15.2 60.3 8.6 18.3 19.6 34.3 33 47.7 13.4 13.4 28.8 24 46.2 31.5 17.4 7.5 35.9 11.2 55.4 11.2 13 0 26-1.8 38.9-5.5 13-3.7 24.9-8.6 35.6-14.7 10.8-6.2 20.7-13.9 29.5-22.9 8.8-9 15.4-19.1 20-29.9l46 12.5c-6.4 15-15.2 28.6-26.4 40.7-11.4 12.1-24.6 22.7-39.6 31.7-15.2 9-31.7 16.1-49.7 21.1-18.3 4.8-37.2 7.3-56.8 7.3zm149.2-231.2c-1.5-21.8-6.6-41.6-15.2-59.4-8.6-17.8-19.4-33.2-32.6-46.2-13.2-13-28.4-23.1-45.8-30.4-17.4-7.3-36.1-10.8-55.7-10.8-19.6 0-38.3 3.5-55.9 10.8-17.6 7.3-33 17.4-46.2 30.4-13.2 13-23.8 28.4-31.7 46.4-8.1 18.3-12.8 37.8-14.3 59.2l297.2 0zm266.2 231.2c-31.5 0-62.3-5.3-92.4-15.6-30.1-10.3-55.9-25.3-77.7-44.9l24.2-35.6c22.7 18.7 46 32.6 69.5 41.8 23.5 9.5 48.6 14.1 75.5 14.1 32.8 0 58.7-6.6 78.1-19.8 19.4-13.2 29-31.9 29-56.3 0-11.4-2.6-20.9-7.7-28.4-5.1-7.5-12.8-14.1-22.9-19.8-10.1-5.5-22.9-10.6-38.1-15-15.2-4.4-33-9-53.2-13.6-23.1-5.7-43.3-11.4-60.3-17.2-17.2-5.7-31.2-12.1-42.5-19.4-11.2-7.3-19.4-16.1-24.9-26.8-5.5-10.6-8.1-23.8-8.1-39.8 0-20.2 4-38.1 12.1-53.7 7.9-15.6 18.7-28.4 32.6-38.5 13.6-9.9 29.7-17.6 48.2-22.9 18.3-5.1 37.8-7.7 58.5-7.7 31 0 59.4 5.1 84.7 15.2 25.3 10.1 45.5 23.5 61.2 40l-25.5 31c-15.2-15.6-33.4-27.3-54.8-35-21.3-7.7-43.8-11.7-67.1-11.7-13.9 0-26.8 1.3-38.7 4.2-12.1 2.9-22.4 7.5-31.5 13.6-9 6.4-16.3 14.3-21.3 23.8-5.3 9.5-7.9 20.7-7.9 33.7 0 10.8 1.8 19.6 5.5 26.4 3.7 6.8 9.7 12.5 18 17.4 8.1 5.1 18.7 9.5 31.2 13.2 12.5 4 27.9 7.9 46.2 12.1 25.7 6.4 48.6 12.5 68.2 18.7 19.6 6.2 36.1 13.4 49.3 21.6 13.2 8.4 23.1 18.5 29.9 30.4 6.8 12.1 10.1 26.6 10.1 43.6 0 37.2-14.3 66.7-42.7 88.4-28.4 21.8-66.7 32.6-114.8 32.6zm648.1 0c-34.1 0-64.2-8.6-90.4-26-26.2-17.4-47.3-39.2-63.4-65.6l0 249-52.6 0 0-569.6 47.3 0 0 78.3c16.5-25.3 38.1-46 64.5-61.8 26.4-15.6 55-23.5 86-23.5 27.9 0 53.7 5.7 77 17.4 23.1 11.7 43.3 27.3 60.5 46.6 16.9 19.6 30.4 41.8 40 67.1 9.5 25.3 14.3 51.5 14.3 78.5 0 28.4-4.4 55.4-13.2 80.7-8.8 25.3-21.3 47.5-37.6 66.7-16.5 19.1-35.9 34.3-58.3 45.3-22.7 11.2-47.3 16.7-74.1 16.7zm-14.7-46.4c21.8 0 41.6-4.6 59.4-14.1 17.8-9.2 33.2-21.6 45.8-37 12.5-15.2 22.2-32.6 29-51.9 6.8-19.4 10.1-39.4 10.1-60.1 0-21.8-4-42.5-11.7-62.3-7.7-19.6-18.3-37-31.7-51.9-13.4-15-29.5-26.8-47.7-35.6-18.5-8.8-38.3-13.2-59.4-13.2-13.4 0-27.5 2.6-42.2 8.1-14.7 5.5-28.6 12.5-41.1 21.6-12.8 9-23.5 19.8-32.6 31.9-9 12.1-14.7 25.1-16.9 38.5l0 124.1c6.4 14.5 14.3 27.9 23.8 40.5 9.5 12.5 20.5 23.1 32.6 32.1 12.1 9 25.3 16.3 39.4 21.3 13.9 5.3 28.4 7.9 43.3 7.9zm389 46.4c-19.1 0-37-3.3-53.2-9.7-16.3-6.4-30.6-15.4-42.7-26.8-12.1-11.2-21.6-24.6-28.4-39.8-6.8-15.2-10.1-31.7-10.1-49.3 0-17.6 4.2-33.9 12.5-49.1 8.1-15 19.8-27.9 35-38.7 15-10.8 32.8-19.4 53.5-25.3 20.7-5.9 43.3-8.8 68.2-8.8 20.9 0 41.8 1.8 63.1 5.3 21.1 3.7 40 8.8 56.5 15.6l0-36.5c0-35.6-10.1-64-30.1-84.9-20.2-20.9-48.2-31.5-84-31.5-20.7 0-41.8 4.2-63.6 12.3-21.8 8.4-43.8 20.2-66 35.9l-18.7-35c52.4-35.2 103.2-52.8 152.2-52.8 50.8 0 90.6 14.3 119.7 42.7 28.8 28.4 43.3 67.8 43.3 118.1l0 182.4c0 14.3 6.4 21.6 19.4 21.6l0 46.6c-8.8 1.5-15.6 2.4-20.2 2.4-13.4 0-24-3.3-31.5-10.1-7.5-6.8-11.4-16.1-11.9-27.9l-1.5-31.9c-18.7 24.4-42 42.9-70.2 55.9-28.4 13-58.7 19.4-91.3 19.4zm12.3-40.3c27.5 0 52.6-5.3 75.7-15.6 23.1-10.3 40.5-24 52.4-41.1 4.6-4.6 8.1-9.7 10.6-15.2 2.4-5.5 3.5-10.3 3.5-15l0-66c-17.6-6.8-35.9-11.9-54.8-15.6-18.9-3.5-38.3-5.3-57.9-5.3-37.2 0-67.5 7.7-90.6 23.1-23.3 15.6-35 36.1-35 61.4 0 12.5 2.4 24.2 7.5 35 4.8 10.8 11.4 20.2 20 28.2 8.6 8.1 18.7 14.5 30.6 19.1 11.9 4.6 24.6 7 38.1 7zm510.8-325.2c-35.9 1.1-66.9 10.8-93.1 29.5-26.4 18.7-45.1 44.2-56.1 76.8l0 251.5-52.6 0 0-404.4 49.5 0 0 97c15.2-31 35.4-55.4 60.7-73 25.3-17.6 52.4-26.4 81.4-26.4 4.2 0 7.5 0.2 10.1 0.9l0 48.2zm166.8 365.4c-19.1 0-37-3.3-53.2-9.7-16.3-6.4-30.6-15.4-42.7-26.8-12.1-11.2-21.6-24.6-28.4-39.8-6.8-15.2-10.1-31.7-10.1-49.3 0-17.6 4.2-33.9 12.5-49.1 8.1-15 19.8-27.9 35-38.7 15-10.8 32.8-19.4 53.5-25.3 20.7-5.9 43.3-8.8 68.2-8.8 20.9 0 41.8 1.8 63.1 5.3 21.1 3.7 40 8.8 56.5 15.6l0-36.5c0-35.6-10.1-64-30.1-84.9-20.2-20.9-48.2-31.5-84-31.5-20.7 0-41.8 4.2-63.6 12.3-21.8 8.4-43.8 20.2-66 35.9l-18.7-35c52.4-35.2 103.2-52.8 152.2-52.8 50.8 0 90.6 14.3 119.7 42.7 28.8 28.4 43.3 67.8 43.3 118.1l0 182.4c0 14.3 6.4 21.6 19.4 21.6l0 46.6c-8.8 1.5-15.6 2.4-20.2 2.4-13.4 0-24-3.3-31.5-10.1-7.5-6.8-11.4-16.1-11.9-27.9l-1.5-31.9c-18.7 24.4-42 42.9-70.2 55.9-28.4 13-58.7 19.4-91.3 19.4zm12.3-40.3c27.5 0 52.6-5.3 75.7-15.6 23.1-10.3 40.5-24 52.4-41.1 4.6-4.6 8.1-9.7 10.6-15.2 2.4-5.5 3.5-10.3 3.5-15l0-66c-17.6-6.8-35.9-11.9-54.8-15.6-18.9-3.5-38.3-5.3-57.9-5.3-37.2 0-67.5 7.7-90.6 23.1-23.3 15.6-35 36.1-35 61.4 0 12.5 2.4 24.2 7.5 35 4.8 10.8 11.4 20.2 20 28.2 8.6 8.1 18.7 14.5 30.6 19.1 11.9 4.6 24.6 7 38.1 7zm847 32.6l-52.8 0 0-225.9c0-48.2-7-82.9-21.3-104.7-14.3-21.8-36.1-32.6-65.6-32.6-15.6 0-31 2.9-46.6 8.6-15.6 5.7-29.9 13.6-43.1 24-13.2 10.3-24.9 22.7-35.2 37-10.3 14.3-18 29.7-22.7 46.2l0 247.5-52.6 0 0-404.4 48 0 0 91.5c16.5-29.5 40.3-53.2 71.1-71.5 30.8-18 64.2-27.1 100.5-27.1 22.2 0 41.1 4.2 56.8 12.3 15.4 8.4 27.7 20 37.2 35 9.2 15.2 16.1 33.4 20.2 55.2 4.2 21.8 6.2 45.8 6.2 72.2l0 236.7zm284.9 7.7c-29.5 0-56.3-5.5-80.7-16.7-24.4-11-45.3-26.2-63.1-45.3-17.8-19.1-31.7-41.4-41.6-66.7-9.9-25.3-14.7-52.1-14.7-80.1 0-28.4 5.1-55.4 15.2-80.7 9.9-25.3 24-47.5 41.8-66.7 17.8-19.1 38.9-34.5 63.4-46 24.2-11.2 50.8-16.9 79.9-16.9 28.8 0 55.7 5.7 80.3 16.9 24.4 11.4 45.8 26.8 63.6 46 17.8 19.1 31.9 41.4 42 66.7 9.9 25.3 15 52.4 15 80.7 0 27.9-4.8 54.8-14.7 80.1-9.9 25.3-23.5 47.5-41.4 66.7-17.8 19.1-39.2 34.3-63.6 45.3-24.6 11.2-51.7 16.7-81.2 16.7zm-146.7-207.9c0 22.7 4 43.8 11.7 63.1 7.7 19.6 18.3 36.5 31.5 51.3 13.2 14.7 28.8 26.4 46.6 34.5 17.8 8.4 36.7 12.5 57 12.5 20 0 39.2-4.4 57-13 17.8-8.6 33.7-20.2 47.1-35 13.4-14.7 24-31.9 31.7-51.5 7.7-19.6 11.7-40.9 11.7-63.6 0-22.2-4-43.3-11.7-63.4-7.7-20-18.3-37.4-31.7-52.1-13.4-14.7-29.3-26.2-47.1-34.8-17.8-8.6-37-12.8-57-12.8-20.2 0-39.2 4.2-56.8 12.8-17.6 8.6-33 20.2-46.4 35.2-13.4 15.2-24.2 32.6-31.9 52.6-7.7 20-11.7 41.4-11.7 64zm570.5 207.9c-31.5 0-62.3-5.3-92.4-15.6-30.1-10.3-55.9-25.3-77.7-44.9l24.2-35.6c22.7 18.7 46 32.6 69.5 41.8 23.5 9.5 48.6 14.1 75.5 14.1 32.8 0 58.7-6.6 78.1-19.8 19.4-13.2 29-31.9 29-56.3 0-11.4-2.6-20.9-7.7-28.4-5.1-7.5-12.8-14.1-22.9-19.8-10.1-5.5-22.9-10.6-38.1-15-15.2-4.4-33-9-53.2-13.6-23.1-5.7-43.3-11.4-60.3-17.2-17.2-5.7-31.2-12.1-42.5-19.4-11.2-7.3-19.4-16.1-24.9-26.8-5.5-10.6-8.1-23.8-8.1-39.8 0-20.2 4-38.1 12.1-53.7 7.9-15.6 18.7-28.4 32.6-38.5 13.6-9.9 29.7-17.6 48.2-22.9 18.3-5.1 37.8-7.7 58.5-7.7 31 0 59.4 5.1 84.7 15.2 25.3 10.1 45.5 23.5 61.2 40l-25.5 31c-15.2-15.6-33.4-27.3-54.8-35-21.3-7.7-43.8-11.7-67.1-11.7-13.9 0-26.8 1.3-38.7 4.2-12.1 2.9-22.4 7.5-31.5 13.6-9 6.4-16.3 14.3-21.3 23.8-5.3 9.5-7.9 20.7-7.9 33.7 0 10.8 1.8 19.6 5.5 26.4 3.7 6.8 9.7 12.5 18 17.4 8.1 5.1 18.7 9.5 31.2 13.2 12.5 4 27.9 7.9 46.2 12.1 25.7 6.4 48.6 12.5 68.2 18.7 19.6 6.2 36.1 13.4 49.3 21.6 13.2 8.4 23.1 18.5 29.9 30.4 6.8 12.1 10.1 26.6 10.1 43.6 0 37.2-14.3 66.7-42.7 88.4-28.4 21.8-66.7 32.6-114.8 32.6zm648.1 0c-34.1 0-64.2-8.6-90.4-26-26.2-17.4-47.3-39.2-63.4-65.6l0 249-52.6 0 0-569.6 47.3 0 0 78.3c16.5-25.3 38.1-46 64.5-61.8 26.4-15.6 55-23.5 86-23.5 27.9 0 53.7 5.7 77 17.4 23.1 11.7 43.3 27.3 60.5 46.6 16.9 19.6 30.4 41.8 40 67.1 9.5 25.3 14.3 51.5 14.3 78.5 0 28.4-4.4 55.4-13.2 80.7-8.8 25.3-21.3 47.5-37.6 66.7-16.5 19.1-35.9 34.3-58.3 45.3-22.7 11.2-47.3 16.7-74.1 16.7zm-14.7-46.4c21.8 0 41.6-4.6 59.4-14.1 17.8-9.2 33.2-21.6 45.8-37 12.5-15.2 22.2-32.6 29-51.9 6.8-19.4 10.1-39.4 10.1-60.1 0-21.8-4-42.5-11.7-62.3-7.7-19.6-18.3-37-31.7-51.9-13.4-15-29.5-26.8-47.7-35.6-18.5-8.8-38.3-13.2-59.4-13.2-13.4 0-27.5 2.6-42.2 8.1-14.7 5.5-28.6 12.5-41.1 21.6-12.8 9-23.5 19.8-32.6 31.9-9 12.1-14.7 25.1-16.9 38.5l0 124.1c6.4 14.5 14.3 27.9 23.8 40.5 9.5 12.5 20.5 23.1 32.6 32.1 12.1 9 25.3 16.3 39.4 21.3 13.9 5.3 28.4 7.9 43.3 7.9zm489.1-319c-35.9 1.1-66.9 10.8-93.1 29.5-26.4 18.7-45.1 44.2-56.1 76.8l0 251.5-52.6 0 0-404.4 49.5 0 0 97c15.2-31 35.4-55.4 60.7-73 25.3-17.6 52.4-26.4 81.4-26.4 4.2 0 7.5 0.2 10.1 0.9l0 48.2zm222.6 365.4c-29.5 0-56.3-5.5-80.7-16.7-24.4-11-45.3-26.2-63.1-45.3-17.8-19.1-31.7-41.4-41.6-66.7-9.9-25.3-14.7-52.1-14.7-80.1 0-28.4 5.1-55.4 15.2-80.7 9.9-25.3 24-47.5 41.8-66.7 17.8-19.1 38.9-34.5 63.4-46 24.2-11.2 50.8-16.9 79.9-16.9 28.8 0 55.7 5.7 80.3 16.9 24.4 11.4 45.8 26.8 63.6 46 17.8 19.1 31.9 41.4 42 66.7 9.9 25.3 15 52.4 15 80.7 0 27.9-4.8 54.8-14.7 80.1-9.9 25.3-23.5 47.5-41.4 66.7-17.8 19.1-39.2 34.3-63.6 45.3-24.6 11.2-51.7 16.7-81.2 16.7zm-146.7-207.9c0 22.7 4 43.8 11.7 63.1 7.7 19.6 18.3 36.5 31.5 51.3 13.2 14.7 28.8 26.4 46.6 34.5 17.8 8.4 36.7 12.5 57 12.5 20 0 39.2-4.4 57-13 17.8-8.6 33.7-20.2 47.1-35 13.4-14.7 24-31.9 31.7-51.5 7.7-19.6 11.7-40.9 11.7-63.6 0-22.2-4-43.3-11.7-63.4-7.7-20-18.3-37.4-31.7-52.1-13.4-14.7-29.3-26.2-47.1-34.8-17.8-8.6-37-12.8-57-12.8-20.2 0-39.2 4.2-56.8 12.8-17.6 8.6-33 20.2-46.4 35.2-13.4 15.2-24.2 32.6-31.9 52.6-7.7 20-11.7 41.4-11.7 64zm624.9 180.8c-3.3 1.5-7.7 3.5-13.6 6.2-5.9 2.6-13 5.3-20.7 7.7-7.7 2.6-16.5 5.1-26.4 7-9.9 2-20.2 3.1-31 3.1-11.2 0-22-1.5-32.3-4.6-10.3-3.1-19.6-7.9-27.3-14.3-7.7-6.4-14.1-14.5-18.7-24.4-4.6-9.9-7-21.3-7-34.3l0-289.3-55.9 0 0-42 55.9 0 0-136.6 52.8 0 0 136.6 93.1 0 0 42-93.1 0 0 274.6c1.1 15.2 6.4 26.2 16.1 33 9.5 7 20.5 10.6 32.8 10.6 15.2 0 28.4-2.4 39.8-7.5 11.2-4.8 18.5-8.4 21.6-10.3l14.1 42.7zm230.4 27.1c-29.5 0-56.5-5.5-81-16.7-24.6-11-46-26.2-64-45.8-18.3-19.4-32.3-41.8-42.2-67.1-10.1-25.3-15.2-52.6-15.2-81.4 0-28.4 5.1-55.2 15.2-80.5 9.9-25.1 24-47.1 41.8-66 17.8-18.7 39.2-33.7 64-44.9 24.9-11.2 51.7-16.7 80.7-16.7 29.5 0 56.5 5.5 81.2 16.7 24.4 11.2 45.5 26.2 63.1 45.3 17.6 19.1 31.2 41.1 41.1 66 9.9 24.9 14.7 51.3 14.7 79.2 0 4.2 0 8.1 0 12.3 0 4.2-0.2 7-0.9 8.6l-346.1 0c1.5 21.8 6.6 42 15.2 60.3 8.6 18.3 19.6 34.3 33 47.7 13.4 13.4 28.8 24 46.2 31.5 17.4 7.5 35.9 11.2 55.4 11.2 13 0 26-1.8 38.9-5.5 13-3.7 24.9-8.6 35.6-14.7 10.8-6.2 20.7-13.9 29.5-22.9 8.8-9 15.4-19.1 20-29.9l46 12.5c-6.4 15-15.2 28.6-26.4 40.7-11.4 12.1-24.6 22.7-39.6 31.7-15.2 9-31.7 16.1-49.7 21.1-18.3 4.8-37.2 7.3-56.8 7.3zm149.2-231.2c-1.5-21.8-6.6-41.6-15.2-59.4-8.6-17.8-19.4-33.2-32.6-46.2-13.2-13-28.4-23.1-45.8-30.4-17.4-7.3-36.1-10.8-55.7-10.8-19.6 0-38.3 3.5-55.9 10.8-17.6 7.3-33 17.4-46.2 30.4-13.2 13-23.8 28.4-31.7 46.4-8.1 18.3-12.8 37.8-14.3 59.2l297.2 0zm294.1 229c-27.9 0-53.5-5.9-76.6-17.6-23.1-11.7-42.9-27.1-59.6-46.2-16.9-19.1-29.9-41.1-39.2-66-9.5-24.9-14.1-50.4-14.1-76.8 0-27.9 4.6-54.6 13.6-80.3 9-25.5 22-48 38.5-67.1 16.5-19.1 36.1-34.5 59.2-46 23.1-11.2 48.6-16.9 76.6-16.9 34.5 0 64.7 8.6 90 26 25.3 17.4 47.1 39.4 65.1 65.8l0-84.7 47.5 0 0 405.9c0 27.9-5.3 52.8-15.8 74.1-10.8 21.3-24.9 39.4-42.7 53.9-17.8 14.5-38.9 25.5-62.9 32.8-24.2 7.3-49.7 10.8-76.6 10.8-46.4 0-84-8.4-112.4-24.9-28.6-16.5-51.7-38.9-69.1-66.9l32.6-25.5c16.1 25.7 37.2 44.9 63.6 57 26.4 12.1 54.8 18.3 85.4 18.3 19.6 0 38.3-2.6 55.9-8.1 17.6-5.5 33-13.4 46.2-24 13.2-10.8 23.8-24.2 31.5-40.5 7.7-16.3 11.7-35.2 11.7-57l0-79.9c-15.6 25.7-36.7 46.2-63.6 61.2-27.1 15.2-55.2 22.7-84.7 22.7zm14.7-44.2c15.6 0 30.8-2.9 45.8-8.6 15-5.7 28.6-13.4 40.7-23.1 12.1-9.5 22.4-20.2 30.8-32.1 8.1-11.9 13.6-24 16.3-36.3l0-125c-5.7-14.5-13.4-27.9-23.3-40.5-9.9-12.5-20.9-23.1-33.2-31.9-12.5-8.8-25.7-15.8-40-20.9-14.3-5.1-28.8-7.7-43.1-7.7-22.9 0-43.1 4.8-60.9 14.3-17.8 9.5-33 22-45.3 37.6-12.5 15.6-22 33.2-28.4 52.8-6.4 19.6-9.7 39.6-9.7 59.8 0 21.8 4 42.5 11.7 62 7.7 19.6 18.3 36.7 32.1 51.5 13.6 14.7 29.5 26.4 47.7 35 18 8.6 37.6 13 59 13zm477.2 46.4c-29.5 0-56.5-5.5-81-16.7-24.6-11-46-26.2-64-45.8-18.3-19.4-32.3-41.8-42.2-67.1-10.1-25.3-15.2-52.6-15.2-81.4 0-28.4 5.1-55.2 15.2-80.5 9.9-25.1 24-47.1 41.8-66 17.8-18.7 39.2-33.7 64-44.9 24.9-11.2 51.7-16.7 80.7-16.7 29.5 0 56.5 5.5 81.2 16.7 24.4 11.2 45.5 26.2 63.1 45.3 17.6 19.1 31.2 41.1 41.1 66 9.9 24.9 14.7 51.3 14.7 79.2 0 4.2 0 8.1 0 12.3 0 4.2-0.2 7-0.9 8.6l-346.1 0c1.5 21.8 6.6 42 15.2 60.3 8.6 18.3 19.6 34.3 33 47.7 13.4 13.4 28.8 24 46.2 31.5 17.4 7.5 35.9 11.2 55.4 11.2 13 0 26-1.8 38.9-5.5 13-3.7 24.9-8.6 35.6-14.7 10.8-6.2 20.7-13.9 29.5-22.9 8.8-9 15.4-19.1 20-29.9l46 12.5c-6.4 15-15.2 28.6-26.4 40.7-11.4 12.1-24.6 22.7-39.6 31.7-15.2 9-31.7 16.1-49.7 21.1-18.3 4.8-37.2 7.3-56.8 7.3zm149.2-231.2c-1.5-21.8-6.6-41.6-15.2-59.4-8.6-17.8-19.4-33.2-32.6-46.2-13.2-13-28.4-23.1-45.8-30.4-17.4-7.3-36.1-10.8-55.7-10.8-19.6 0-38.3 3.5-55.9 10.8-17.6 7.3-33 17.4-46.2 30.4-13.2 13-23.8 28.4-31.7 46.4-8.1 18.3-12.8 37.8-14.3 59.2l297.2 0zm333.7-134.2c-35.9 1.1-66.9 10.8-93.1 29.5-26.4 18.7-45.1 44.2-56.1 76.8l0 251.5-52.6 0 0-404.4 49.5 0 0 97c15.2-31 35.4-55.4 60.7-73 25.3-17.6 52.4-26.4 81.4-26.4 4.2 0 7.5 0.2 10.1 0.9l0 48.2z"/><path class="fil0" d="M3898.4 11638.6c-29.5 0-56.5-5.5-81-16.7-24.6-11-46-26.2-64-45.8-18.3-19.4-32.3-41.8-42.2-67.1-10.1-25.3-15.2-52.6-15.2-81.4 0-28.4 5.1-55.2 15.2-80.5 9.9-25.1 24-47.1 41.8-66 17.8-18.7 39.2-33.7 64-44.9 24.9-11.2 51.7-16.7 80.7-16.7 29.5 0 56.5 5.5 81.2 16.7 24.4 11.2 45.5 26.2 63.1 45.3 17.6 19.1 31.2 41.1 41.1 66 9.9 24.9 14.7 51.3 14.7 79.2 0 4.2 0 8.1 0 12.3 0 4.2-0.2 7-0.9 8.6l-346.1 0c1.5 21.8 6.6 42 15.2 60.3 8.6 18.3 19.6 34.3 33 47.7 13.4 13.4 28.8 24 46.2 31.5 17.4 7.5 35.9 11.2 55.4 11.2 13 0 26-1.8 38.9-5.5 13-3.7 24.9-8.6 35.6-14.7 10.8-6.2 20.7-13.9 29.5-22.9 8.8-9 15.4-19.1 20-29.9l46 12.5c-6.4 15-15.2 28.6-26.4 40.7-11.4 12.1-24.6 22.7-39.6 31.7-15.2 9-31.7 16.1-49.7 21.1-18.3 4.8-37.2 7.3-56.8 7.3zm149.2-231.2c-1.5-21.8-6.6-41.6-15.2-59.4-8.6-17.8-19.4-33.2-32.6-46.2-13.2-13-28.4-23.1-45.8-30.4-17.4-7.3-36.1-10.8-55.7-10.8-19.6 0-38.3 3.5-55.9 10.8-17.6 7.3-33 17.4-46.2 30.4-13.2 13-23.8 28.4-31.7 46.4-8.1 18.3-12.8 37.8-14.3 59.2l297.2 0zm302.1 20.2c0-28.4 4.8-55.4 14.7-80.7 9.9-25.3 23.8-47.5 41.6-66.4 17.8-18.9 39.2-33.9 64-44.7 24.9-10.8 52.1-16.3 82.1-16.3 38.3 0 71.7 8.6 100.1 26 28.4 17.4 49.9 40.9 64.5 70.4l-51.3 16.3c-11.2-20.7-27.1-37-47.5-48.6-20.5-11.7-43.1-17.4-68-17.4-20.7 0-40 4.2-57.9 12.3-17.8 8.4-33.4 19.6-46.6 33.9-13.2 14.3-23.5 31.2-31 50.8-7.5 19.6-11.2 41.1-11.2 64.5 0 22.7 4 44.2 11.7 64.2 7.7 20.2 18.5 37.6 31.9 52.4 13.4 14.7 29 26.4 46.9 35 17.8 8.6 37 13 57 13 13 0 25.7-1.8 38.5-5.5 12.5-3.7 24.4-8.8 35.4-15.2 10.8-6.4 20.2-13.9 27.9-22.2 7.7-8.1 13-16.9 16.3-26.2l51.9 15.4c-5.7 14.5-14.1 27.9-24.9 40-10.8 12.1-23.5 22.7-38.3 31.7-14.7 9-31.2 16.1-49.1 21.1-17.8 4.8-36.3 7.3-55.4 7.3-29.5 0-56.5-5.5-81.4-16.7-24.9-11-46.4-26.2-64.5-45.8-18.3-19.4-32.3-41.8-42.2-67.1-10.1-25.3-15.2-52.6-15.2-81.4zm626.3 211c-29.5 0-56.3-5.5-80.7-16.7-24.4-11-45.3-26.2-63.1-45.3-17.8-19.1-31.7-41.4-41.6-66.7-9.9-25.3-14.7-52.1-14.7-80.1 0-28.4 5.1-55.4 15.2-80.7 9.9-25.3 24-47.5 41.8-66.7 17.8-19.1 38.9-34.5 63.4-46 24.2-11.2 50.8-16.9 79.9-16.9 28.8 0 55.7 5.7 80.3 16.9 24.4 11.4 45.8 26.8 63.6 46 17.8 19.1 31.9 41.4 42 66.7 9.9 25.3 15 52.4 15 80.7 0 27.9-4.8 54.8-14.7 80.1-9.9 25.3-23.5 47.5-41.4 66.7-17.8 19.1-39.2 34.3-63.6 45.3-24.6 11.2-51.7 16.7-81.2 16.7zm-146.7-207.9c0 22.7 4 43.8 11.7 63.1 7.7 19.6 18.3 36.5 31.5 51.3 13.2 14.7 28.8 26.4 46.6 34.5 17.8 8.4 36.7 12.5 57 12.5 20 0 39.2-4.4 57-13 17.8-8.6 33.7-20.2 47.1-35 13.4-14.7 24-31.9 31.7-51.5 7.7-19.6 11.7-40.9 11.7-63.6 0-22.2-4-43.3-11.7-63.4-7.7-20-18.3-37.4-31.7-52.1-13.4-14.7-29.3-26.2-47.1-34.8-17.8-8.6-37-12.8-57-12.8-20.2 0-39.2 4.2-56.8 12.8-17.6 8.6-33 20.2-46.4 35.2-13.4 15.2-24.2 32.6-31.9 52.6-7.7 20-11.7 41.4-11.7 64zm776.2 200.2l-52.8 0 0-225.9c0-48.2-7-82.9-21.3-104.7-14.3-21.8-36.1-32.6-65.6-32.6-15.6 0-31 2.9-46.6 8.6-15.6 5.7-29.9 13.6-43.1 24-13.2 10.3-24.9 22.7-35.2 37-10.3 14.3-18 29.7-22.7 46.2l0 247.5-52.6 0 0-404.4 48 0 0 91.5c16.5-29.5 40.3-53.2 71.1-71.5 30.8-18 64.2-27.1 100.5-27.1 22.2 0 41.1 4.2 56.8 12.3 15.4 8.4 27.7 20 37.2 35 9.2 15.2 16.1 33.4 20.2 55.2 4.2 21.8 6.2 45.8 6.2 72.2l0 236.7zm302.8-19.4c-3.3 1.5-7.7 3.5-13.6 6.2-5.9 2.6-13 5.3-20.7 7.7-7.7 2.6-16.5 5.1-26.4 7-9.9 2-20.2 3.1-31 3.1-11.2 0-22-1.5-32.3-4.6-10.3-3.1-19.6-7.9-27.3-14.3-7.7-6.4-14.1-14.5-18.7-24.4-4.6-9.9-7-21.3-7-34.3l0-289.3-55.9 0 0-42 55.9 0 0-136.6 52.8 0 0 136.6 93.1 0 0 42-93.1 0 0 274.6c1.1 15.2 6.4 26.2 16.1 33 9.5 7 20.5 10.6 32.8 10.6 15.2 0 28.4-2.4 39.8-7.5 11.2-4.8 18.5-8.4 21.6-10.3l14.1 42.7zm167.6 27.1c-19.1 0-37-3.3-53.2-9.7-16.3-6.4-30.6-15.4-42.7-26.8-12.1-11.2-21.6-24.6-28.4-39.8-6.8-15.2-10.1-31.7-10.1-49.3 0-17.6 4.2-33.9 12.5-49.1 8.1-15 19.8-27.9 35-38.7 15-10.8 32.8-19.4 53.5-25.3 20.7-5.9 43.3-8.8 68.2-8.8 20.9 0 41.8 1.8 63.1 5.3 21.1 3.7 40 8.8 56.5 15.6l0-36.5c0-35.6-10.1-64-30.1-84.9-20.2-20.9-48.2-31.5-84-31.5-20.7 0-41.8 4.2-63.6 12.3-21.8 8.4-43.8 20.2-66 35.9l-18.7-35c52.4-35.2 103.2-52.8 152.2-52.8 50.8 0 90.6 14.3 119.7 42.7 28.8 28.4 43.3 67.8 43.3 118.1l0 182.4c0 14.3 6.4 21.6 19.4 21.6l0 46.6c-8.8 1.5-15.6 2.4-20.2 2.4-13.4 0-24-3.3-31.5-10.1-7.5-6.8-11.4-16.1-11.9-27.9l-1.5-31.9c-18.7 24.4-42 42.9-70.2 55.9-28.4 13-58.7 19.4-91.3 19.4zm12.3-40.3c27.5 0 52.6-5.3 75.7-15.6 23.1-10.3 40.5-24 52.4-41.1 4.6-4.6 8.1-9.7 10.6-15.2 2.4-5.5 3.5-10.3 3.5-15l0-66c-17.6-6.8-35.9-11.9-54.8-15.6-18.9-3.5-38.3-5.3-57.9-5.3-37.2 0-67.5 7.7-90.6 23.1-23.3 15.6-35 36.1-35 61.4 0 12.5 2.4 24.2 7.5 35 4.8 10.8 11.4 20.2 20 28.2 8.6 8.1 18.7 14.5 30.6 19.1 11.9 4.6 24.6 7 38.1 7zm910.6 32.6l-52.8 0 0-225.9c0-47.1-7.5-81.8-22.4-104.1-15.2-22.2-37.4-33.2-66.9-33.2-15.6 0-30.1 2.9-43.8 8.6-13.9 5.7-26.4 13.6-38.1 24-11.7 10.3-22 22.7-30.6 37-8.8 14.3-15.6 29.9-20.2 46.9l0 246.8-52.8 0 0-225.9c0-48.2-7.3-82.9-21.8-104.7-14.5-21.8-36.7-32.6-66.7-32.6-30.6 0-57.6 10.6-81.4 31.7-24 21.3-41.1 49.3-51.5 84l0 247.5-52.6 0 0-404.4 48 0 0 91.5c16.5-31 38.3-55.2 65.3-72.6 26.8-17.4 56.5-26 89.1-26 34.1 0 61.6 9.5 82.1 28.6 20.5 19.1 33 44.4 37.6 75.5 37.6-69.3 89.8-104.1 156-104.1 22.7 0 42 4.2 57.9 12.3 15.6 8.4 28.4 20.2 38.1 35.4 9.5 15.2 16.5 33.7 20.9 55 4.4 21.6 6.6 45.5 6.6 71.9l0 236.7zm284 7.7c-29.5 0-56.3-5.5-80.7-16.7-24.4-11-45.3-26.2-63.1-45.3-17.8-19.1-31.7-41.4-41.6-66.7-9.9-25.3-14.7-52.1-14.7-80.1 0-28.4 5.1-55.4 15.2-80.7 9.9-25.3 24-47.5 41.8-66.7 17.8-19.1 38.9-34.5 63.4-46 24.2-11.2 50.8-16.9 79.9-16.9 28.8 0 55.7 5.7 80.3 16.9 24.4 11.4 45.8 26.8 63.6 46 17.8 19.1 31.9 41.4 42 66.7 9.9 25.3 15 52.4 15 80.7 0 27.9-4.8 54.8-14.7 80.1-9.9 25.3-23.5 47.5-41.4 66.7-17.8 19.1-39.2 34.3-63.6 45.3-24.6 11.2-51.7 16.7-81.2 16.7zm-146.7-207.9c0 22.7 4 43.8 11.7 63.1 7.7 19.6 18.3 36.5 31.5 51.3 13.2 14.7 28.8 26.4 46.6 34.5 17.8 8.4 36.7 12.5 57 12.5 20 0 39.2-4.4 57-13 17.8-8.6 33.7-20.2 47.1-35 13.4-14.7 24-31.9 31.7-51.5 7.7-19.6 11.7-40.9 11.7-63.6 0-22.2-4-43.3-11.7-63.4-7.7-20-18.3-37.4-31.7-52.1-13.4-14.7-29.3-26.2-47.1-34.8-17.8-8.6-37-12.8-57-12.8-20.2 0-39.2 4.2-56.8 12.8-17.6 8.6-33 20.2-46.4 35.2-13.4 15.2-24.2 32.6-31.9 52.6-7.7 20-11.7 41.4-11.7 64zm570.5 207.9c-31.5 0-62.3-5.3-92.4-15.6-30.1-10.3-55.9-25.3-77.7-44.9l24.2-35.6c22.7 18.7 46 32.6 69.5 41.8 23.5 9.5 48.6 14.1 75.5 14.1 32.8 0 58.7-6.6 78.1-19.8 19.4-13.2 29-31.9 29-56.3 0-11.4-2.6-20.9-7.7-28.4-5.1-7.5-12.8-14.1-22.9-19.8-10.1-5.5-22.9-10.6-38.1-15-15.2-4.4-33-9-53.2-13.6-23.1-5.7-43.3-11.4-60.3-17.2-17.2-5.7-31.2-12.1-42.5-19.4-11.2-7.3-19.4-16.1-24.9-26.8-5.5-10.6-8.1-23.8-8.1-39.8 0-20.2 4-38.1 12.1-53.7 7.9-15.6 18.7-28.4 32.6-38.5 13.6-9.9 29.7-17.6 48.2-22.9 18.3-5.1 37.8-7.7 58.5-7.7 31 0 59.4 5.1 84.7 15.2 25.3 10.1 45.5 23.5 61.2 40l-25.5 31c-15.2-15.6-33.4-27.3-54.8-35-21.3-7.7-43.8-11.7-67.1-11.7-13.9 0-26.8 1.3-38.7 4.2-12.1 2.9-22.4 7.5-31.5 13.6-9 6.4-16.3 14.3-21.3 23.8-5.3 9.5-7.9 20.7-7.9 33.7 0 10.8 1.8 19.6 5.5 26.4 3.7 6.8 9.7 12.5 18 17.4 8.1 5.1 18.7 9.5 31.2 13.2 12.5 4 27.9 7.9 46.2 12.1 25.7 6.4 48.6 12.5 68.2 18.7 19.6 6.2 36.1 13.4 49.3 21.6 13.2 8.4 23.1 18.5 29.9 30.4 6.8 12.1 10.1 26.6 10.1 43.6 0 37.2-14.3 66.7-42.7 88.4-28.4 21.8-66.7 32.6-114.8 32.6zm413.8-211c0-28.4 4.8-55.4 14.7-80.7 9.9-25.3 23.8-47.5 41.6-66.4 17.8-18.9 39.2-33.9 64-44.7 24.9-10.8 52.1-16.3 82.1-16.3 38.3 0 71.7 8.6 100.1 26 28.4 17.4 49.9 40.9 64.5 70.4l-51.3 16.3c-11.2-20.7-27.1-37-47.5-48.6-20.5-11.7-43.1-17.4-68-17.4-20.7 0-40 4.2-57.9 12.3-17.8 8.4-33.4 19.6-46.6 33.9-13.2 14.3-23.5 31.2-31 50.8-7.5 19.6-11.2 41.1-11.2 64.5 0 22.7 4 44.2 11.7 64.2 7.7 20.2 18.5 37.6 31.9 52.4 13.4 14.7 29 26.4 46.9 35 17.8 8.6 37 13 57 13 13 0 25.7-1.8 38.5-5.5 12.5-3.7 24.4-8.8 35.4-15.2 10.8-6.4 20.2-13.9 27.9-22.2 7.7-8.1 13-16.9 16.3-26.2l51.9 15.4c-5.7 14.5-14.1 27.9-24.9 40-10.8 12.1-23.5 22.7-38.3 31.7-14.7 9-31.2 16.1-49.1 21.1-17.8 4.8-36.3 7.3-55.4 7.3-29.5 0-56.5-5.5-81.4-16.7-24.9-11-46.4-26.2-64.5-45.8-18.3-19.4-32.3-41.8-42.2-67.1-10.1-25.3-15.2-52.6-15.2-81.4zm622.4 211c-29.5 0-56.3-5.5-80.7-16.7-24.4-11-45.3-26.2-63.1-45.3-17.8-19.1-31.7-41.4-41.6-66.7-9.9-25.3-14.7-52.1-14.7-80.1 0-28.4 5.1-55.4 15.2-80.7 9.9-25.3 24-47.5 41.8-66.7 17.8-19.1 38.9-34.5 63.4-46 24.2-11.2 50.8-16.9 79.9-16.9 28.8 0 55.7 5.7 80.3 16.9 24.4 11.4 45.8 26.8 63.6 46 17.8 19.1 31.9 41.4 42 66.7 9.9 25.3 15 52.4 15 80.7 0 27.9-4.8 54.8-14.7 80.1-9.9 25.3-23.5 47.5-41.4 66.7-17.8 19.1-39.2 34.3-63.6 45.3-24.6 11.2-51.7 16.7-81.2 16.7zm-146.7-207.9c0 22.7 4 43.8 11.7 63.1 7.7 19.6 18.3 36.5 31.5 51.3 13.2 14.7 28.8 26.4 46.6 34.5 17.8 8.4 36.7 12.5 57 12.5 20 0 39.2-4.4 57-13 17.8-8.6 33.7-20.2 47.1-35 13.4-14.7 24-31.9 31.7-51.5 7.7-19.6 11.7-40.9 11.7-63.6 0-22.2-4-43.3-11.7-63.4-7.7-20-18.3-37.4-31.7-52.1-13.4-14.7-29.3-26.2-47.1-34.8-17.8-8.6-37-12.8-57-12.8-20.2 0-39.2 4.2-56.8 12.8-17.6 8.6-33 20.2-46.4 35.2-13.4 15.2-24.2 32.6-31.9 52.6-7.7 20-11.7 41.4-11.7 64zm1037.7 200.2l-52.8 0 0-225.9c0-47.1-7.5-81.8-22.4-104.1-15.2-22.2-37.4-33.2-66.9-33.2-15.6 0-30.1 2.9-43.8 8.6-13.9 5.7-26.4 13.6-38.1 24-11.7 10.3-22 22.7-30.6 37-8.8 14.3-15.6 29.9-20.2 46.9l0 246.8-52.8 0 0-225.9c0-48.2-7.3-82.9-21.8-104.7-14.5-21.8-36.7-32.6-66.7-32.6-30.6 0-57.6 10.6-81.4 31.7-24 21.3-41.1 49.3-51.5 84l0 247.5-52.6 0 0-404.4 48 0 0 91.5c16.5-31 38.3-55.2 65.3-72.6 26.8-17.4 56.5-26 89.1-26 34.1 0 61.6 9.5 82.1 28.6 20.5 19.1 33 44.4 37.6 75.5 37.6-69.3 89.8-104.1 156-104.1 22.7 0 42 4.2 57.9 12.3 15.6 8.4 28.4 20.2 38.1 35.4 9.5 15.2 16.5 33.7 20.9 55 4.4 21.6 6.6 45.5 6.6 71.9l0 236.7zm409.8 0l-164.6-404.4 54.3 0 138.8 355.5 139.7-355.5 51.3 0-164.6 404.4-55 0zm450.9 7.7c-29.5 0-56.3-5.5-80.7-16.7-24.4-11-45.3-26.2-63.1-45.3-17.8-19.1-31.7-41.4-41.6-66.7-9.9-25.3-14.7-52.1-14.7-80.1 0-28.4 5.1-55.4 15.2-80.7 9.9-25.3 24-47.5 41.8-66.7 17.8-19.1 38.9-34.5 63.4-46 24.2-11.2 50.8-16.9 79.9-16.9 28.8 0 55.7 5.7 80.3 16.9 24.4 11.4 45.8 26.8 63.6 46 17.8 19.1 31.9 41.4 42 66.7 9.9 25.3 15 52.4 15 80.7 0 27.9-4.8 54.8-14.7 80.1-9.9 25.3-23.5 47.5-41.4 66.7-17.8 19.1-39.2 34.3-63.6 45.3-24.6 11.2-51.7 16.7-81.2 16.7zm-146.7-207.9c0 22.7 4 43.8 11.7 63.1 7.7 19.6 18.3 36.5 31.5 51.3 13.2 14.7 28.8 26.4 46.6 34.5 17.8 8.4 36.7 12.5 57 12.5 20 0 39.2-4.4 57-13 17.8-8.6 33.7-20.2 47.1-35 13.4-14.7 24-31.9 31.7-51.5 7.7-19.6 11.7-40.9 11.7-63.6 0-22.2-4-43.3-11.7-63.4-7.7-20-18.3-37.4-31.7-52.1-13.4-14.7-29.3-26.2-47.1-34.8-17.8-8.6-37-12.8-57-12.8-20.2 0-39.2 4.2-56.8 12.8-17.6 8.6-33 20.2-46.4 35.2-13.4 15.2-24.2 32.6-31.9 52.6-7.7 20-11.7 41.4-11.7 64zm408.3-3.1c0-28.4 4.8-55.4 14.7-80.7 9.9-25.3 23.8-47.5 41.6-66.4 17.8-18.9 39.2-33.9 64-44.7 24.9-10.8 52.1-16.3 82.1-16.3 38.3 0 71.7 8.6 100.1 26 28.4 17.4 49.9 40.9 64.5 70.4l-51.3 16.3c-11.2-20.7-27.1-37-47.5-48.6-20.5-11.7-43.1-17.4-68-17.4-20.7 0-40 4.2-57.9 12.3-17.8 8.4-33.4 19.6-46.6 33.9-13.2 14.3-23.5 31.2-31 50.8-7.5 19.6-11.2 41.1-11.2 64.5 0 22.7 4 44.2 11.7 64.2 7.7 20.2 18.5 37.6 31.9 52.4 13.4 14.7 29 26.4 46.9 35 17.8 8.6 37 13 57 13 13 0 25.7-1.8 38.5-5.5 12.5-3.7 24.4-8.8 35.4-15.2 10.8-6.4 20.2-13.9 27.9-22.2 7.7-8.1 13-16.9 16.3-26.2l51.9 15.4c-5.7 14.5-14.1 27.9-24.9 40-10.8 12.1-23.5 22.7-38.3 31.7-14.7 9-31.2 16.1-49.1 21.1-17.8 4.8-36.3 7.3-55.4 7.3-29.5 0-56.5-5.5-81.4-16.7-24.9-11-46.4-26.2-64.5-45.8-18.3-19.4-32.3-41.8-42.2-67.1-10.1-25.3-15.2-52.6-15.2-81.4zm527-297.2l76.1-66 38.7 0 76.8 66-30.1 16.3-66-49.1-66 49.1-29.5-16.3zm97.7 508.2c-29.5 0-56.5-5.5-81-16.7-24.6-11-46-26.2-64-45.8-18.3-19.4-32.3-41.8-42.2-67.1-10.1-25.3-15.2-52.6-15.2-81.4 0-28.4 5.1-55.2 15.2-80.5 9.9-25.1 24-47.1 41.8-66 17.8-18.7 39.2-33.7 64-44.9 24.9-11.2 51.7-16.7 80.7-16.7 29.5 0 56.5 5.5 81.2 16.7 24.4 11.2 45.5 26.2 63.1 45.3 17.6 19.1 31.2 41.1 41.1 66 9.9 24.9 14.7 51.3 14.7 79.2 0 4.2 0 8.1 0 12.3 0 4.2-0.2 7-0.9 8.6l-346.1 0c1.5 21.8 6.6 42 15.2 60.3 8.6 18.3 19.6 34.3 33 47.7 13.4 13.4 28.8 24 46.2 31.5 17.4 7.5 35.9 11.2 55.4 11.2 13 0 26-1.8 38.9-5.5 13-3.7 24.9-8.6 35.6-14.7 10.8-6.2 20.7-13.9 29.5-22.9 8.8-9 15.4-19.1 20-29.9l46 12.5c-6.4 15-15.2 28.6-26.4 40.7-11.4 12.1-24.6 22.7-39.6 31.7-15.2 9-31.7 16.1-49.7 21.1-18.3 4.8-37.2 7.3-56.8 7.3zm149.2-231.2c-1.5-21.8-6.6-41.6-15.2-59.4-8.6-17.8-19.4-33.2-32.6-46.2-13.2-13-28.4-23.1-45.8-30.4-17.4-7.3-36.1-10.8-55.7-10.8-19.6 0-38.3 3.5-55.9 10.8-17.6 7.3-33 17.4-46.2 30.4-13.2 13-23.8 28.4-31.7 46.4-8.1 18.3-12.8 37.8-14.3 59.2l297.2 0zm536.4 231.2c-34.1 0-64.2-8.6-90.4-26-26.2-17.4-47.3-39.2-63.4-65.6l0 249-52.6 0 0-569.6 47.3 0 0 78.3c16.5-25.3 38.1-46 64.5-61.8 26.4-15.6 55-23.5 86-23.5 27.9 0 53.7 5.7 77 17.4 23.1 11.7 43.3 27.3 60.5 46.6 16.9 19.6 30.4 41.8 40 67.1 9.5 25.3 14.3 51.5 14.3 78.5 0 28.4-4.4 55.4-13.2 80.7-8.8 25.3-21.3 47.5-37.6 66.7-16.5 19.1-35.9 34.3-58.3 45.3-22.7 11.2-47.3 16.7-74.1 16.7zm-14.7-46.4c21.8 0 41.6-4.6 59.4-14.1 17.8-9.2 33.2-21.6 45.8-37 12.5-15.2 22.2-32.6 29-51.9 6.8-19.4 10.1-39.4 10.1-60.1 0-21.8-4-42.5-11.7-62.3-7.7-19.6-18.3-37-31.7-51.9-13.4-15-29.5-26.8-47.7-35.6-18.5-8.8-38.3-13.2-59.4-13.2-13.4 0-27.5 2.6-42.2 8.1-14.7 5.5-28.6 12.5-41.1 21.6-12.8 9-23.5 19.8-32.6 31.9-9 12.1-14.7 25.1-16.9 38.5l0 124.1c6.4 14.5 14.3 27.9 23.8 40.5 9.5 12.5 20.5 23.1 32.6 32.1 12.1 9 25.3 16.3 39.4 21.3 13.9 5.3 28.4 7.9 43.3 7.9zm389 46.4c-19.1 0-37-3.3-53.2-9.7-16.3-6.4-30.6-15.4-42.7-26.8-12.1-11.2-21.6-24.6-28.4-39.8-6.8-15.2-10.1-31.7-10.1-49.3 0-17.6 4.2-33.9 12.5-49.1 8.1-15 19.8-27.9 35-38.7 15-10.8 32.8-19.4 53.5-25.3 20.7-5.9 43.3-8.8 68.2-8.8 20.9 0 41.8 1.8 63.1 5.3 21.1 3.7 40 8.8 56.5 15.6l0-36.5c0-35.6-10.1-64-30.1-84.9-20.2-20.9-48.2-31.5-84-31.5-20.7 0-41.8 4.2-63.6 12.3-21.8 8.4-43.8 20.2-66 35.9l-18.7-35c52.4-35.2 103.2-52.8 152.2-52.8 50.8 0 90.6 14.3 119.7 42.7 28.8 28.4 43.3 67.8 43.3 118.1l0 182.4c0 14.3 6.4 21.6 19.4 21.6l0 46.6c-8.8 1.5-15.6 2.4-20.2 2.4-13.4 0-24-3.3-31.5-10.1-7.5-6.8-11.4-16.1-11.9-27.9l-1.5-31.9c-18.7 24.4-42 42.9-70.2 55.9-28.4 13-58.7 19.4-91.3 19.4zm12.3-40.3c27.5 0 52.6-5.3 75.7-15.6 23.1-10.3 40.5-24 52.4-41.1 4.6-4.6 8.1-9.7 10.6-15.2 2.4-5.5 3.5-10.3 3.5-15l0-66c-17.6-6.8-35.9-11.9-54.8-15.6-18.9-3.5-38.3-5.3-57.9-5.3-37.2 0-67.5 7.7-90.6 23.1-23.3 15.6-35 36.1-35 61.4 0 12.5 2.4 24.2 7.5 35 4.8 10.8 11.4 20.2 20 28.2 8.6 8.1 18.7 14.5 30.6 19.1 11.9 4.6 24.6 7 38.1 7zm510.8-325.2c-35.9 1.1-66.9 10.8-93.1 29.5-26.4 18.7-45.1 44.2-56.1 76.8l0 251.5-52.6 0 0-404.4 49.5 0 0 97c15.2-31 35.4-55.4 60.7-73 25.3-17.6 52.4-26.4 81.4-26.4 4.2 0 7.5 0.2 10.1 0.9l0 48.2zm172.3 365.4c-19.1 0-37-3.3-53.2-9.7-16.3-6.4-30.6-15.4-42.7-26.8-12.1-11.2-21.6-24.6-28.4-39.8-6.8-15.2-10.1-31.7-10.1-49.3 0-17.6 4.2-33.9 12.5-49.1 8.1-15 19.8-27.9 35-38.7 15-10.8 32.8-19.4 53.5-25.3 20.7-5.9 43.3-8.8 68.2-8.8 20.9 0 41.8 1.8 63.1 5.3 21.1 3.7 40 8.8 56.5 15.6l0-36.5c0-35.6-10.1-64-30.1-84.9-20.2-20.9-48.2-31.5-84-31.5-20.7 0-41.8 4.2-63.6 12.3-21.8 8.4-43.8 20.2-66 35.9l-18.7-35c52.4-35.2 103.2-52.8 152.2-52.8 50.8 0 90.6 14.3 119.7 42.7 28.8 28.4 43.3 67.8 43.3 118.1l0 182.4c0 14.3 6.4 21.6 19.4 21.6l0 46.6c-8.8 1.5-15.6 2.4-20.2 2.4-13.4 0-24-3.3-31.5-10.1-7.5-6.8-11.4-16.1-11.9-27.9l-1.5-31.9c-18.7 24.4-42 42.9-70.2 55.9-28.4 13-58.7 19.4-91.3 19.4zm12.3-40.3c27.5 0 52.6-5.3 75.7-15.6 23.1-10.3 40.5-24 52.4-41.1 4.6-4.6 8.1-9.7 10.6-15.2 2.4-5.5 3.5-10.3 3.5-15l0-66c-17.6-6.8-35.9-11.9-54.8-15.6-18.9-3.5-38.3-5.3-57.9-5.3-37.2 0-67.5 7.7-90.6 23.1-23.3 15.6-35 36.1-35 61.4 0 12.5 2.4 24.2 7.5 35 4.8 10.8 11.4 20.2 20 28.2 8.6 8.1 18.7 14.5 30.6 19.1 11.9 4.6 24.6 7 38.1 7zm673.2 40.3c-27.9 0-53.9-5.7-77.7-17.4-24-11.7-44.4-27.1-61.4-46.2-16.9-19.1-30.4-41.4-39.8-66.4-9.7-25.1-14.5-51.3-14.5-78.8 0-28.4 4.6-55.4 14.1-81.2 9.2-25.5 22-48 38.3-67.1 16.3-19.1 35.6-34.1 58.3-45.3 22.4-11.2 47.1-16.7 74.1-16.7 34.1 0 64.5 9 90.9 26.8 26.2 17.8 46.9 39.6 62 64.9l0-246.8 52.8 0 0 498.3c0 14.3 6.2 21.6 18.5 21.6l0 46.6c-7.7 1.5-13.9 2.4-18.5 2.4-12.5 0-23.3-4-32.6-12.1-9.5-8.1-14.1-17.8-14.1-29l0-39.6c-16.1 26.4-37.6 47.3-65.1 62.7-27.5 15.6-55.9 23.3-85.4 23.3zm11.4-46.4c13 0 27.1-2.6 41.8-7.9 14.7-5.1 28.4-12.3 41.4-21.3 13-9 24-19.6 33-31.7 9-12.1 14.7-25.3 16.7-39.2l0-125c-5.3-14.1-12.8-27.3-22.7-39.4-9.9-12.1-21.1-22.9-33.7-32.3-12.5-9.2-26.2-16.5-40.7-21.6-14.5-5.1-28.8-7.7-42.7-7.7-21.8 0-41.4 4.6-59 13.9-17.6 9.5-32.8 21.8-45.3 37-12.8 15.2-22.4 32.8-29.3 52.4-6.8 19.6-10.1 39.8-10.1 60.5 0 21.8 4 42.5 11.7 62 7.7 19.8 18.5 37 31.9 51.7 13.4 14.7 29.3 26.6 47.7 35.4 18.3 8.8 38.1 13.2 59.2 13.2zm479.6 46.4c-29.5 0-56.5-5.5-81-16.7-24.6-11-46-26.2-64-45.8-18.3-19.4-32.3-41.8-42.2-67.1-10.1-25.3-15.2-52.6-15.2-81.4 0-28.4 5.1-55.2 15.2-80.5 9.9-25.1 24-47.1 41.8-66 17.8-18.7 39.2-33.7 64-44.9 24.9-11.2 51.7-16.7 80.7-16.7 29.5 0 56.5 5.5 81.2 16.7 24.4 11.2 45.5 26.2 63.1 45.3 17.6 19.1 31.2 41.1 41.1 66 9.9 24.9 14.7 51.3 14.7 79.2 0 4.2 0 8.1 0 12.3 0 4.2-0.2 7-0.9 8.6l-346.1 0c1.5 21.8 6.6 42 15.2 60.3 8.6 18.3 19.6 34.3 33 47.7 13.4 13.4 28.8 24 46.2 31.5 17.4 7.5 35.9 11.2 55.4 11.2 13 0 26-1.8 38.9-5.5 13-3.7 24.9-8.6 35.6-14.7 10.8-6.2 20.7-13.9 29.5-22.9 8.8-9 15.4-19.1 20-29.9l46 12.5c-6.4 15-15.2 28.6-26.4 40.7-11.4 12.1-24.6 22.7-39.6 31.7-15.2 9-31.7 16.1-49.7 21.1-18.3 4.8-37.2 7.3-56.8 7.3zm149.2-231.2c-1.5-21.8-6.6-41.6-15.2-59.4-8.6-17.8-19.4-33.2-32.6-46.2-13.2-13-28.4-23.1-45.8-30.4-17.4-7.3-36.1-10.8-55.7-10.8-19.6 0-38.3 3.5-55.9 10.8-17.6 7.3-33 17.4-46.2 30.4-13.2 13-23.8 28.4-31.7 46.4-8.1 18.3-12.8 37.8-14.3 59.2l297.2 0zm333.7-134.2c-35.9 1.1-66.9 10.8-93.1 29.5-26.4 18.7-45.1 44.2-56.1 76.8l0 251.5-52.6 0 0-404.4 49.5 0 0 97c15.2-31 35.4-55.4 60.7-73 25.3-17.6 52.4-26.4 81.4-26.4 4.2 0 7.5 0.2 10.1 0.9l0 48.2zm272.4 0c-35.9 1.1-66.9 10.8-93.1 29.5-26.4 18.7-45.1 44.2-56.1 76.8l0 251.5-52.6 0 0-404.4 49.5 0 0 97c15.2-31 35.4-55.4 60.7-73 25.3-17.6 52.4-26.4 81.4-26.4 4.2 0 7.5 0.2 10.1 0.9l0 48.2zm222.7 365.4c-29.5 0-56.3-5.5-80.7-16.7-24.4-11-45.3-26.2-63.1-45.3-17.8-19.1-31.7-41.4-41.6-66.7-9.9-25.3-14.7-52.1-14.7-80.1 0-28.4 5.1-55.4 15.2-80.7 9.9-25.3 24-47.5 41.8-66.7 17.8-19.1 38.9-34.5 63.4-46 24.2-11.2 50.8-16.9 79.9-16.9 28.8 0 55.7 5.7 80.3 16.9 24.4 11.4 45.8 26.8 63.6 46 17.8 19.1 31.9 41.4 42 66.7 9.9 25.3 15 52.4 15 80.7 0 27.9-4.8 54.8-14.7 80.1-9.9 25.3-23.5 47.5-41.4 66.7-17.8 19.1-39.2 34.3-63.6 45.3-24.6 11.2-51.7 16.7-81.2 16.7zm-146.7-207.9c0 22.7 4 43.8 11.7 63.1 7.7 19.6 18.3 36.5 31.5 51.3 13.2 14.7 28.8 26.4 46.6 34.5 17.8 8.4 36.7 12.5 57 12.5 20 0 39.2-4.4 57-13 17.8-8.6 33.7-20.2 47.1-35 13.4-14.7 24-31.9 31.7-51.5 7.7-19.6 11.7-40.9 11.7-63.6 0-22.2-4-43.3-11.7-63.4-7.7-20-18.3-37.4-31.7-52.1-13.4-14.7-29.3-26.2-47.1-34.8-17.8-8.6-37-12.8-57-12.8-20.2 0-39.2 4.2-56.8 12.8-17.6 8.6-33 20.2-46.4 35.2-13.4 15.2-24.2 32.6-31.9 52.6-7.7 20-11.7 41.4-11.7 64zm624.9 180.8c-3.3 1.5-7.7 3.5-13.6 6.2-5.9 2.6-13 5.3-20.7 7.7-7.7 2.6-16.5 5.1-26.4 7-9.9 2-20.2 3.1-31 3.1-11.2 0-22-1.5-32.3-4.6-10.3-3.1-19.6-7.9-27.3-14.3-7.7-6.4-14.1-14.5-18.7-24.4-4.6-9.9-7-21.3-7-34.3l0-289.3-55.9 0 0-42 55.9 0 0-136.6 52.8 0 0 136.6 93.1 0 0 42-93.1 0 0 274.6c1.1 15.2 6.4 26.2 16.1 33 9.5 7 20.5 10.6 32.8 10.6 15.2 0 28.4-2.4 39.8-7.5 11.2-4.8 18.5-8.4 21.6-10.3l14.1 42.7zm167.6 27.1c-19.1 0-37-3.3-53.2-9.7-16.3-6.4-30.6-15.4-42.7-26.8-12.1-11.2-21.6-24.6-28.4-39.8-6.8-15.2-10.1-31.7-10.1-49.3 0-17.6 4.2-33.9 12.5-49.1 8.1-15 19.8-27.9 35-38.7 15-10.8 32.8-19.4 53.5-25.3 20.7-5.9 43.3-8.8 68.2-8.8 20.9 0 41.8 1.8 63.1 5.3 21.1 3.7 40 8.8 56.5 15.6l0-36.5c0-35.6-10.1-64-30.1-84.9-20.2-20.9-48.2-31.5-84-31.5-20.7 0-41.8 4.2-63.6 12.3-21.8 8.4-43.8 20.2-66 35.9l-18.7-35c52.4-35.2 103.2-52.8 152.2-52.8 50.8 0 90.6 14.3 119.7 42.7 28.8 28.4 43.3 67.8 43.3 118.1l0 182.4c0 14.3 6.4 21.6 19.4 21.6l0 46.6c-8.8 1.5-15.6 2.4-20.2 2.4-13.4 0-24-3.3-31.5-10.1-7.5-6.8-11.4-16.1-11.9-27.9l-1.5-31.9c-18.7 24.4-42 42.9-70.2 55.9-28.4 13-58.7 19.4-91.3 19.4zm12.3-40.3c27.5 0 52.6-5.3 75.7-15.6 23.1-10.3 40.5-24 52.4-41.1 4.6-4.6 8.1-9.7 10.6-15.2 2.4-5.5 3.5-10.3 3.5-15l0-66c-17.6-6.8-35.9-11.9-54.8-15.6-18.9-3.5-38.3-5.3-57.9-5.3-37.2 0-67.5 7.7-90.6 23.1-23.3 15.6-35 36.1-35 61.4 0 12.5 2.4 24.2 7.5 35 4.8 10.8 11.4 20.2 20 28.2 8.6 8.1 18.7 14.5 30.6 19.1 11.9 4.6 24.6 7 38.1 7zm37.4-448.6l-35-13.2 45.8-72.2 55.9 0-66.7 85.4zm263.8 294.1l0-48.8 226.6 0 0 48.8-226.6 0zm337.7-379.5l52.8 0 0 475c0 15 4.2 26.6 12.5 35.2 8.1 8.6 19.8 12.8 34.8 12.8 5.7 0 12.5-0.9 20.2-2.4 7.7-1.5 15-3.5 21.8-5.9l9.2 42.7c-9.9 4.2-21.8 7.5-36.1 10.1-14.3 2.4-26.6 3.7-37 3.7-24.2 0-43.3-6.8-57.2-20.7-14.1-13.6-21.1-32.8-21.1-57.6l0-492.8zm381.3 574.2c-29.5 0-56.3-5.5-80.7-16.7-24.4-11-45.3-26.2-63.1-45.3-17.8-19.1-31.7-41.4-41.6-66.7-9.9-25.3-14.7-52.1-14.7-80.1 0-28.4 5.1-55.4 15.2-80.7 9.9-25.3 24-47.5 41.8-66.7 17.8-19.1 38.9-34.5 63.4-46 24.2-11.2 50.8-16.9 79.9-16.9 28.8 0 55.7 5.7 80.3 16.9 24.4 11.4 45.8 26.8 63.6 46 17.8 19.1 31.9 41.4 42 66.7 9.9 25.3 15 52.4 15 80.7 0 27.9-4.8 54.8-14.7 80.1-9.9 25.3-23.5 47.5-41.4 66.7-17.8 19.1-39.2 34.3-63.6 45.3-24.6 11.2-51.7 16.7-81.2 16.7zm-146.7-207.9c0 22.7 4 43.8 11.7 63.1 7.7 19.6 18.3 36.5 31.5 51.3 13.2 14.7 28.8 26.4 46.6 34.5 17.8 8.4 36.7 12.5 57 12.5 20 0 39.2-4.4 57-13 17.8-8.6 33.7-20.2 47.1-35 13.4-14.7 24-31.9 31.7-51.5 7.7-19.6 11.7-40.9 11.7-63.6 0-22.2-4-43.3-11.7-63.4-7.7-20-18.3-37.4-31.7-52.1-13.4-14.7-29.3-26.2-47.1-34.8-17.8-8.6-37-12.8-57-12.8-20.2 0-39.2 4.2-56.8 12.8-17.6 8.6-33 20.2-46.4 35.2-13.4 15.2-24.2 32.6-31.9 52.6-7.7 20-11.7 41.4-11.7 64zm428.3-125.8l0-75.9 45.1 0 0 75.9-45.1 0zm0 326l0-76.1 45.1 0 0 76.1-45.1 0z"/><path class="fil0" d="M9189.3 16027.8c158.8 0 255.1-110.2 255.1-230l0-15.2c-8.9-122.2-84-168.7-165.1-214.7-54.9-31.5-112.7-63.8-153.8-122.6-30.1-42.5-42.5-86.1-42.5-123.7 0-65.2 37.6-115.2 90-115.2 7.4 0 17.4 1.4 26.2 3.9 40.1 11 75.1 51 98.9 99.9 7.4 16.3 26.2 22.3 48.6 22.3 48.9 0 112.7-32.2 112.7-74.8 0-7.4-2.5-15.2-6.4-22.7-50-92.5-138.6-147.4-232.5-147.4l-6 0c-162.6 3.9-276.4 137.5-276.4 287.4 0 122.6 76.2 257.6 263.6 344.1 71.2 33.7 97.5 72.3 97.5 106 0 53.9-62.4 97.8-119.8 97.8-47.5 0-90-30.1-90-108.8l1.1-26.2c0-23.7-74.8-80.1-121.2-80.1-14.9 0-27.6 6-32.6 21.3-9.9 31.2-14.9 59.9-14.9 86.1 0 129 109.9 206.2 252.7 212.6l14.9 0zm646.3 1.1c225-13.5 286.3-339.8 286.3-631.1 0-103.8-7.4-202.7-18.8-281.4-3.9-21.3-26.2-30.1-52.4-30.1-34 0-70.2 16.3-70.2 41.5l0 2.5c3.9 41.1 6.4 101.3 6.4 170.1 0 243.8-31.2 595-129 595l-6 0c-81.5-11.3-105.2-167.6-105.2-338.8 0-155.2 20.2-322.5 31.5-405l0-3.9c0-33.7-67.7-52.4-124-52.4-38.6 0-72.3 8.9-76.2 28.7-11.3 67.7-31.2 217.6-31.2 376.3 0 253.7 51.4 528.7 271.4 528.7l17.4 0zm588.9-301.2l14.9-538.6c148.8 21.3 216.2 126.2 216.2 239.9 0 123.7-82.2 257.6-231 298.7zm-85 311.5c32.6 0 66.3-18.8 75.1-57.8 8.5-37.2 6-103.5 7.5-143.5 192.4-25.2 363.6-172.6 395.1-367.5 3.5-20.2 5-40 5-60.2 0-171.1-124-328.8-401.5-332.4-52.4 0-107.4 7.4-158.7 23.7-35.1 11.3-52.4 37.6-52.4 61.3 0 24.8 18.8 46.1 56.3 46.1l1.1 0-2.5 759c0 46.1 37.6 71.2 75.1 71.2zm636.6-23.7c54.9-5 111.3-6.4 166.2-6.4l187.5 1.4c23.7 0 37.6-31.5 37.6-60.2 0-26.2-11.3-51-36.5-51l-226.1 8.5c-3.9-41.1-6.4-81.1-8.9-121.2l163.7 7.4c25.2 0 36.5-26.2 36.5-52.4 0-28.7-13.8-58.8-37.6-58.8l-165.1 0 0-53.5c0-137.8 7.4-275.3 18.8-412.8l224 8.9c24.8 0 39.7-33.7 39.7-63.8 0-24.8-11-48.5-34.7-48.5-141.4-1.4-276.4-2.5-416.4-11.3l-2.5 0c-25.2 0-37.6 27.3-37.6 53.9 0 23.7 11.3 47.5 32.6 48.5l23.7 2.5c-12.7 144.9-20.2 290.2-20.2 436.2 0 113.8 5 227.5 17.7 341.3 1.1 17.7 17.4 31.5 34.7 31.5l2.8 0zm694.6-286.3l32.6-536.5c143.9 25.2 208.7 126.5 208.7 236.4 0 126.2-87.5 262.6-241.3 300.2zm-86.1 307.6c8.9 0 16.3 0 24.8-3.9 43.9-18.8 46.4-59.9 48.9-101.3l5-91.1 26.2-3.9c32.6 61.3 93.9 151.3 195.3 189.9 9.9 3.9 17.4 5.3 24.8 5.3 33.7 0 48.9-30.1 48.9-60.2 0-24.8-9.9-48.5-30.1-53.9-9.9-1.1-17.4-8.5-24.8-13.5-37.6-27.6-58.8-70.2-71.6-111.3 156.3-76.5 246.3-231.4 246.3-377.7 0-167.3-117.3-322.5-389.8-334.9l-22.7 0c-46.1 0-92.5 6-136.1 18.8-35.1 9.9-53.9 36.2-53.9 61.3 0 23.7 17.4 45 54.9 46.1l-28.7 760.1c0 38.6 31.2 70.2 68.8 70.2l13.8 0z"/><path class="fil0" d="M5883.9 18345.9l33.5-1213.2c335.2 47.9 486.9 284.1 486.9 540.4 0 278.6-185.2 580.3-520.4 672.9zm-191.6 701.6c73.4 0 149.3-42.3 169.2-130.1 19.2-83.8 13.6-233.1 16.8-323.2 433.4-56.7 818.9-388.7 889.9-827.7 8-45.5 11.2-90.2 11.2-135.7 0-385.5-279.4-740.7-904.3-748.7-118.1 0-241.8 16.8-357.6 53.5-79 25.5-118.1 84.6-118.1 138.1 0 55.9 42.3 103.8 126.9 103.8l2.4 0-5.6 1709.6c0 103.8 84.6 160.4 169.2 160.4zm2041.6-79l59.1-3.2c399.9-33.5 718.3-470.1 718.3-1002.5 0-512.4-296.1-937-679.2-993.7-35.9-5.6-72.6-8-106.9-8-512.4 0-748.7 627.4-748.7 1001.7 0 375.1 228.3 1005.7 757.5 1005.7zm87-318.5c-205.1 0-419-241.8-419-687.2 0-444.6 213.9-684 419-684 200.3 0 391.9 217.1 391.9 684 0 467.7-194.7 687.2-391.9 687.2zm1267.6 130.1c20-532.4 42.3-1343.3 51.1-1641.8 357.6 47.9 554.7 444.6 554.7 836.5 0 382.3-189.2 763-605.8 805.3zm-44.7 253c700.8 0 1044-538 1044-1078.3 0-526.8-332-1053.6-988.1-1061.5-120.5 0-245 16.8-357.6 53.5-79 22.4-118.1 81.4-118.1 132.5 0 53.5 42.3 101.4 126.9 101.4l2.4 0-5.6 1590.7c-53.5 5.6-90.2 79-90.2 140.5 0 42.3 17.6 79 59.1 87.8 115.7 24.8 225.9 33.5 327.2 33.5zm1418.6-39.1c123.7-11.2 250.6-14.4 374.3-14.4l422.2 3.2c53.5 0 84.6-71 84.6-135.7 0-59.1-25.5-114.9-82.2-114.9l-509.2 19.2c-8.8-92.6-14.4-182.8-19.9-273l368.8 16.8c56.7 0 82.2-59.1 82.2-118.1 0-64.6-31.1-132.5-84.6-132.5l-371.9 0 0-120.5c0-310.5 16.8-620.2 42.3-929.8l504.4 20c55.9 0 89.4-75.8 89.4-143.7 0-55.9-24.7-109.3-78.2-109.3-318.5-3.2-622.6-5.6-937.8-25.5l-5.6 0c-56.7 0-84.6 61.5-84.6 121.3 0 53.5 25.5 107 73.4 109.3l53.5 5.6c-28.7 326.5-45.5 653.7-45.5 982.5 0 256.2 11.2 512.4 39.9 768.6 2.4 39.9 39.1 71 78.2 71l6.4 0zm1564.6-644.9l73.4-1208.4c324.1 56.7 470.1 284.9 470.1 532.4 0 284.1-197.1 591.4-543.5 676zm-193.9 692.8c20 0 36.7 0 55.9-8.8 99-42.3 104.6-134.9 110.2-228.3l11.2-205.1 59.1-8.8c73.4 138.1 211.5 340.8 439.8 427.8 22.4 8.8 39.1 12 55.9 12 75.8 0 110.2-67.8 110.2-135.7 0-55.9-22.3-109.3-67.8-121.3-22.3-2.4-39.1-19.2-55.9-30.3-84.6-62.3-132.5-158-161.2-250.6 352-172.4 554.7-521.2 554.7-850.8 0-376.7-264.2-726.3-878-754.2l-51.1 0c-103.8 0-208.3 13.6-306.5 42.3-79 22.4-121.3 81.4-121.3 138.1 0 53.5 39.1 101.4 123.7 103.8l-64.6 1712c0 87 70.2 158 154.9 158l31.1 0zm1458.5-47.9c123.7-11.2 250.6-14.4 374.3-14.4l422.2 3.2c53.5 0 84.6-71 84.6-135.7 0-59.1-25.5-114.9-82.2-114.9l-509.2 19.2c-8.8-92.6-14.4-182.8-19.9-273l368.8 16.8c56.7 0 82.2-59.1 82.2-118.1 0-64.6-31.1-132.5-84.6-132.5l-371.9 0 0-120.5c0-310.5 16.8-620.2 42.3-929.8l504.4 20c55.9 0 89.4-75.8 89.4-143.7 0-55.9-24.7-109.3-78.2-109.3-318.5-3.2-622.6-5.6-937.8-25.5l-5.6 0c-56.7 0-84.6 61.5-84.6 121.3 0 53.5 25.5 107 73.4 109.3l53.5 5.6c-28.7 326.5-45.5 653.7-45.5 982.5 0 256.2 11.2 512.4 39.9 768.6 2.4 39.9 39.1 71 78.2 71l6.4 0zm1700 27.9c357.6 0 574.7-248.2 574.7-518l0-34.3c-20-275.4-189.2-379.9-371.9-483.7-123.7-71-253.8-143.7-346.4-276.2-67.8-95.8-95.8-193.9-95.8-278.6 0-146.9 84.6-259.4 202.7-259.4 16.8 0 39.1 3.2 59.1 8.8 90.2 24.7 169.2 114.9 222.7 225.1 16.8 36.7 59.1 50.3 109.4 50.3 110.1 0 253.8-72.6 253.8-168.4 0-16.8-5.6-34.3-14.4-51.1-112.5-208.3-312.1-332-523.6-332l-13.6 0c-366.4 8.8-622.6 309.7-622.6 647.3 0 276.2 171.6 580.3 593.8 775 160.4 75.8 219.5 162.8 219.5 238.7 0 121.3-140.5 220.3-269.8 220.3-106.9 0-202.7-67.8-202.7-245l2.4-59.1c0-53.5-168.4-180.4-273-180.4-33.5 0-62.2 13.6-73.4 47.9-22.3 70.2-33.5 134.9-33.5 194 0 290.5 247.4 464.5 569.1 478.9l33.5 0z"/><path class="fil0" d="M8596 20609.8c30.1 0 61.3-15.2 61.3-50l-1.1-51.4 1.1-75.1 295.2 6.4 0 93.9c0 36.2 31.2 66.3 68.7 66.3l35.1 0c18.8 0 34.7-6.4 48.6-20.2 13.8-12.4 20.2-27.6 20.2-46.1 0-227.8-11.3-420.3-43.9-562.7-46.1-198.8-156.3-284.9-252.3-284.9-15.2 0-30.1 2.5-43.9 6-180 53.9-230 371.4-242.4 625.1-23.7 2.5-35.1 30.1-35.1 57.8 0 26.2 9.9 53.5 31.2 56 0 54.9 0 103.8 1.4 141.4 0 23.7 28.7 37.6 56 37.6zm352.6-283.8l-286.3-6.4c11.3-216.2 47.8-492.6 153.8-492.6l3.9 0c33.7 2.5 67.3 53.9 92.5 180 19.9 85.1 31.2 192.8 36.2 318.9zm456.6 270c50 0 103.8-16.3 103.8-46.4l0-2.5c-11.3-146-17.7-291.3-17.7-436.2 0-101.3 2.5-201.3 7.5-302.6 61.3-1.1 121.5-2.5 181.4-5 23.7-1.1 35.1-27.3 35.1-53.5 0-25.2-11.3-50-36.5-50l-1.1 0c-103.8 3.6-207.7 5-312.5 5-75.1 0-151.3 0-227.5-2.5l-1.4 0c-23.7 0-36.1 24.8-36.1 50 0 26.2 12.4 52.4 36.1 53.5 63.8 2.5 126.5 3.9 190.3 3.9-8.9 165.1-17.7 307.6-17.7 458.9 0 92.5 2.5 188.5 11.3 293.8 1.1 22.3 41.1 33.7 85 33.7zm626.4-2.5c23.7 0 36.1-26.2 36.1-52.4 0-26.2-11-51.4-35.1-51.4l-20.9-1.1c-2.8-81.5-3.9-161.6-3.9-237.8l1.1-125.1c1.4-109.8 7.8-214.7 15.2-316.1l17.4 0c25.2 0 37.6-27.6 37.6-53.9 0-24.8-11.3-48.5-35.1-48.5l-192.4-6.4c-23.7 0-35.1 22.7-35.1 47.5 0 26.2 12.4 53.9 36.2 54.9l12.8 0c-7.4 102.8-13.8 208.7-15.2 320l-1.1 125.1c0 76.2 1.1 153.8 3.6 234.9-3.5-1.1-2.5-1.1-6-1.1-25.2 0-37.6 28.7-37.6 57.4 0 27.6 11.3 53.9 36.1 53.9l186.4 0zm382.6 13.8c36.1 0 73.7-11.3 80.1-28.7 47.5-140.3 91.1-276.4 132.5-415.3 38.6-135 76.2-271.1 108.8-411.1l1.1-7.4c0-25.2-31.2-41.5-59.9-41.5-20.2 0-37.6 7.4-42.5 26.2-32.6 137.5-68.7 272.5-107.7 405-19.8 68.8-41.1 136.4-62.4 203.8-17.4-72.3-33.7-144.9-48.9-218.6-28.7-135-52.4-271.4-71.2-404-2.5-19.8-33.7-28.7-67.3-28.7-47.5 0-103.8 17.7-103.8 50l0 3.9c19.8 136.1 43.6 275 73.7 413.9 28.7 141 62.7 284.9 101.3 424.9 5 18.8 35.1 27.6 66.3 27.6zm398.4 2.5c30.1 0 61.3-15.2 61.3-50l-1.1-51.4 1.1-75.1 295.2 6.4 0 93.9c0 36.2 31.2 66.3 68.7 66.3l35.1 0c18.8 0 34.7-6.4 48.6-20.2 13.8-12.4 20.2-27.6 20.2-46.1 0-227.8-11.3-420.3-43.9-562.7-46.1-198.8-156.3-284.9-252.3-284.9-15.2 0-30.1 2.5-43.9 6-180 53.9-230 371.4-242.4 625.1-23.7 2.5-35.1 30.1-35.1 57.8 0 26.2 9.9 53.5 31.2 56 0 54.9 0 103.8 1.4 141.4 0 23.7 28.7 37.6 56 37.6zm352.6-283.8l-286.3-6.4c11.3-216.2 47.8-492.6 153.8-492.6l3.9 0c33.7 2.5 67.3 53.9 92.5 180 19.9 85.1 31.2 192.8 36.2 318.9zm452.6-7.4l32.6-536.5c143.9 25.2 208.7 126.5 208.7 236.4 0 126.2-87.5 262.6-241.3 300.2zm-86.1 307.6c8.9 0 16.3 0 24.8-3.9 43.9-18.8 46.4-59.9 48.9-101.3l5-91.1 26.2-3.9c32.6 61.3 93.9 151.3 195.3 189.9 9.9 3.9 17.4 5.3 24.8 5.3 33.7 0 48.9-30.1 48.9-60.2 0-24.8-9.9-48.5-30.1-53.9-9.9-1.1-17.4-8.5-24.8-13.5-37.6-27.6-58.8-70.2-71.6-111.3 156.3-76.5 246.3-231.4 246.3-377.7 0-167.3-117.3-322.5-389.8-334.9l-22.7 0c-46.1 0-92.5 6-136.1 18.8-35.1 9.9-53.9 36.2-53.9 61.3 0 23.7 17.4 45 54.9 46.1l-28.7 760.1c0 38.6 31.2 70.2 68.8 70.2l13.8 0zm639.8 102.4c42.5 0 76.5-38.6 77.6-86.5 0-48.5-33.7-90-76.2-90l-2.5 0c-42.5 0-76.2 39-77.6 86.5 0 48.6 33.7 90 76.2 90l2.5 0zm5-212.6c25.2 0 47.8-9.9 47.8-35.1 0-268.6 9.9-532.2 34.7-788.8l0-3.5c0-25.2-28.7-35.1-62.4-35.1-46.4 0-103.8 19.9-104.9 45-2.5 83.6-3.9 167.6-3.9 251.2 0 175.1 6.4 351.2 17.4 526.2 1.4 23.7 39 40 71.2 40zm228.7 212.6c42.5 0 76.5-38.6 77.6-86.5 0-48.5-33.7-90-76.2-90l-2.5 0c-42.5 0-76.2 39-77.6 86.5 0 48.6 33.7 90 76.2 90l2.5 0zm5-212.6c25.2 0 47.8-9.9 47.8-35.1 0-268.6 9.9-532.2 34.7-788.8l0-3.5c0-25.2-28.7-35.1-62.4-35.1-46.4 0-103.8 19.9-104.9 45-2.5 83.6-3.9 167.6-3.9 251.2 0 175.1 6.4 351.2 17.4 526.2 1.4 23.7 39 40 71.2 40z"/></svg>